<mxfile host="app.diagrams.net" agent="Mozilla/5.0 (Windows NT 10.0; Win64; x64) AppleWebKit/537.36 (KHTML, like Gecko) Chrome/127.0.0.0 Safari/537.36" version="24.7.7">
  <diagram name="Page-1" id="sYipLwpUA9cseDeOWcud">
    <mxGraphModel dx="1050" dy="522" grid="1" gridSize="10" guides="1" tooltips="1" connect="1" arrows="1" fold="1" page="1" pageScale="1" pageWidth="1169" pageHeight="827" math="0" shadow="0">
      <root>
        <mxCell id="0" />
        <mxCell id="1" parent="0" />
        <mxCell id="rRn81XEs1VAwMGL5g57i-14" value="&lt;h1 style=&quot;font-size: 14px;&quot;&gt;&lt;span lang=&quot;EN-GB&quot; style=&quot;font-size: 14px;&quot;&gt;Architecture Assessment and Improvements&lt;/span&gt;&lt;/h1&gt;" style="rounded=0;whiteSpace=wrap;html=1;fontSize=14;verticalAlign=top;align=right;" parent="1" vertex="1">
          <mxGeometry x="40" y="46.25" width="1020" height="735.5" as="geometry" />
        </mxCell>
        <mxCell id="rRn81XEs1VAwMGL5g57i-15" value="&lt;span style=&quot;font-size:11.0pt;line-height:&lt;br/&gt;107%;font-family:&amp;quot;Calibri&amp;quot;,sans-serif;mso-ascii-theme-font:minor-latin;&lt;br/&gt;mso-fareast-font-family:Calibri;mso-fareast-theme-font:minor-latin;mso-hansi-theme-font:&lt;br/&gt;minor-latin;mso-bidi-font-family:&amp;quot;Times New Roman&amp;quot;;mso-bidi-theme-font:minor-bidi;&lt;br/&gt;mso-ansi-language:EN-GB;mso-fareast-language:EN-US;mso-bidi-language:AR-SA&quot; lang=&quot;EN-GB&quot;&gt;Codebase and Architecture Review&lt;/span&gt;" style="rounded=1;whiteSpace=wrap;html=1;verticalAlign=bottom;align=center;fontStyle=1;fontColor=#0000FF;" parent="1" vertex="1">
          <mxGeometry x="50" y="44.5" width="510" height="285.5" as="geometry" />
        </mxCell>
        <mxCell id="rRn81XEs1VAwMGL5g57i-3" value="Security" style="outlineConnect=0;dashed=0;verticalLabelPosition=bottom;verticalAlign=middle;align=center;html=1;shape=mxgraph.aws3.add_on;fillColor=#759C3E;gradientColor=none;fontStyle=1" parent="1" vertex="1">
          <mxGeometry x="80" y="71.5" width="49.5" height="27" as="geometry" />
        </mxCell>
        <mxCell id="rRn81XEs1VAwMGL5g57i-4" value="&lt;span lang=&quot;EN-GB&quot; style=&quot;font-size:11.0pt;line-height:&lt;br/&gt;107%;font-family:&amp;quot;Calibri&amp;quot;,sans-serif;mso-ascii-theme-font:minor-latin;&lt;br/&gt;mso-fareast-font-family:Calibri;mso-fareast-theme-font:minor-latin;mso-hansi-theme-font:&lt;br/&gt;minor-latin;mso-bidi-font-family:&amp;quot;Times New Roman&amp;quot;;mso-bidi-theme-font:minor-bidi;&lt;br/&gt;mso-ansi-language:EN-GB;mso-fareast-language:EN-US;mso-bidi-language:AR-SA&quot;&gt;Scalability&lt;/span&gt;" style="shadow=0;dashed=0;html=1;strokeColor=none;fillColor=#EF8F21;labelPosition=center;verticalLabelPosition=bottom;verticalAlign=top;align=center;outlineConnect=0;shape=mxgraph.veeam.enterprise_scalability_enhancements;fontStyle=1" parent="1" vertex="1">
          <mxGeometry x="160" y="62.599999999999994" width="60" height="44.8" as="geometry" />
        </mxCell>
        <mxCell id="rRn81XEs1VAwMGL5g57i-5" value="&#xa;&lt;span lang=&quot;EN-GB&quot; style=&quot;font-size:11.0pt;line-height:&#xa;107%;font-family:&amp;quot;Calibri&amp;quot;,sans-serif;mso-ascii-theme-font:minor-latin;&#xa;mso-fareast-font-family:Calibri;mso-fareast-theme-font:minor-latin;mso-hansi-theme-font:&#xa;minor-latin;mso-bidi-font-family:&amp;quot;Times New Roman&amp;quot;;mso-bidi-theme-font:minor-bidi;&#xa;mso-ansi-language:EN-GB;mso-fareast-language:EN-US;mso-bidi-language:AR-SA&quot;&gt;Maintainability&lt;/span&gt;&#xa;&#xa;&#xa;&#xa;" style="sketch=0;aspect=fixed;pointerEvents=1;shadow=0;dashed=0;html=1;strokeColor=none;labelPosition=center;verticalLabelPosition=bottom;verticalAlign=middle;align=center;fillColor=#00188D;shape=mxgraph.mscae.enterprise.maintenance;fontStyle=1" parent="1" vertex="1">
          <mxGeometry x="260" y="62.6" width="39" height="50" as="geometry" />
        </mxCell>
        <mxCell id="rRn81XEs1VAwMGL5g57i-6" value="&lt;p class=&quot;MsoListParagraph&quot; style=&quot;margin-top:0cm;margin-right:0cm;margin-bottom:&lt;br/&gt;0cm;margin-left:74.4pt;mso-add-space:auto;text-align:justify;text-indent:-18.0pt;&lt;br/&gt;line-height:normal;mso-list:l0 level1 lfo1&quot;&gt;&lt;span lang=&quot;EN-GB&quot;&gt;Performance and reliability&lt;/span&gt;&lt;/p&gt;" style="sketch=0;aspect=fixed;pointerEvents=1;shadow=0;dashed=0;html=1;strokeColor=none;labelPosition=center;verticalLabelPosition=bottom;verticalAlign=middle;align=center;fillColor=#00188D;shape=mxgraph.mscae.enterprise.performance_monitor;fontStyle=1" parent="1" vertex="1">
          <mxGeometry x="350" y="62.5" width="50" height="36" as="geometry" />
        </mxCell>
        <mxCell id="rRn81XEs1VAwMGL5g57i-7" value="&lt;p class=&quot;MsoListParagraph&quot; style=&quot;margin-top:0cm;margin-right:0cm;margin-bottom:&lt;br/&gt;0cm;margin-left:74.4pt;mso-add-space:auto;text-align:justify;text-indent:-18.0pt;&lt;br/&gt;line-height:normal;mso-list:l0 level1 lfo1&quot;&gt;&lt;span lang=&quot;EN-GB&quot;&gt;Compliance and adherence to&lt;br&gt;best practices&lt;/span&gt;&lt;/p&gt;" style="sketch=0;outlineConnect=0;fontColor=#232F3E;gradientColor=none;fillColor=#E7157B;strokeColor=none;dashed=0;verticalLabelPosition=bottom;verticalAlign=top;align=center;html=1;fontSize=12;fontStyle=1;aspect=fixed;pointerEvents=1;shape=mxgraph.aws4.systems_manager_compliance;" parent="1" vertex="1">
          <mxGeometry x="390" y="148.25" width="67" height="78" as="geometry" />
        </mxCell>
        <mxCell id="rRn81XEs1VAwMGL5g57i-9" value="Compliance and adherence to&#xa;best practices" style="shape=image;imageAspect=0;aspect=fixed;verticalLabelPosition=bottom;verticalAlign=top;image=data:image/png,iVBORw0KGgoAAAANSUhEUgAAAPIAAADRCAMAAADBjh8OAAABaFBMVEX///8vPnnvTWJzolIvvM75sR8oOHYqOncWK3AtPHgaLnEAtsoiNHQeMXP4qgAlNnUAH2rO0NoOJ25nb5b5rgBmmz8JJG1snkhrnUbp6u7uRFvuNlDuP1fy9u/a3OMLJW1qcpiqrcCWm7R9g6N1fJ5IU4Tg4ee+wc8AHGpjx9b09fiIjqrLzdhOWIfn7uOi2+Ta8PM6R321uMj86er0kpzQ3sjw+fp7ztujp7yMsXRfZ5AAAGBATID979z6y4H5zdH5uET7zoj1pa3C1Ld4pVmzyqW34+qcu4k6usajwJHM6u9/qWORtHqU1uFpplH969IAEGbygo3716Hxann6wWP4xcn837f3tbv5vlr87O31oKj6uBXvUGJep3hSs6Z5oEFhrYpWkiO80bC4gF2oiVqWlFiEnFXgX2HRbF9aokFstq3Dd16ofUzetFPEtG6ut4mLuaXziZTxc4H3oBbxcFb0j0P2oTX2o417uMa0AAAUIUlEQVR4nO2d+WPaTHrHhR10RTJIgDA+xGkgHMkLjhNC7MS5m/uOk9Tb491uu233Snbb/vt9ZiRAc0hAPAJ7w/cHv35BHB8/98xAJGmllVZaaaWVVlpppZVWWunCaffWst/BwrWbW7+67PewYAFy7sGy38RiBcjruRfLfhcLFUJez/9czo2QwdAProEeP3727Jcby35HMWr34MHTFw/XPW3+5vJEV26+fPzLst+eaB08epHPbebz6xM9/IdLAQH4pZt/N9xXHz0H2nVG//xPlyhh7Avv6AdPNnm4HvNvaGYP+9oFNvbBE655x8qTzj3BvnTtQtp691E+kjfEuUfUV54tG2BeHbzITeXFzP8SwoxMvWyIeXTwPDcLL3bu53znxmH98qL498HDzVmBI50bUd+8CNBzAke4tgf9ctlA03T11swu7SkfYWMf+nzH9NN5gcMjOcB86fxm74PpVYnUFKeeQF85nyG9O69PRyYuGvrxsvE4OpitEE8U1nuFGXrZgIyezGtiND7OgQw6XxF9dX0mE+fz4wKGFwle3rxyBc2Ns7Gfq3r1YLqJ85u53K1HBwebvlPvTh5949m1m5dmwT5Hzj21NOU3N588wOtdeO1rPfeEeY4bz17Ogn1O5spb0e1WPrf+aLy8h5HDlnVvPL4yjfryeQjo3YeRYbyZfxRczgTk/MOo9U2gjmZefi92NXINIHfrgLx8N8dxalI3XkaaeulJ7GpEGOdzTxh77v7rLHsVjy9FQF++GQPH7Iogzuee7rIP2J1x0T4KeqmJO4I494QDPI8ioJfIHE68+VzAFsy188ccSpzfFLO5eCM0ey8pnnfDcvXUnDy7HofaeSl5O9SpD6Y+tFWo1916vdCa/iphhl5GfX7ON/Lm86i01bLK7WGv6BRtVVVt23H0bq3SqEe9zuMw5oX3YU/4xLlHoY9oNdq9tGoaipaYSFNkQ7eLmYEb+rhfwnx7wSslv/JTVy7MqQuDblo3grCEFNPWq52wFwtz7pjY+ApJ1vmQ0tQfpk0lDHdk75RqtkNc/CWfeaGliuvV+efca1sVXZen8PoynCHf1PwSvcgUdouHzCcuVNPh/sxKVnsN3tPwk9jlhY3Pv/IG5DzvEFurnTZm58VS1EOepZ/xfTtuVF+7vEDmEpfteYExdHFYYJ+Lz7ygLuz5jMT1Q30Olyag0xX26bjMi6nOPLfmxXElPS1JR0jvscmbH88LIOa69TpzWWFP/3FgkJYuM8/JzdsLcO0XHOAc02R27BnrUrjUDPPaNznM8WftA46R2Z6rkv7BKA7K6DFZ7ArHzLE3JBwbb/5KX1RTzw6cQPWK6bx5GSzmHboHbO7KMwdvh6YQYhTQdIn+hRfO8SJz2q48fU33R4pxCHOT7sU4KSzevvMRi5yjRwmBxCCGmRPOl+NE5rj1U+qSoVBiYKZ8+8ZizcwxMl2RS6LieCQtTTUlnI4kRjNz3JqqT+2zNSBcZpNaIuN4dmxmZtM1na37jnBiGCgPyRfhZe24kB+yRibbrno6BmLoSWrk+7i5sNrMNl55anEvIaDn4qnYJ16Gk8FiasHY7nqTvKAqOFmPpTlk68kW53g6bXaEojrNThyB7Enuku+FNXMsuxe/MvmaMnIqJrdGUslRkmPmOJCZ5JUnjdwWXZGD0opkpWKRY1geYZeuc8T9hXiy9UgpMmu/ZDw7hqUCpvOiWs3hmdcEopUmBkk2acfg2Yxfk/OEFV/u8qQMibfDTBfiPZv1a3JNs3uGtb3ZVLSCr8eudwr37Ae0X5PbyFYxbuKETJqZCWbhnn0rOnllYo5kJIcYqZgEJrwbof06T5yOiDlde0pVgy/JDBeix6mr9BBF+nU7rlaTUJqozYxnC+6zmRJF+vWP7sTMJ5NowVjPFovMjBREvu6IWcSdJm0v+KJMzhYczLRfk81mbQHJC4kcqBhkoUMzU5XJPqS4EL8Gzx4EX5XpRoRW5gPaykQoL8ivoQMjZkh2nBKJzGQvYs2rnVoQMpmz2TIlEpk+5UWuAPW8ZlNJGd7ILBuGF9yKLOOfcL/sSUto+DYZ3ZZA/+/d7d+AHuuP3fg+72IoyUYK360TC/mx5i96piCqcgv3IXJ62K5Ue8DkDCuVoYNgStWqDvNAdSj3qp66yl61moKuopoxEnKteqjBRUMFZsMq6tKVYqnSPkRxAlfsaVqiWu3BrXat0h4iVzLawXfFVCmRkwWTvYIrmx20dm10cTZtmFoC94X1hJZAG4dVAyxTVkf98UCFuTedaErIN+yCVJLVulQ2E04LhUdqiB23AQ17GtUBLYHmFWUP39rV6GCmVzpF9l/jZa9XvOw1gNZLgZLZKlcatZTakloVyKwFByO3bL0vlfW9TqMutRqNqomRAQjGTUDOyHDRCFk5hD9VG/qNhhpA1uy6VKiUXRv5khN8YSZ/CVwAG7Wbr37rMxNHQ0oQb7YrFVTd1GWjIkmaiaxaTQFNQRo0AdnU9OZAct/oKXmEDLhpClnvSIWm4cAzHCoBK6vwa1P3qoLtjRYvr2DRnn0J3yoE3K9Rr36782+YmZwp0Oq1PFrSBYIO2ANoGjr8DrGHrGzibtGFtz1GbkuF23USGUw4gCsBsZIKWhlCZtDzdn5G+YuBDbi3kOOs3rD86ndba1v/zibsprdk4S0SFAtSH71tS7JUoClZUr/MRS62pJpLIBsp7+8GlahsBmO5i2K5jB171IxwVu/Fpm2/LK+BTpGZ88EPEhRsL614I7ONzIsdHVu5BjE+4CLLFaneIZFVbySDOytGwMoJWW0X/GltPECGHtMWlMKeIuRX/4GQ137/iqpRFoqyIuScpqzJGnheq6nJBnrbQFNtNiBqecg98H0UyxDADUfDhPDnspoJI4PWDsEJKjpasYc/pJEyb7teYVDGx4TYjSkvmsUQ407k1X9vYeQtCGcCGRkVz3WN4WFpLwXvsiH3IFebKK7BUeESLjLeXMvIqNSW1D4aQNGvAxvcuO6goG3tKa5UL4Iz13pwI4qXhDLZheQjCyJGyCiQPUE4bwaHCvxWEkVvs79i6H63MJQxckofjJHrY2Soyz0NLdNCtre98Qj5reMlpxa0c0pv9DSa7v3WQ12Zpo1flxfO4vovmJYfro11+oqYo8reLoVTarhuBxD0bsO1ygloloxBJyNrRqOBmvBUu4ML+LADbqF3Oj1IAJ0O6i/0geU2hjgjF2sd16qoCE7u9V23vwcP0Spw48BvSO3JC7PhLLAXuTUKZE+//88g8sDfmJF1VdXR+1LgFxM3ygY6e67pOh47Ujq+UNERHP4Bv2LLmf4D8UWq6p/fRjePnmb0G85tYzGH/f7rtTjkUSD7rv2HIHJlIeteIwWRmXDOikN+/rsg8drazj6DrKspKCYqMl4KDIVNrSIjG/Bfz0aaodoq8m0Ve64Jt6pY6NHoJgU/Xse3KQnvyUxVMbyr8INI5HuEmS//cUMc8guSGEQjmw2ramYsq6/DtGNZbbPbcV2IUNOoWC5EoqIB0MCtW21HHlouhLBZtso91wK5qtqxrK6mHVpWR9Ub6DYrU7QsGC/Mvtut4BssF3/aiED+8KcA8+U/ZwUiv6eJt95O7sTpy4YyqqJcreEd/4bt18+a422rtGRN88Z719HxnwkqecWvOE34HVICas+ltJ/Aq2/QDwP+bziakXGrUySQN/4SCORsUhzydcbIazsnFHJBqtgVCXoo8xB+YuTbaRgT3nSk8m1AazctqdVtosrb7ECFlkuSZEBr1gUpJjzEte16y0Me7HW7PTRftopo2NrLQFUeDDPe8kPwjX1OZidfx5JMJjeOBBHf3WaI19a2x+GMWxGEXBxIDanTRD8tB5AdNCje7kh9+01dqkCdrZmo8rbeoFkDhg3LAWTTcSBIpUIdWhF4oCRDk95+4+B+rCMN3sBIbShN+FN6OX1Urj0dJ5PH40DOikP+ssMhDoQzbjgRstNHgxO0hlXwXmTlhAvzYkfqZKA1S7XxQijqkRMm8lvkEIDsuvWG2pXqfanWhgdKhxAXBdctoG4FZpV0HXUruAPHCZvciwPDZr1whkBGVj7jx8RHYgLZD+fv/v31EXK6IbVd6VCyalIh7cfy0PG6sp5ewSNXqgRURRivwFop2VuKLzhDqV6Vyg0JLNtNe7GMkIuuNLBIZHJfCmFm/3LZC2SELIaYE8hUOKd9ZIjR6kACU5c8ZOjBeim1I1kwBzWcKh6sUYoqQi9daIN3oN0HmBnkVE2yTMkt1G+38LpBRTVklJoTXeTcBLJBfLRmA3HicMbEyawQ4o+8QCbDOTVChlkRrU1BZmo1kWOrJlRXiOUmxLQOw3C5aTYLCFVDKO0UQpZVXTeB/zZaBwBvrzWRv+i6jCaPIkQ+iawHD70deaDHXiAjiSDe395BYk0M2t72yk5G8ZEh7t6gU40QbwgZH6VAyDqUpZoN40WjUsdLCTY692HgPaYG6LACWQ9Y9sDCbUB24TZUpHoySlYEMvHRg9e+bf/0Z5/4swhkT0wG2wnei3oRVJfBRhkYqAY6mFodI1uQ0u06/HDwvmErY3juCVlvtK3WLUNVq0ktR0V/OO/v2L+NZie97CGPt3OJTuSdT5od/feOOGSJ9u7tL4E7UZWSMzAqZ0o9Dca+RKJU0nqlkldVhqWupnRL4Ap6otrOFHFDAffuKRDapQyolOiia+CBcPGePMS3dVOlEoyKWqnUw89+iKuyQhzaveOjjpR9JxD5lLby3cCdBWROtLmgoLlptMfg7zPAjeMdCU02RodoZP8GLO8azb/Yu00htivwBUzCPk5SyJ8EIn+n0vbWSfBeeUEbj1T28hJ2EFlU84X0lUZ+G7y3urBtOGKD+Yjya1Fl2dNHOn9tBe9tiP90AV9ku/mJRhZSo0bap5G3gxNzaxHngZDIRoTJXh9EIjMpe4cI5mHsR/s82cQ5TtrIQhM222iTwdxfjGcHljdBR0z2ErdAgETnL7IZkeI+s+qJ9Ot3sWYvmJmZ/itYmRd0JChNHAiiq3LyWCwyE8xb14P3uvGfWqWPJ+8yfn1PMDIzNZOevbeABKYSn35k/FpwKEvSfSaYCc9uxH8OiizKrF8LDmVOZSZzdmyfCptIJU4DMfk6KbYqIzGLI8Q0Fb+ZKSPTfYjYmcITsyC0dZ+4vxdzNNvkZ7cZI4ta6guIKVNknx3350moz8MxyUvkishYjGfvfCTuz8Q6T1Ef3KaB4/BrTgO2dkrc33JizGAmcayPM0QJz9dI+8xaJ2XmcnwZTFPI98IaWXy+RmLX8EkzS93Y2s4m8RkpnpFF9yGemHUCaoSUWnZMrq2Tbs0aWezqQEDscjaZtKVOPGsF9KeX2XQteFSeiGk617a+klfE8IUT6LAJ9ZUTTE0WtDPDUYvdrCEWhCTxX6SClKa+HOkDa2TRQ9REnC2599Qlh8JTWJr6ypzXrJFj6LxG+sKamcpgUksR3HgWB9SbYFOX0I0ZWhwzk9OFJBUMocw2/cWFzDwRq5G5ZmZcWyizTZUn6RMnd8VpZF7XubZDZW2poAmLZ4e28S5r43h6zYA4B0e271LXtA7F5G2tyXxLI7MWEmNNHumEw7zzhb4qI6Ld1hzmm2Y5gRxb4zURve+KdMpcVTl7H2YkmC9ofMcGcnIjjqmRFDtQQRNGpzD0Ocizjc+aXWKek1ORk9k4lgZo8Y4IUWt/SK2heoYhQ6a+/AmJXeGLu0CNxTsVtXOdva5v/6ihNXvI/mMHXOLYc5cn7gFHplSBWjXnR0q0ZqY4XwvOK0/iN2XCxD39xmOW3L35R2iDKcZIzJGBBbo1Ei9rc31bkhqH6jyNiWak27x/wCOEOP5sPRIvawMzm8OQOl1n1m+7V3S1wv0XS3i5OrYFL75OuMycWoVVb6v69EymmE6XTdNYnMYaKz5Ajr5xD7NunTJ9mK9GrahGjBuabDqHA8433GPd4xMLO3A+o97zD/Ay/fZEnfZhWjWZM2KaYui2XiqH8UrSZ24cx7WoGaGQM8vb3CTmq2UNqnu2o6LTuaap66pqpxOZSj/q3905SoYQL6YiB8VPYSigw5x7pFbdajT65X6/0XHDbeuL11bj1BXvkMwXtyPBhj6Z/uAZdXTMN/FiWmtWoafTd97vT3/0LAozcTJ7LOYF5ha/VE2N6Fn1OiSKl0gcxbxFr3zOraPPYSZeJnEU89rO2sfpj8fildejD6HAyyWOZAbomSx9h829ABzm00snjvyEDfrQyddpFWv3eIPeXfl0HAG8fOKIWuXF9Pb3SP+GeYHcUDq6l43gXfAoEab9rbAPj/mm3v4WSo265wDy0btIA4MYl1iSQvrtial3tr+fcEr1Lm40fOTdT3eSU3gXOiBP0bdI5/axd75//Uhwjz7ZdU96/Q7hTuNNZoV+XuSMikxiQezt0+/X7598vAuajIRAOxU3ubQmM0z7p1Oce8INQh8f/OsslIRTL350mqLrMxl6pL/945zA2eQ5cuqR7q7Naui1tf+Zl3hjGbPiDJrV0Kf/OydxNrnwFZBZtf8+5EP8pFPPaeHs+YvioE52pnr3vE698WFh6/M/qK/bkdDzOvXG8bn16Yla16Ogk3MRXwhgpC9R0HNY+cIAY93fCk1kM8ZyduPDRQJG+vg+zNSzZOxs9t55T1o8fbl/GpK/pzh3Nvvh3ExMc2v/6xrX1uHOnb3QvJ72T75vs8bmOnc2u5G8c9F5fd29/x1mJ2L1hKrPQLtxfOfTORwdzqD9u/e/vd/ZxuhYY+cG236+9+mipeeZ9WX/7seT+9evf3v79u3/ebsRS9lQW5o+B9a+fhbhfbafCxkv+f1kyMi5fzpk6d5Plb48/X0V45VWWmmllVZaaaWVVlpppZUuuv4f58p6PlVRRqEAAAAASUVORK5CYII=;fontStyle=1" parent="1" vertex="1">
          <mxGeometry x="230" y="151" width="126.32" height="109.09" as="geometry" />
        </mxCell>
        <mxCell id="rRn81XEs1VAwMGL5g57i-10" value="Modifiability /&#xa;Enhancements" style="shape=image;imageAspect=0;aspect=fixed;verticalLabelPosition=bottom;verticalAlign=top;image=data:image/jpeg,/9j/4AAQSkZJRgABAQAAAQABAAD/2wCEAAkGBxISEhUPEBAVFhUVFRcXFRUVFxcVFhUVGBcXGBUYFRgYHSggGBolHRcXITEhJSkrLi4uGB8zODMtNygtLisBCgoKDg0OGxAQGi0fHR8tMi0vLS0tLS8tLS0rLS0rKy0vLS0tLS0tLS0tKystLS0tLSstLS0rLS0tKy0tKy0tLf/AABEIALoBDwMBIgACEQEDEQH/xAAcAAABBAMBAAAAAAAAAAAAAAAAAQUGBwMECAL/xABOEAABAwIDBAYECAoIBQUAAAABAAIDBBEFEiEGMUFRBxNSYXGRIjKBoRRCU3KSsbLBFRc0c4Kz0eHw8SMkJUNiY3SiM2SDxNIWNVSjw//EABoBAQEAAwEBAAAAAAAAAAAAAAABAgQFAwb/xAAuEQACAgIBAQYFAwUAAAAAAAAAAQIRAwQhMQUSEyJBUTJxgaHBkbHwBkJh0eH/2gAMAwEAAhEDEQA/AKUSpEqpiCEIVAJUJEICEIQAhCEKCEIQgIQhCghCVCCJUiVACRKhAIhKkUAIQhCghCRAKkVj4P0NV9TTRVUc1MBMxsjWPdICGOALblrCL2N7LLJ0IYoNzqU+Er/vjCCitEJ62r2UqsOkEVXGGl4uxzSHMeBa+UjiCRcGx3cwmRAKkSoQCIQhAKhIlQAhCFQCVIhACEIQAhCFACEIVAIQhCCpEIQoqEiEIKkSoUAiEJUAiFmZSyOY6RsbyxujnhpLWn/E4Cw9qxIURCVAQDthu0NfGGQ01ZVNF7MjilkAuTo1rGm2pO4Dir82fnmwjD3V+N1sskrgLQufnyE6shjF7PlPE7hY8AXFh6O9jYcKpzjOK2ZI1uZjHC5hB0GnGZ17AcL233tWO3+2c2KVHWvu2JlxDFfRjTxPN50ufZuChS1+liNmJ4JDisLfSjyTWHpFrH2ZOy47LrXP+WqAVo9HXSBS02HVOHV4e5jhJ1TWtzZmyts+K/xfSu657Z10VXBUMEIQhAQhCAEqAhUAhCEAIQhACEIUAIQhACEIQAhCEAIQhACEIQAhCEAqcdnsEmraiOkp23fIbX4Mb8Z7uTWjX3bym4C+gV/bH4VDs9hr8SrWj4VK0DJf0gTrFTtPAne4jdY7w0IEh0xHaLDtnoabDMjpA4HrQ2xeGOvnmkB9Yudpl5A29UAx3aHowosSi+H4HNG0u16oG0LjvIAtmhfr6pFt2g3qnMaxaWrnkqqh2aSV2Zx4DgGtHBoAAA5ALNs7tDU0MvX0kzo3aZgNWvA+K9p0cPq4WULZr4thc9LKYKmJ0Ujd7Xi2nMHc5veLhW70W7BRUsX4bxWzGxjrIWSbo2jUTSDi/dlbw0O8izlgnSdheIMY3F4I4poSHtc9pkiLgQbxOALmm41adO9ygXSn0hPxKXqYCW0kbvQGoMzh/ePHLstO7edToBpdJO3UuKT6Espoyepi93WSc3n/AGg2HEmHIQ1tzYbzuCpOoJFlmpns9djm33ZgR9axqJ2WUXF1JUxEJUipAQhCAVCEKgEIQgBCEIAQhCAELYw+hknkZBBGXySODWMbvJP1DmToACVd8nQbT/BBG2pcK3KHF5N4i7izJa4jvpm38dfVUFFEIThj2Cz0czqaqjMcjdbHc5vBzDuc08wtBAIhC3cFwmarmZTU8ZfI82aB7y48Ggak8EBpIV7N6FcPayOGeve2qc0k2fEGvOl+ric3MWg8b3115BjxboJrGa01VDMOTw6F3da2YHzCCipUKSYrsDidNrNQTW7UYEzfaYi63tUbOhsd43g7x4oAQhSbo+2RkxOrbTi7Ym+nPIPiR33AnTO7cPabWBQE06EtimyO/C9WAIISTCHaNdIz1pTfTIyxse0P8KjHSjtqcTqrxkimiu2Bp0zdqVw5u79wA43U06aNr2QxtwKhsxjGtE+TQNYAMkAPhYu9g4uCphQrBCEoabXsbDebaDxKpBEIQgBPOyMrW1LS5mf0XWbcj0sp4jcd6Zk/bGwE1AmGnU+mD/i3N9+vsXnmaUHZu9mxlLaxqKt2v+/YzYzLeN+YcreNx911G1LsXp+sjkA9b1x3kan3EqIrx1Gu4dH+oYyWym+jX5YIQhbRwQQhCAVIhCEBCEIUEIQgBBKFbvQzsO0/2zXhrYIgXwB+gJbq6Z99AxtjbmRfgLgPuwGzkOB0T8YxIWncz0WEelG13qxMB/vXm1+W7QBxNV4nt1Wy15xRspjl3MDTdrIgbiKx0czmCNSSeK3+lHbl2J1H9GSKWK4hYdMx4yuHaPAHcO8m8KQpf+C7R4ftFAKHEGNiqwDkscpLravpnnwuYzfd8YC6qnbrYapwuQNm9OFxtHO0EMfxyuGuR9vik8DYmyjEby0hzSQQQQQbEEaggjce9XNsL0pRVEf4NxwMex4yid4GRw4NqOAPKQd17EZiHUqLCsNlqZmU1PGXySGzWjjzJ5ADUk6AAlXxS09HsvQ9bJlmrZhbT1pHDXIziyFpIu7jpxLQtmamwzZqCWqjBkmnJ6lrnB0jm6FsbHW9GIby7U7r5jlCoXaLHZ66d9VVPzSO5aNY0eqyMfFaL7vEm5JKg6HnaDGp62d9VUvzyPP6LW8GMHxWjgPvJW1hO1lfS2+D1s7ANzc5cz6Drt9yZUKkLPwjpwxGOwnjhnHElpief0mHKPoqRt6V8HrQG4lhtj2nRx1DW+DrB49jVRqEFl5jZDZivt8ErBC9xNmsmyOJ326qoBPsACdcZmg2ZwzqqU56idzgx7gMz3kayPHYY2wA525krndenvJtck2Fhck2A3AX3DuULYssjnOL3uLnOJc5ziS5zibkuJ1JJ1uvCEKkArqKWOBkMcUDGiDI3I0AZSwgW043HPfdcwQQue5sbBdz3BrQN5c42aPaSF1DDQdRTwU5OYwxRxl3aLGhpPuXzH9StdzHz6vj9De0K7/KOaMaYxtRO2IWYJpAwcmh5DQO6y0k6bT4W6lqpqd3xXktPaY70mHyIv33TWvo8MlLHFp2mlyac1UmgU42LpD8GlmG7MMx7twHndQZy6WwzZukigEMcAax7GF7c8tnmwdd3pa6m68tlru0zo9lZ44M3iSV0vyvxZTok9JRCoZlc5vJxHkV0gNlKHf8EZ5yf+Sp7pYw6GCtDII2sa6BjyG3sXF8gJ1J10HkvLVdSo2+2N2GzCPdTTT9f8kMQhC3jgghCEAIQhACEIQAhCe9j9mZsRqW0sGl9ZJCLtijHrPdz5AcSQEA/dFewpxOoLpQRSwkGV2o6x28RNPM7yRuHIkKQ9M+3YkP4IoiBBFZszmaNe5m6Jtv7tlhfmRbcNX7pH2mhwejZguGnLKY7PeD6UTHes9zh/fP1N+F76eiqHChQQhCpAQhCAD+72ckIQgEQlSIBUJEqAf8IooPgz532dJ1mRrCDo3Lcu5b9NeY7001zGggtFri9uSe8AgHwWdzwfSewRm+4tBLzbjcFo80z4lFlcORH1fwF082OtWLUf5fU0sUrzSV+v4NNCELmG6S7onoRNitOCLhhdIfFjSWn6WVdAYmdVVfQvhcbYpMTGYzMmdA0EjJkMbHEkWuXXO+/AKxKjEXPJJaON96+Y7Z08mzkTh6Uv3OjptQ5ZVHTNRASwVAGrmujcfmEOb9p3kq4V29JuHsloZJXNOaCz2EHiXsa644ixPkqSXX7LhPHrRhPrHj78GvuU8ra9RHbl1cwjKz5jfshc17HYVHV1kVNMXBj8+YsIDrNje8WJBG9oG5dDCR5sAQAAN4ubWt3L02n0RdddWb4Ko7ppP9oN/08f25FcMb5CfWFueX96552rxuWsqDLOGBzR1YyAtGVjnW0JJvqeKw1k+9Zc7XdoZ0IQt81AQhCAEJEIBUJEIDZw+iknkZBAwvkkcGsY3eSfqHEngASr7lNPsxhlm5JK2cb/lJQN549THm3aXvwLlpdG+B0+D4eccriDJLEHRgWJZG8AxsjvvkkuL8hYaAOJqHa3aObEKl9XOdXaMYNWxxi+Vje4XOvEknioXoN1dWSTSPmmeXySOLnuO9zjvP7lroQqQEqRCAVCRCAVTiLZmmjpIJ5bvfO3Po4gMB3NsONuagysahoy/DKcvvmu+1/k8xy29/sssMjaXBzO08koRg1Lupyp18mQLEacRyOY03AOhO+xAOvmtZbuMxFszw7nceBAstJZLob+J3BPrwgQhb+A4Z8KqYaUPyddI1me2bLmNr2uL+FwqehKHR9XSQsta7b+JdqfrUexBt2X5H+aubE9g3TRQwfCmtELS0OEJJcCb+l/S7+HsTQeiK4LXV+h5Qa++VdPP2lrTx9xS9K6P6ehp4NLNCXea6u/QptC2MSpuqmlhvfq5Hsva18ri29uG5axK5ZuFw9EklsOmH/Oe7qW/sUyibp5efFM2xuznwWi6psheZjHM8kZQxxjF2ixNxqNTb3qQR0ru2D+j3acVz8vM20b+PiCTGHbll8Oqh/lX8nNP3KhFb/SbjclPC6myMcJwWF/pNLRZpNhc3KqBbGsmomvsPzEm6Nj/aVP4yfqZFfQ792i542NqzFXU8gAJ6zKATlHpgs32NvW5LoNjSDY28e8LDYXmTM8HwsyM4cB/Jc0YmLTSj/Nf9srpW9uG72qhtv8DFJU2bIXiTO83FrHO64FuCa7ptDYXCZGkIQtw1QQkQgBCEIBUiEIDbnxOd8bIJJ5HRR/8ADjc9xYz5jSbN9i1EIQAhCEBtYZQSVEsdPC275HBrR3nmeAG8nkFYWI9Eb44iWVbXygXyZMrHHstdmuPEjyUI2XxN9LVwVMTc72SCzOL83oloPAkOIB5roPaIyMbJIwZ3NY5wbe2ZwBIbfhc6L5/tjd2NfLjjiaSfy5f19Ont8ze0sOPK33zmhwsbEWI0IO8HvSL3LIXOLzvcS4+JNyvC75osyQRF7msG9zg0eJNh9at/aBrY42RM0axoa0dzQAFWux2HuqK2CJhaDnz3de2WIGV24HXKwgd9lbe0WFPqHDqzG30Wg3Lt4a1pOjeNrryyzilTZx+0tTPsZcbhFuMb+/8APuVZtVFfJL+ifrH3qPK0sS2Emljy9dCCNfjnUcPUCq0K4pqS4OhrYsmPEo5FQJ92Eky4lRH/AJmIfSeG/emJOmy1QI62llIJDKiFxA3m0jTpdej6Gwup08F6CXqnDs+Z/YvJa625v0j/AOK5nB0Dl3aP8rqf9RN+scm125STb/CDTVkgc8O60vm0BGXPLIMuu+2Xf3qOELpQacU0aElTo6aw4/0MV+EMd/oN1WyHW3api2WxdtTSwzsaWtyZCHWGsdmO3E6XB9ydevtqB+3+a57aTpm+uUVn00kXgt2na/oNVYK1emKicY4p7tyh1gBck5g0crD3qq1t678hqZ/jN3AvymC3y8X6xq6TJvccVzds+wmqp2jeZ4gL7rmRq6Oc53Y94XnstJo9ddcMV2up3jf3hU70wD+sx/Mf+sKt57jochvx1bb61TvS3KTVRsItaIu39qR+nsyrDA7nwZ515CDISpFvGkCEIQAhCEAISoQCKwsC6Iq2ppm1ZkhiEjQ6Jkhdmc06guytIYCLEbzrqAq9supNisVfWYZSVBFnFnVu5ExOMRcO45L+1YydKzKKtnMuJ4fJTyvp5m5ZI3Frh39x4gixB4ghaqfNtcRNRX1M7m5SZS3LxAjAjbfvswX70yqrlGL6km6M8O6/EqdpF2scZXdwiBe2/i4NHtV+V7tVV3QPQ5qiomc02EbWB/xQXOzOF91/RarQqonE6NK+M7fjkybSpNqKr8v91+h1uz0krZzptdhvwesmhAs0PLmfMf6TbeF7exM6tPpV2ZqJHCsjh9COJ3WuzMaQGkuGhN3aF24cFVq+p0crya8JS61z8zQ2YKGVpdCT9GZ/tKDwmHnTyhXO2ludXHuBOn8lSXR/UNjxGnc82Bc5u4nV8b2NGnNzgPar3bTOvZzdfcFhsrzL5Hrrvys1Xjh4hc3t3Lps07tPR8iB965pngdG50bvWY4tdx1aSD7wstX1Mdn0Ma3MH/KIfz0f22rTTxsjhctTVxRwtDnNe2R1yGgMY4FxJJ4DhvW23SNVK2dRybz4rwF5dM251WKWqY0FxdoASdHGwGp0AXMtHQKJ6Yvy5v5r/wDWVQRSvpIxiGqq+tp352BmXNZzQT1kjtMwBtZw4KKroYlUFZpZHcmXV0YC+HRA8Hy2+mf2qXxxbifLkoX0Q1TZKJ0Lbl8MhLxb1RJrGQTob5X+Xgp04HiwjTXcb+9c/Kn32buN+RED6XWWoxb5QfW39ypxXJ0sPBpCzc5uV+W25pka37j71TS29X4Pqa2x8Q57M/llL/qYf1jV0q5gXNWzEbnVlM1ouTURWA7ntPHwXR/wkG+/f3ftXlttJo9NbozL1d1SPTC21c38wP1squsVA71SXS7OHVwsCMsLRrxu97hbzWOrXfLsfCQhCVIugaYIQhACVSkbA1XNnmUv/oGq5s815+LD3MvDl7EVRdSwdH9V2meZS/i+qu0z3p4sPcvhy9iMUVK6aRkMfryPaxnznuDW+8rrqmw9lNBFSxCzIo2sb4NFrnvO8+Ko7o92GmjxKlllLCxkmYi/FrHObb9INV9YidUck1wWMWnyc39MeDinxB0jG2ZUNEu7TrLlstu8kZj89QZXv0ubNvrBTmIjNGZAb9lwby72hVv+L2p7bPepHJFKmxLG2+ETboMd/Vqkf5zPez9ysclQjorwSSjhqGSkHPJGRbua4FTTrfBc3YaeRtG5iTUEmMm3I/qNQP8AJl/VvXOK6Q2ptJTSRBzbva5g14ua4D61UQ6Oqj5RnkVsak4xTtnlsRbaoj2zP5ZS/wCph/WNXTEm8qlcD2BnjqYJXSMsyaJ53jRr2k+4K5ZJmX1e32kBXYmpNUMEWk7PYC5kxz8pn/PS/bculvhDO236Q/aqbxLo/mkmlkErQHyPcAQbgOcSPrU15qLdlzxbSor9Tjoc/wDcf+hL9TUfi3m+Wb5FSPYHZGSjqxO+RpHVvbbdq4aL3yZYOD5PHHjkpLgsxYqz/hv+Y77JWN1Ywb3sGttXtGvJYamuiLHN66O5a4WD2k6gjcCudaN6mczt3JVOW9G83yzfIo/FvL8s3yK6njQ9zneFP2H/AKCPVrfGm/7hWlJvUI6MtnXULanPIHdYYSOFsnW33/OCmskze03zC08sk5to28UWo0yuOlo/0T/mRj/7typ66vDbvC3VdoWHQs1eBma0h4cMxG7cR7VCfxbyfLj6JXrr5Ixi036/6PPPCTkqXoMGw77YhS/nmjz0+9Xu3Xd/AVZ4LsI+CohnMwIjlY8i28NcCR5Kxm5tHBp15ArW3JKUk0e2tFxi0zYDdf4/j+SpzpYFq7/os+1Ird608iPHTwUL212QfWVAnD8g6sNALTrZzjf/AHBY6clGbbLsxbjwVJdF1Oz0bv8Alx9FJ+Lh/wAuPorpeND3NLwp+xBboU6/Fw/5cfRSfi5f8uPop40PceFP2LX6gdyDCO5Z8h7KTIeS55umDqh3I6sdyzlh5JMp5KAz4W2zyRvym3uW/d27MSd2l960sOJzn5p+5bp0048e4cgqgYqiQ5Xam2V3t0KYcOIyDTi77RT3VH0XfNd9RTBhU46saje77RWH9/0M/wC0zVuYMux2U3G47xY6JphzlxD3E23ctePeU61U127/AIw+9YGese7VL5C6GKeR4aBwzNv38gnQpoq6j0QSbASNHgP4Kcfhre0PNVEZmyrdc4338B9QTWa5vaCcA69jza0/7QkixPLnFYC29z3rM9aM1aGnKXC/isYvkykuDY6tZKdlns+e37QWgcSHP3hZKOvBkYLjV7ftBelo86ZmnAzEA3BK0quK3fa63Xv1P8lrvdp3/evNGZmZHoPAL0Ik3/hUD0cw00Oo0IQcUHP3hZ2YUO1P6N/Z96zCXvPmmzD67PmHcDvB4p0gZovKT8xmlweJX3aRr7VpZe8LeriGxvcSBZpPl4qP/hRvaHmFnAxY4Ze9OlO+zGju+8qN/hQdoeYT9hkwfE1wN75uPJxCsgjbz+C0cTIu3UDQrbNuaasYnDS0AjUHd7FiupWYj84Jbd4Wq2o5LJ155/x5LIhlI70e1YuvcvQkdzVIPef+LI6xYghZWY90y50daVjC9BSy0ZBUHmV5B8fN37UIBUKeXRtIsQSOVzY+NysAoIRugjHg1o+5bV0l1KLZiFFF8iz6IR8Ci39Szv8ARb+xZQkQhiGHQf8Ax49N3oM/YvYpY/km/RavYSq0WzwKdnybfoheuqb8m3yalKFKFnkwt+Tb5NXkwt+Tb5BZUhCULMPVDsD3JQwdge5ZSEoCULMJib2G+QSdU3sDyC2LJbJQs1upb2B5BIIh2R7ls2XohKFmt1beyPck6odge79i2bIslCzVMLew1IYx2G+f7ltlo5LyAOSULNYRjsjz/cgM7gtghebKULMBZ3BeSzuC2QEhCUWzTLPD3ryYjzW9ZIQlEs0+r70hjPct0oVoWf/Z;fontStyle=1" parent="1" vertex="1">
          <mxGeometry x="74.3" y="151" width="145.7" height="100" as="geometry" />
        </mxCell>
        <mxCell id="26L5T93bEw7jJD-IDhR8-1" value="&lt;span style=&quot;font-size:11.0pt;line-height:&lt;br/&gt;107%;font-family:&amp;quot;Calibri&amp;quot;,sans-serif;mso-ascii-theme-font:minor-latin;&lt;br/&gt;mso-fareast-font-family:Calibri;mso-fareast-theme-font:minor-latin;mso-hansi-theme-font:&lt;br/&gt;minor-latin;mso-bidi-font-family:&amp;quot;Times New Roman&amp;quot;;mso-bidi-theme-font:minor-bidi;&lt;br/&gt;mso-ansi-language:EN-GB;mso-fareast-language:EN-US;mso-bidi-language:AR-SA&quot; lang=&quot;EN-GB&quot;&gt;Security Assesment&lt;/span&gt;" style="rounded=1;whiteSpace=wrap;html=1;verticalAlign=bottom;align=center;fontStyle=1;fontColor=#0000FF;" vertex="1" parent="1">
          <mxGeometry x="585" y="81" width="415" height="289" as="geometry" />
        </mxCell>
        <mxCell id="26L5T93bEw7jJD-IDhR8-2" value="" style="shape=image;imageAspect=0;aspect=fixed;verticalLabelPosition=bottom;verticalAlign=top;image=data:image/png,iVBORw0KGgoAAAANSUhEUgAAAOAAAADgCAMAAAAt85rTAAAA8FBMVEUpMnr////y7hQnMHn79wAjLXgAEm8gKnwYJHT08BEEGHAYJX0kLnsgK3v28g4SIHP39/rb3OZaXmybnFIPH3yUl7ZucWgADm4cJ3Vwc2QAEX94fKScn7sEGX61t8sUIXPMyjbFxtbd2ij//wCmqMEAFW8AFX9SWI8NHX4ACW0LG3Hs7PKqqUwAAIEWI30AAGtIT4jR0t/n5B6IiVyOj1lRVm9dYpQ3P3ZtcZ01PYDFwzu7ukHV0i/KyDeJjK6wr0h5e2KAgV9hZWpCSHNCSHQzO3egoFFVWm6WllVnamhfY2syOne+vECyskRJT3Li3iO7KmpSAAAVEklEQVR4nO1deV/iPBAuJOUsBVyUyikKiOCy4IGiiOiurrru+v2/zZukBz1ytKWwy/vz+csiNHmaaWYymZlIsf85pL/dgXXjk+C245PgtuOT4Lbjk+C245PgtuOTYAQoFFuN3fn18WgKUvlMJqVJ09GkOq81xoP1N75egoVxu3rcLGf6zZSmyTIAEpAQAJBlTUvl+52yNNltFNfZhfURLLarUrnf1GSJByBr+UxnNG+tazDXQ3DQvs53mhrgcrMBsSxP5611dGUNBMe700QActZYav3EpBH5QEZNsDjXMsHJWSPZLB83CpF2KFKCg/a0E56dxfG6FWGfIiQ4vi6nVmRncOxru5GJamQEG2jwomBHAFLl64iURzQEC7VUPpLBW0JOHI+j6FoUBAu7/WbE9AjFzqi1euciIFjrR/PqUSmuPIorE2xozfWw0ykmJitONysSHD/11zR6FsWT+d8jWKiW+ZZmJEjlG3+JYKMfQjHkgo84yByHl9PwBAfHmeD0pOSFEkKm5XJt4wQbnVDSWZ8tkiF+BvqjkIMYluCkE2pyAQq8LYX5IZpPw72J4QiOtZBmWfIcpuvh5l3Qud4YwdpJWN3Qu1PhXhgZxdCkEPZpGILXYWYXApCFcfV3OBmVsE4MLqbBCQ6m4VcNyQcYj8e7oX8PyoG1fmCC436I2VPp1Qm+3qjxOHys6FfDEBT7kzUTbHzjvH6A8T/l5+HHIUEaDWD8TP/77HeOdR8OQ+0pmEsjIMHaCadtML1idC03ncE0RpwA/6XCiy7j2+C7wmlFlgNpxGAE5wlOy+gNO2dNkErlBRrsdKhnf5hzTe+gzmtG7geZTAMRrPKnz9L7XY/9z8szdckP3vZY8okE4WiH+U/yhXIAhkEIVvtcfqCeVofs1ydXercYphcs8UTIXsBTwfxz4n8dHICggJ+U3IOQZ2gCMoeS8XvkqcL6gXpW4TcVgKF/giJ+Uum3qr6zZRSNsPUC8kYIABiHl7xpBsO3lPomOBfxkypY9nocGd3DWh4PYpo3QtlzNa4+i3QkSPhk6JdgrcNsStGRfUX9h/tD49JLFI0w+sINpkgbIeN3SuVAjac/vuaMS2azfX/awifBBlP/gavXHYLLW9Rz9f1Sv3r94WHYRUMHL77KB5A2QsrOo/7Ln3iM4Z5+8fbIZCgDXxrfH8HxN1YzaG55OYIEZAZR9b+Pnj2zTe4Rqh9I+QGkEtUPj4wqPw6N++jzkH6bM87LqI0iIzhgyidG6c+HTcPpWvzSO02W7o9+14l+Qyrx6I+n40rli9MWQCzv67zJJuVngeiLoMS3r3O939DRr/cSRVH34pbyy5VuTrOUb/y02wJxNb3H0ZYY/d1oCE5E6yPQXahLJa4+VCj9At//LDmB+ittaJLZm+WTgrMp5SE4cdKKguCuUEGguf1pZhrSsyv6FA8clOiiByrnppSqLxWRLsRuDOFUKiY45i0gLJSeVVOJc3S9uMcVkyCcivmhqXS6MsGCv32xypk5gkIzi4fkAlojKBRQjFR1VYITXwt45ZJYKUSF8ZcCfPSwQZ7Gs2l65s+zUW6tRrDt4wVEGCIJRVr8HHWNa2gKAHqIGjy8PMBG0S8/MoqmUr6+FxAc+HoBkYR+pLHywypxFRlN7iND+76bxCpRvfAlo5LG99IICI78eZiUPxDeYuWHVSL86e/RU1BCCnUPO4aRSoT8df0SHa4vkU/Qp4AiCYWGFgfdfeFylY06nEn6uOWy70dc55MNXCHlEhyUfTZRurmy5Cl7dReWYG7xbCk/ULm48OkC13gmG5eg0IRZds0mlUpY17wEpvZHk/U7glKCs77nEWxxfWjOrgUi4vM2vm8KOCx4BKPq9vqRZ++Pcgi28/S7/U3aLFdxhznPsAkWMvS7AZ8KeB0AUwZDjWmxsQnOU/R7Zb9wPetrRfaUNYYnrGUFk+CgzGike+jPDF4HKmcPjClaZqkKJsE5Q0Uov+DMp4kROZDBdMNajLEcpSyCzAHMXqiQ9SasG8ikZ24OsLQ9iyBrAKX6QVo9/0sy2j1MszcHGG8hg2AhwZqQJRhX/ZrBEUP5jtpmbg4wJlIGwZpnCgU6sud4qSYbVxsSVaOx4ReVbA4w2i5Th5BB0BMBOk2WCL7eYc/7Q0W/2gxBq228Aw73uvqV52spqhORTrDhXiYt/c4O//X9Ct4J31Auz4y200ufN8133vRP0LvOpfid1fjOKg60AAwrp562aTvgfdrKl0qwSFtGuPzOcXiTDL0uCghQf4w726bugMu0zQoqQbqOyA1tfuc0PKf5r9eFpHKwbFtVF/S2acqeSpDhqACVB1NS0h/fw/vOwgAt8M0xTM+uGHpYo0wzNIItpiemcmvusu9tlh/C1wPj6cKfrFcDyP4IXrOsGFAynyJ3M34twBaG0fY9M4Qh4/Vd0AiyrBjitsTbWnH+ZvxaQCwM0jbH8ap5Y/UoBFuMlbwklW6x//oL8Tvvb2oKNVA/IL7zGeRtDoCUH4LXLGcvdqyrZzs9HJalhoxMDgugQKz8elglcjYHvDJKIchM9cCRPkT5EZUYMjI5JJIPkCg/ohI5MuqZR70Ex8w5tHRrKr/c8P1obxNmmoXenek7Typ3R8zQBODZL/QS3GXOodml8gOV89tNKgow/bCUH6i83DMXpJ4lhZfgE/MVvLKH5WS9gTBrBPiRtbU9ZLftSQPyECywfBXugN7Nqgm/bXuWvR6CbDNmKwA0EUGmM2ZLkBgICPrc8vxn4X4JPQT97yj9m3Bba26CxdBZLf8I3KteN8EG0xDdFiT4BLd9jpGkTpFL8HjL5xg0y7S4BBl7ZluEVI1HkGPHbAtctoyL4GqTqJzK9zN9W7EcOWXBVoZFa5qwfWz7akpQJknQiRGPIHs1z4jwtN+5M6q1xsVx+7pjCLpcrZnYrU7LBhltt22hVpX15ad8XFtiflwWznXs7jR5BNvMd1DxRlm77juypq/CXJf0jGNCG+wmyMi45vEWSbh0bSwM5oJ3hdOdsiMgwUWQqSWUH+98H0XeIfpFMi4ZlyN2MMUME+6ICBxv5Nk5aXEZAoWdB+aMAnYRZHoMsxdpbhChe4O1WKYQjBVkQCEYQ7y9W0PcOLnkAjK3tvoOv4yLIFMN1mfwjeejMAPixi2D1G7KIlhAMMclYxG0fTrOmAQLtk+nnKmm987e6nWa2y6CrN13IEH1nuOjMPrXPun3T45JDwsdYBC8/pZIJMpVqwGd4OgEf2oUU5kC/QYt/NVEqq3fjF3HBfQ4eWBNHkGmhJ7zA111Ki2S4Js6JreayManVXxT0NQ/3dUMgrqsaLqzfa4ZBIlYgm+kixyVhT3QKsv17NT0LoKsxRJ2u/KCscuxZaeNTR5ExUbQ/BQNi52glGmRT1N2gpJMgngH7JUb9kAzXc9O16GLoHvqyulIZiFOGKgbl94ZOmf/tW4Nugnqr0bDRbDZ1mk7CR4zCJrdwckH6m2X3h3nitBJsOC6J1js72G84qyI9McjudhbeGKWgUJ+bgZ46+aI5CSoU3ETLJMpr+YcwUyNLqKK2R19K83ozv6bsztOW81J0P3Qcq9p28688ffRrSc50EZQNgEEBDX0HS2jR5RPZHOS6SN801VOwzPJKDtxW3fMDLU7l5PNGdXFJ+jMJtI3r2gpU0uC2siEDLgEqxOE67YpODrBQWuMYChqiprI9W5d3aFkSmlBCGIXtiMAgJ4yZRG0Wbq1FJegHegbXkVfo5nFjjQw3J1Db6ZUoBFEGH5fpgem4RdqytSS4HEIgo0ExVRrM0y17K+ZLUPtlNKdoAQlpXtvMEyf/aRr15UIkvIKLoKtY6ahplSerQf+StviCiaiGMk9aG7/f6U3GkJECwOC1rxJFjA6wfHxRK9oyMv5zv00u3NG7Q5vBN1qQkfPKmEAfzDy/qxJRs6gWbDhgyAx1RIds3KZMYt2ZD0zlxkMiDA8tbpDNT14asKj6Env63iWUfFcw8x5W6oJAECeSpCu6E0s9aCeIM/x7pFMPr071K1enqKnmmok9ACe4l1dZs6bbqoZbv9+y+iig6CevSEmqEtYgZkVpmAJhbc4M5puHnNNNdpzQ4YfVn5EJcIruox2DGMb/w1OTAZ2gkZSuMvYphA0IluZQ4gkFCu/XP036g4tD4xrbNOWS924njKFVSJkyKhx0/a3fLOfIAOIX2dzudTpdIxFFB5kEUFdxJiJfZUPXflhlUjNA+MulygL3tzekan8kEo8pMuouS1XaLRb+l/LBe+giGBYJ+OOJCQIDFOHPoTK5dFpV+8OUolxiow6Pb9ul4WXYPb0zVJ+Sv32O316c++sDhKA4rIgEiIiaMy3jCHMPu9Zyk+p3L95ZZTrsqBJfs42F4PhlNosIuN4tQeA5nQqjPDthQQNcWDE6ziS22izKNfpxHETiNC31XJt6LXJXATbKZvb0E2wtiRoRLYOQjqhuW5DjuNXCLk8aRQHg2JrVzLsEG23YaE2yRiVjlNtfO2azuQJ/tB478CU/EQOF+fgDOeK1nXfzHSwcWJ1TMubaKaW3U3hD9ydl/GH5gsC8rSv+OwE13X/v998YbrVtgf87TOfhQ/+ZQg2QP/3W9hbH4QAMjEuwf99GMn/PhBo68MshKFczHjYLYEwGE8cTvn3ssx9tO3JDQkSEGu08fj3hFh5FQWKiwNihfGUpdvNhqPb0TsQla0UhzSTpTgP3Tg7tWbNAEMoKlvpIyh9zNeEuTd4Fr5Q9mpILiDDZWJCfnLToSSG8G2Z4b26Ut2tVdB7VyG/zoR3D4dCkOHtMdA946XWrBUktegLN4e/4/EC0ZKzeIoCu11Xqw0XHniPJM2VUUoCIS29jnaUhJLVUTklBV57xuVGkiestkmJ2aeSfkULQfCXXkeTUeXy9AvBC9kYuHkhF8/Pm0gPUXbMtvXUTP3i+QtlIuj4S5CkyWh2AaGKkdbThDHgIWOzKWJkH4y248u2j2ZP3mdLq+1ETVKmnYSVlWbO7fE0fPZRIDMSZK8O3W2/0PKwabUQ/KeZu0oFbKxMgN62o1QAq1A+rZoFvVAA3R61lwrYYJkADEepAFahfNv+uYAga1GY65mp3ipVRNaJZPLQbJtaYlcy9yV9EWSpworVyObrOlklWtUHetuexDMOwRjda678MN91vr5dB3I7Vh79Hb1eT4paPY5BkL4Jk33BxdDJy8Da6l0bSOiBGscsIfX8NOANMOIQpFeN687ScTgDr5jkpmUUSyg8GOJAJ0itPUaxYjgEqatC5QoS5ZdEKtFvCd6ooFyiti8qAKtElVp7LFjRKmqgSvYF6soPn+ACnzYqo8NnqCs/rBIhxQZmFf9jF47zDmH98MY0cXuX8c3KaPfMUn71R5Uio6zaf0yC3iEEVzbll0vyF2YRQ7k8XwZxJqUXD0Fm9UZ28UbvWwjstwWbnWQcO/PAO4D0mmNcggLXxb+FFPNMNF4B1S3KqGcXauaVwOWlnlARVaW8wPNzv80kwSM4DrhhD56iqW8hTHRzg3dmAbcMNTNVi47kud/K2HzUgxYwLYcsQ80s88tA7+YgijWwcnX0GMjxyi7wKyIYawTZ7wU9FSYjkFFkMPHywLztNkOXgg+2HZrch3QzOCC6M/HZZ3bo4ZshCQ44sdNu4MBZZgle/1B+wUCHcnAr3YsP1Ghwj1yyg4R2887n84nshRrkUA5KpbFABH2cSZTUMcTJB3BRMi4DE1WMH1YO0jhhwLgSjqTooD7xoTYav6vg6mGf4BWfLqjevepXD0FVovK60H+5RxwGD3vkYrEvYJgXnVsrPpaoyDn3DCN5Dr21YyHzPBNm4cVfB/azz/T7HIl859SSogEJxtoCXeHxO8fh4Q/WO5R8YJbtc6WB+fGdg7zwBDs/R4NdCza1XX7nNDSjxinozdhCZ08DI/5roe/8m/ikTF+Hu4msboffWaWnTBnfzELOUdhK3XZKnA/feYdtYwcjKD49K5m7M0/OOqAsR5ffe4C0TAAToLtnPSdxid2m6NQs3wRjReH57CUzY0q958lV70aFvFgXZO6ZAyh0vGq0rYiQBI2kHQ4sxzr3sHJcYpZT4DXQ2Wfic92CEGQmZBogGVNxMsVDzlIA9z/Nk9HeDTn7TBVvDsiav0O//RKM7XJtNuxYT6uLfZU+QkpPx1eciQh3KvqVV5WQIsJwdoUzo/kyCvI+j/z2TTA256lDJKE4ZSr7NIOUGAzl5+yA4E7fuLkjF7N7DwM0wiRNGKtErowCb7zIygR5DJVLqOcLK5VnSFkKJL9/2HbZ0/oO/6m3GEXpFurKb/jjA3I2B3wfMxyIIIchklBT+dXf0pTlqtI9dVo7avzN65cAPWj6zpX6/RFzcyAAv0AE2cfRD9+XNmZSeadl2tdf7eXq4R1Ni+cWF5byA90Fy8MT6ED6QARjNVbWon03BNDt0CQ4WO6yX9C1uGx/NKylkqz5nF9CEIw1voVf0IKvprUDX1dY+GtTf/ohHMFYS2jTsFGxXkDhYeVspHwdEB2eYKwYuqpb7hHPM6SOvPcobL/I+DkeeiWCscIoZP3D0j3R4ml8cEtQ37WJE/YxdZERjMWq4ZJHkDGAlrBf8fJYEPXJgkwJtlsHwVjjJISY5naQifnWI8tjNVQUSnMaZPpchWCsOA0upsPTI135YZV4FCJOsexn+RcRQSymQWfTetxSfkll9hxURmVqoNb6CMZa+WBbT+DPznKVAeqLYHHtIDMJpP0iIBgrXAcbROdx7cH4aRnuYcLrIYgGUdtMwVyQCDt8KxJE1neY6TQovSZordDF1QjGise0EP0ooSWoZ7ZtiiAu8Mo8QiUCyCfVELovUoJI7WshaxaI6ZUnAVZ+ayMYi7XXQlGLgF5EBNEoSv1opxugla8joBcZQfQujhKCncQg9JqJ+YrvnonICKIZtdrJRzGMQOtM2+EVnwsREkRojMq0rJkgkPuZavBFERvREozFBrVpIhV6HLV84roVbYeiJogwaI/K+eDvo5zK5KutyETTxBoIxnD1saqUyPv33sipfuK4FqVkWlgPQYxBYz5KZBBL3lgCWUPcUpP1kMNYH0GCYmP3epro9PPNlKbJ5gHMuLqvlmr2M4n8qNpuRaQQ6FgzQR2DcaO9W72ejKbTKQDT6eh4Up3XGq1i5G+cFxsh+DfxSXDb8Ulw2/FJcNvxSXDb8Ulw2/FJcNvxH7jfJAjl/l0OAAAAAElFTkSuQmCC;" vertex="1" parent="1">
          <mxGeometry x="610" y="85" width="115" height="115" as="geometry" />
        </mxCell>
        <mxCell id="26L5T93bEw7jJD-IDhR8-4" value="Crypto  wallet" style="shape=image;imageAspect=0;aspect=fixed;verticalLabelPosition=bottom;verticalAlign=top;image=https://encrypted-tbn0.gstatic.com/images?q=tbn:ANd9GcTzNUMfJDd1D1Jk80wneHGvFP2AnUxU3fuq6Q&amp;s;fontStyle=1" vertex="1" parent="1">
          <mxGeometry x="610" y="216.25" width="142" height="90.13" as="geometry" />
        </mxCell>
        <mxCell id="26L5T93bEw7jJD-IDhR8-6" value="&lt;span style=&quot;font-size:11.0pt;line-height:&lt;br/&gt;107%;font-family:&amp;quot;Calibri&amp;quot;,sans-serif;mso-ascii-theme-font:minor-latin;&lt;br/&gt;mso-fareast-font-family:Calibri;mso-fareast-theme-font:minor-latin;mso-hansi-theme-font:&lt;br/&gt;minor-latin;mso-bidi-font-family:&amp;quot;Times New Roman&amp;quot;;mso-bidi-theme-font:minor-bidi;&lt;br/&gt;mso-ansi-language:EN-GB;mso-fareast-language:EN-US;mso-bidi-language:AR-SA&quot; lang=&quot;EN-GB&quot;&gt;Infrastructure and Hosting review&lt;/span&gt;" style="rounded=1;whiteSpace=wrap;html=1;verticalAlign=bottom;align=center;fontStyle=1;fontColor=#0000FF;" vertex="1" parent="1">
          <mxGeometry x="72" y="350" width="415" height="380" as="geometry" />
        </mxCell>
        <mxCell id="26L5T93bEw7jJD-IDhR8-7" value="Hoisting Environment" style="shape=image;imageAspect=0;aspect=fixed;verticalLabelPosition=bottom;verticalAlign=top;image=data:image/png,iVBORw0KGgoAAAANSUhEUgAAARgAAAC0CAMAAAB4+cOfAAABMlBMVEX///92x+/t7e5Qstf7/PLj4+Nsw+7v7Ot3yPBzwultut/8/PyKzvD5+flzxu87rODr9/zw/v7b29s2qtPI4+/v9fL09PRzvt2k1OnP2t5nuttFsdmLx+LA3+fs8/bc7PPNzc2Yvs7D2uTJyckoptGMl6IAL1IAN1as1+nV1dXZ5u/h6Oy7u7z28O2g0eza5u/wWUtlsdXi8vkAKE6srK0AWnX5pjFZosO6yM7A4vVmueRRseEAfqsAADwuh682oMj2urL61qv3qqLwT0A3UWoAGkajucMfZ38zdY5PgJNTmrlEiKWPq7cQo90Am9ojkb59rsadp7BUaXtqnrcmm8ywzNlAnL/E4ej62tH66dHuOCR6iZj5ngrvRDMiRGCtwMiFoK1tkJ9Pi6SPj5AATmxTfY50xa7jAAAWAklEQVR4nO2dC3ubSJaGETQIGYEVQSMktBI26jS6Zqw4bZNknJ3tje0o8Sbpbmdmd2Y2yU7P//8Le6oKEDdBoQvS5PHXT0uOLW6vzjl16lQVMMyDHvSgBz3oQQ8qoL5Rr8+c/r5P49A0uzt2+7Xj47vj2b5P5ZDk3j3XHjUeARhAc+fu+3QORr2+IzVAM+DyvPFoJu/7hA5EcqPRnSMwtbvjO02DH3r7PqWDEDKW5/81Q6/u3R0zQ2S+HZvp9aMqsOkYQEj9F43G8XHtxQvMpfG9tLMzLVVya6BGNFAd2m3H4EVSV7t7gSLMsQtcXPebcSauFbd9bUDbtrTBQLov+tox1gvJwCbzbYDR1JTfmZRx4hIwuLVGQ7vDFjOrvTjV4BffRJQxusnfyQO6L11HYEBzYjHH+OeaNNO2fI57EYCRR09GY2Y0gjf8n0wLZnT5qOHnMCAH/6PvHn8TWR4Co2lam9F8ncoSLZiXLkJBsl5wJWI/8reR/qaA0WnBPHl5BInM3Iu9xzUZg3HvTmk2lnq9g45FAEZiWVZn2EASrSvJL98/b0iz4+7dHUFzBxlNQzse522ndTumaoI6XWe++TXsRJsEX+bqCuyk36i5c+eYsIEman6SvVGvq5pcIFPtHGasRhbz1x9+GDI/+JrQgzm5eo+61DUcdJ/jXOZR4/RD5jZ9lYtJ7R5iroxizB8fv/7IvH5M9PQXiTbGgC9d/YY8aL4MwTPp1+w+BWfGwXCD9hYuZNtCYF7/+PQj8/hHoscFwDAnhMwLadk2/ZptMIy0iJNRtebGl7F9IVfiQQzL+6IOvqDFFfKm42OpMcdB5rerq5wtTpgTiLtBiIEY0x9fbngRu9BGwRc+egX67fiu0agjLu+vrvI27Vy0mb7T7SAsndZMk/WT9wfqSlK32x0xXYOoe1/EYhh58RLQvD8d//YbUHm50PM26HDqpw/3I1aXZZ0dn55cfDLNAwUjD0zznsF5BdIH6syX6B4Zzbtr9Poyp6VG6pjYgV4R4ZZbPVQwKofA+G5fFAwj3V9cLa5fXl3cUzW7H2LttanODzX4VqtVlqn64uVeMTBI9Pn9B0nrIOv0Y685k+7/VYIvo7G7S7k6r+51SXO63Var1TW0BtP+9dWBulJIEiM5rU5XY6Sdkelw5qvFh/vT9ng8bt+f/PrpFXeowXcpCRJ2E9V9O7JM5RpDnh/Cmw3/y6xFdcCuyi2jr5fR5PU696GoxcwhDhuNezh3hsqbrKFlNe3muc1PmtY5/GQP8zaRTwbR1NfkpNyN9qB+KNBKYOec6TKnYN2OxFJsbQ2Hw8lwaDH2kG9a9tDicxuYs3GvywW5gaq2XObDIQZfMG3NH1DqNcBU1HsEBpkMxca8NWSbNg8WY9u8xdvNoZ23SefVh7bc67sOJJOONmfY608HmccwjMP5A0qupvqOdTJg+N0cDoxS/XTx4eQeCWLvJ/Uwgy9I1j1JZYBxVJLAoCDvJTPcjg61oaABkkmglXoqt/gErrRYfOowO0pHJcOMBF/TbA13W6hqaKuUXTk6bzabPLTOOgTfFpyog2KM6spFvsZC7S1/0jEDdT5cVotsXFwjdbUyy/YTnrWak8lkSEzGdOTLV2aLaRao4Y9vip3rtNqG+AJh5rJZnRbbtLgM9d/S9eeueZJlqxOZt0DsBLXXDQ6lXhBq2CIGIx9ihubLGHz/XbocNRNMEyDoFrS1DIo3jGZ0jTnDF4qHB9qqEAGYv/w7CEhYHz9+nCAk//0nUB6YiGQdArFcbdIkMYH0Z/SfBbdlGBzYy0p3jcGj//j7zz//D/Pdd399+vTp/8L7d3/6G4gpAgbcSWfZokOEBTxpKINtDs95e2LbTR7nyrY+ya37bSAE5uc//OHvCMzjH3/8Twzmp59+AjDZMWZzFcnoh3JzwtjWUBqiN8a25XML3neoVDB/w2AKWUxx9Qp4EgN9K2gDbdY6nwwndnPStG3oa+0ywwu70usNXKmX8AsJK2OTItgl8Bod9gZJpYx+gheUQu1Qa7dKMbVvgx8BR9BdAKEMOW1Hnw961sLWwHiRFDNhEwI8CThFPGkP2h6YMaaShBKGs/HpXm+8B1ptDczlVyaDisdGXrJ5t44nXb9bY6P1tC0wUohKtVqdVll2DGKr02m1GmHj7fQ2e3+pKnPG63bAIB/63CZUpmPNmdUVwVOlPnNH7LQaQrPuubYLdjo30lbAYHO5/KKDrYyMiqAoSmUp+Jcg1J1RYDg6Gkr4skYHUi/VYtT+9+miznwl2bvg6dhQhDCTMB6hYoynQRxex5O+Ft9kAxlmdEHAUiYlGD+6TD93V1Hx2dQ136XWaJ/an4tvs4GMSMHwcytcPaQC43GpjmcXF2IWF4xG1IjVfGkXjTRl1yjCYMz7qW4WBONxmTqCIop5YEBC/Qmg0b+COxWymvazkhPl0/DsipbsRjjlby575lIXKhXx7RkFGUUwqizKjguS2WnHKEVSd1lh5jgVT8/xC875BX+JcBnh4CIucn2JoBHZr5dsITLyTfkdK7k59NQ2sf8E/+Zzz5v40dQVyBVT+RIm839VthAZea+jsRoGY9Bv4HFxPC4V8faIjkxFcades02ld3utmje80EKdRXlcDJ8L+BJNkEHB6EJwCpCR36x/VRtrHkwlUDnKkrYctRfsS1T2Il7URJ8MRewY77VwI42bvtp0YHDgrWpC+IpvqMDUKgBQ0EicyQ8zzw55+Ckp4kjjMBcwBZog47VewgiDyf8WijXUvaj20Jphg4lfM40viWc1/K54Hafs41wXapD6XGyYmTYupAubM20T4W2CA8ws1jmi8SXxyDMrpT6l6DcVqtk1VK7jhNThuM4Gg/8Ti2GZoT1hwWpJSpqLGTtSNMDgi6bwJfHtwvuMcEq6lBnHGRfrInVNrsU8wmI+fhwzXcg/EgvE6TXhm/zEZidD/R+sPZxM+PMJD72TrEaSOFKyMy3WKCym5sMTMBc+48zfFAMDfeAAzB9fXyIwG5GxJow9lGzmfHjOs80JkEJDWRlGTAzGSAHzLM9ixNoy2VFm02yTKdpBCoN5/ZSA4czuuv0sy2Jsnpd4xkL/2U2maZE/3KxqKOVki+Rd9kWeyYiLxZKdMM40mS9Fa9+pYDJWY8hoonlcRr6FtVeAwQaTiLyeo+RaTAidbzJ4UC4ZhAsnMOlgVs9i7CYXFOIJqPn6kupP0iqDgcvO8SWxFumCE5Px6p2xIct28VpmJMZQgGmlcKGrQ6V3a1cbDCQpOWAWb8MfUJzw2Ep05Olz8Yw3DOaXX9q5YDTVTBFd5pTyva02GFAtr8GOBiFlysbkjzytU+IFMJ25Ny97DmrlgGHYdlJNylid5IdCb9VZVfi+oSw9EAmj6RSNyYVH5TCatQYdW1yo0OavbsoA02t1kupSN+830faUhN5VXMTVFhMdbwr9UqzPHG0cGrJcd5gbwCTmnhYOvibFSkSidtS2cFudSHqXYFIKnGjMrVKfzer1iiAQPLXo3+ETyswNRizXHHRscWqCaGsnwdfTbdifcHKXHnoxmHi7hAYi3bl/MGnu1nGJuJbIeBQ08oTNRm/zBWvl/oWqiTpbFpjU4MtZ9AfshXZNst5VBgNklAgYdLHx3ckuQpMkg9k4bJX9WqxWHqgoGKbaTFGhLsTnoHGScPdx9ZijeBb2JUFMn3nvYDRp2yuCa3/Ract7URUF0+ikuFKrWA/i0p8zJ2d6EgJzK4YucuU5iavIQCrkjXIXJlMUTGuz4EvU+x3NmdL1zDaJXJkPRqk0MnY4E1LJiGc3fkW48NThwmA2Db5YbTaYSfZkdYhBHckzvxKVvUMgkxJnRLEmVoT6WqP/RcH0QyF3reCLZwax+u1ncrZVN8tixAuS9edxATJKgoxYu8HlGqXufQcFTnKN4DsNbmZiNoMf6c3UnwHDtlk9taQZ/84JmPwd1xNkgk6m4tlMoUhomKlgKNYfNNTiC31C0+v066/T6nik5XQUL87gVaC4v5YsxFptcREkzn5JuAgZnRskvu6WekJR9pVSbgWZs0WABfozI/dMFITs+UEIzEKsKFS3tdOiYUas3YaqWAYmkz+EHlIvpfL0OYuLTMR0zBmadS5TLqlHC248LFMWMlZBgTajll/vFqkcCQmc6SggI9Yi+yYjT8XCjFydxlTNMjljgKQONJVTNfzTYEBTp/LNpTrVul4fB7KMfDJHFYHybmzziMncRKs5Cg4zBYIhhaLd094pUU9VW6z3M8XSDc9cqlO3snQfUXxGMQ9GoD1RbDKKt+dYz1wxcsdXIqIZUpDltJ67JI+q9Ot/vbZoqkXLBWLtKNNmUFd6dcYb19JkxLcJ4F6xnCrKtOX2V5qaZDoZmWKs2JMUnkYWkSi+fbuCDECpzFxN0+in5IrI88hek7ubUZrMuDd+4y3zmNgkqKy4K8IKMPTyuEzdtDYI2XwKGuhJu4UnKbsk/IpnadVib0gu+0rA4W+D+rBsN5uT8+bEtic2Y00Sy+Do250V8uwlYS4embNnSXcS6uvcGlQmviTepoEhxXI+o2GRxsxNOLYAmInMnzPSPyQ0SJYwnLi9SBNr1a7bad+HF1/EjApmjIxC2xDFVa9A0IKGOt07US7Dr/SlMXMbG+ABV2Ltc962hvBu2bl3pmFtBt+YRB6iO9pYdgjG9ZdkOCfTMcdpRVqfjHgTiZWKuK6F4rL62SL9MMKT1b40Zt7kVcyt/MOzk8nQQsZlD21Lj20AB4hYq5e/VLJT3HA6lt9jXKk+ypCQvaSW9LAvpYxojJl3W5max9o2mIrFTIZo1TI7iX+949/j1Uu2utKPfKOBxilAs/6pSa4zqwgr6sCVepov9Zjr29LmSkmfb/zvRaboQmMyR77RCFkVKRr1NK9EHj+GgKNvOBvV9cubch9iANb5Bb2TcrebVYzyyVzcYJuh6zHmSEotkZMOU9Mf1pZ6vd/3cE8I/RLNecscgo2RqeE0nroDkCMjWSJXXK8ug9Z/9aTf9zZHvH3NXEMiPq3nOpJH5tmZuBWDwWpU4mT8/hKrt+Wb60Kr2Lct+cs7/XIkUA5Bo8llwhZdvh4jQyp5Oq+/+afOeusG9yMJrHb8z4tKfnFhee7bPH683ClOp/z0yxud9Uoge0ODm6SRcnRTS+sOpYLZ7jMoxAgZsaZcPIsuxN3GyvbiInMZ6mi92uKGbqGNsN0nGvaW401w9LNnR6KIxvxFYzRdLsTd6hGpFGqSoMl5u6BgI2z5NF2vRCPWziCyL4fvhIoz9iPxOkP+myk8Kwh9YWhBXwYbVJV6vu1zgP3WIKjfJL4VRZiNq3sigz1peSoiGqNfHKWjwRM8+o2tnyIyGaCSXvIJmu9y3SmZ3AGTxVntImUBhVDXdvS1CXgqX7qdKspovYHtzYQnecRHYEXx6PbsKFYxWTXBYxuahQdVEgqG/Mv0phWTPMDZL55FUhuB+iF/a0gTssBUhFnxQcpNFQsxUTZvb4NouG65jk69bDD+8G2xlUQbKXseGXQYbxcYTYhLD03/7JMX/3cOF9pnd758XUozGabTWnUeqRNEwmRmJZMhae/KjrVYqZ2hRcQRPxpoaKgTvXT8X0XADEb+p8JCD1Q0VrojqgNngQniTFlhJm+CHXKoM3gNb9Mx0JQCuMYWWrMtow4lgFn2aAY4SGMwPXId6CMIDKmx+D3QXuiWQij6ZoJZa2B7A8lpjVLypCLtkQEOoSKvgGuXW4MBpwGYDrx7Vb0AjKYOBi2JGakDrt9SucG81WXUljpQEdDuYKB2TH+fTmazhEUGtstqszGYlAVaMbOJbNMfMPOBhl7Q/ea1fnfQc9RuH649CmY+MOYa1wILkwyt55gNpgtgTG3uDFzGUOFdDTzQVfwlpavBFBzY3gKYvGJvvDc9aLgceekN+r2ezDmOSljgP4M1gdQRsixEr4VjNHIlBAbtC4KTij5rFAFDsXCwbDDxyndH687IS99EE0xUgwRflYAZGK7ramq/i4D0Bo25Cs7mg8HwXJO8O4XAUA9slwYmPifImMGVGga8IG8C32pEwRBX8sFAgHVwwAmB4eJgwJtzwZABhGIzrnYKJlGw09DMNw2vb0CPdpYHmqPO0XOee2EwmoY+AE4m4XgdA4P9qxOAmdGAIXVy2uVFJYCJ30lFGnDeC8DotAYtuPxBqzXwspQgj4G/dOAfg5YBjTsC0/LAOCbTU7muugy+uXkMFhmMK+XxBFRgEpVMR/NfmJ7jAIf5aO4ET0V1Gv6r5jgoWTG6sIc5YNOgYUef6iOErqM5QYaoiDRgSPhtluFL64HZgrrQZEmcb4uyIB5RgFHwHUWKrRZZU3sDI5uQ8QUG0wcw+Wv+vVSmlCCTvdzRO53ZTg6tuaPgZ4eita74Y06rZ89sUal1qri2OoyUKtRZpQBD1uCWEn1zO5FIwq6jXQOFmBrFGLE3FaKE6JtTdvBOZ9ePmqb0JH+6axnNEpkylANmu0OyKRIoPcmfI1IWmOz1a5UtTBPKFuooUXlSRSkNDGmW8qaA7NZkZGqD8ROZ0sDktNc7jjJ1bDB0YMqzGDzgtnIZPlFt+8PVIbmCSGswJcaY3OXmHhlFzN/VekJfCq3BkM4SXwoYMrBUzwEDZOq7ORvgQu1IfoJXDhiqIANNRvaa6nXlFuOCuwTN8sDkT9lEw2H0a5Koj42WdJzRBhhv2rhOcePhbUii8SWPjLjVxgnN8xXp40vFj71WmQMFuUNLCh5CFSruthyqgW6DIR4V4eKFGKukcVpyU8T86c81jAataNPmG9qy3Mf3lIFmuhgXUo4ZljTmtvKuiEk0Rx4btEKivr4UtL1IsBTg4i3Z2ekDyyIi82kpZsyjaafkUsScBTw5uxHRAtSiWPy5IGWFGG9RMZXJVLBDHYFqmwi2x1RqxfAKGk57Syn5emSwyVCfpH9xG6hWK2YsWMRg7HIaawIm/Wa9GUrep4xea27m95OGZc83o15/sid5c6rKNJjg1gUFTKZ8kTuON8sLvVhkTWRe7Xef8iZU2eX0kwJ5q0VpVv/tRwJZ92YNyzUY35lCj+84LHn33GlapUYYLN27GdVBkvEnQNvlTAGJkcGHjjza5FDk2Qtrl9pUB/JuYFYknSlHAnkGEWuV3CL58m57UX2yST9o+1IqT8jUu+EeAgwRufEFmhZyOEajCN6MRLCXkuZrppLxAs1IPAw0ilB/cgBcUDrjPxzTVfaPBrD4S7h4e1jqYqWk/LvgVauamHdfwN1SASd64mHRm3vnAmR4H810NFv5pNmdQxFmp8tbrVvWPvKXuPwQjM1mZIj+zdDLIYKYKOFHH0O6aw/3GV5CCowG2w2LnmZdEUpQpV6fOe5oHHmSeNO2+L27kS+JDaFBhuM9YmGnSj7HgWBpHgwWJEnnI2z2In5oDQ/HWgLp7F7Z8BBxeXYvd7vIFTKbfcDhm8MDpkIkI7tZ3lx7p4LDNPEDg4HJnu6MUkySjPLhMtAgc9E3vGVo+ZJ2rn1f4YMe9KAHPehBO9b/A/K1hlGMwen3AAAAAElFTkSuQmCC;fontStyle=1" vertex="1" parent="1">
          <mxGeometry x="111" y="360" width="108.89" height="70" as="geometry" />
        </mxCell>
        <mxCell id="26L5T93bEw7jJD-IDhR8-8" value="" style="shape=image;imageAspect=0;aspect=fixed;verticalLabelPosition=bottom;verticalAlign=top;image=https://media.licdn.com/dms/image/D4D12AQFewlkLOL3tPQ/article-cover_image-shrink_720_1280/0/1695853532432?e=2147483647&amp;v=beta&amp;t=VkE34iBXn5vLSEFrzqntPsTIbsFHLZmFf7a6u0IDVrM;" vertex="1" parent="1">
          <mxGeometry x="305" y="356" width="145" height="116" as="geometry" />
        </mxCell>
        <mxCell id="26L5T93bEw7jJD-IDhR8-9" value="" style="shape=image;imageAspect=0;aspect=fixed;verticalLabelPosition=bottom;verticalAlign=top;image=data:image/jpeg,/9j/4AAQSkZJRgABAQAAAQABAAD/2wCEAAkGBxIQEhAQEBIQFhUVEBAXFRUVFRUVFxUWFRUXFhUXFRYYHSggGBolGxUVITEhJSkrLi4uGB8zODMsNygtLisBCgoKDg0OGxAQGi0mICU3LS0tLS0uLi8tLystLS0tLS0tLy8tLy0rKy0tLS0rKy0tLS0tLS0vLS0tLTArKy0tLf/AABEIAKgBLAMBEQACEQEDEQH/xAAbAAABBQEBAAAAAAAAAAAAAAACAAEDBAYFB//EAEoQAAEEAAMEBQUMBwcEAwAAAAEAAgMRBBIhBRMxQQYiUWFxMoGRodEUFSNCUlRyk7GywdIHFiQzU5LwJTRDYnN04TVj0/EXo8L/xAAbAQEAAgMBAQAAAAAAAAAAAAAAAQQCBQYDB//EAD4RAAIBAgIFCQcDBAICAwEAAAABAgMRBCESMUFRkQUTFVJhcYHR8BQiMqGxweEzNEIjU5LxctJDsgZigiT/2gAMAwEAAhEDEQA/APUw1AEGoAw1AOGoB8qAWVALKgBIQAlACWoAC1AAWoAHNQEbggAKASASASASASASASASASASASASA421MTmOQcBx7yub5TxnOT5uPwr5v8G7wOH0I6ctb+hRpaq5fFSAVJcDUpuBqS4FSkDUgBIUkjEIAaU3B6GGrtTlAg1AGGoB8qAjlma3yiB4kBAPFM12oII7jaAeQgC0A2HwTpAHOc5oOrWgDNXa4kGr7KsdvICB8RstwFxvJI+K7LR8CAKPjfm4oSU8POHD8DoQeYI5FASuQFaXEtFguGnHUaeKAQcCgGcEBE4IAUAkAkAkAkAkAkAkAkAkAkBT2hicgocT6h2rWcpYzmYaEfifyW/y/BdwWH5yWlLUvqcelzBvB6UAVIBqUgVIBqQDUpJGIS4BIU3AxCkA0pJPRA1dscoGGoAw1ARzyho8dAOJJ7ABqSgJtmQ03O4HM4m7BBDbOUUeAqtO20II9o4Fzi18WUOunWSA5tcyAdQarzoCi2KWUVk6uYAuzDK5tjNl5kVetC1IOviMWGUKJcfijU1212aKjisdChJQs5Sf8Vm7b7bsj1hScs9S3j4bFB9jUEHUHQ+NdmoU4XGwxGkkmmnZp5PvtuzE6bhYqP2Owue7NIC516EUCeNCuZ11viVcPMoDAzuL2gx9V2XMSRdgHMG0eThoTx071JB3YIWsaGtFAf1Z7T3qCTO7Wg3MpLWuEZaHEhpytdZDtRo0aA+cqSBNdagkZwQETggGQCQCQCQCQCQCQCQCQASyBoLjyXlXrRo03OWperGdOm6klFHEleXEuPNcZWrSrTc5a36sdHTpqnFRiDS8zMVKAKkAqUgakuBqS4GpTcDUpAJCEjEKbgGlIPRmtXcHKhhqAPKgK+GcBMc3EsAZfiS8DvrKfN3IC1vnOvI1pAJFucW2RoaAadL8PxQgobXkxPwIZHDkdMxs5L3FzYjo4sGUa8Bd6DkeWSsQ7nXCxMijPbJN5lzBwDeqNR3nuWoxGnQxar6GkpJR91e8u19niWIWnT0b2azzIXB7y+VrSOplHJ2hsnXThfoVVqviJzxNODj7uitk8ndvPLVffey1GfuwSg3fO/YS4UNzjdhwbl61gjX4vla9vBWMGoc+vZ1JRt7101n/AB+LO+vV4mFS+j79r7PvqJZm5CZGk0XAvaeBGjS4cwQAD30dLNrclYtISBNI1rS55AaBqToAO9AZLAuu6BDbdlB4htnKD3gUgLbggInBAAgEgEgEgEgEgEgEgEgOVjp85ocB6z2rlOU8Zz9TRj8K+b3+X5N5g8PzcdJ62VqWsuXB6QCpLgVJcCpANSXAxCkDEISMQpuASFIBIUgalJJ6O0LuTlSRrUAYagKuMwYeKIB8UBx8LsoFjPoM+wKSCSTYwIqlBJZZjpoxlc0SVwcXFp8+hs9+iAqP6SyiURe5DRjLt5vRlBBALay3eo5c1Nla9zG7vaxZ9/JP4A+sP5FBkU2dKJTK+M4QgNawh+9GV2a9AMt2KPo71NlYi7uPj8dLiG7vIGNNZusXFw41dCh9qgFRmyB2Jcmw42SLGiAuxQZUATggInBAROQDIBIBIBIBIBIBICpjp6GUcT6gtPytjOahzUH7z19i/JfwOH05actS+py5JmNoOcxt8AXAX4WubjTnJe7FvuRt5TjHWyWl5kj0lwM6hqSAO9Em8kG7DNe08CD4EFZOMlrRCknqY9LG5IqQkYhSASFIBBB1FHwUtNZMJ3GIQkEhZXANKQekNC7o5YPggMLtTp7NHPPBDgTKIZRGZDiGR24tDqDXN7+08EnOlC2nKzeepvLwKdbGRpS0WvXAg/XnHGiNlur/AHUX5V5e04b+58n5Hl0lT9f6IGdNsbG1rTst2jQL91R8gB8lT7ThnqqfJ+RK5Rpv1+CTB/pGldLBHLgTG2WeOLOMSySnPJA6rW68DzHAr0jKnNtRld69TX1PWni4zlopHoDGhwQtlWXCjeM+hJ9saAse5BSAoT4PK8uDcwLWihQIylx50COt28kIEDX+G/0x/mQkds2uUtc00auta40QSgJCEBE4ICJwQETkBC4IAUAkAkAkAkAkAEsgaCT/AO14YnERoU3Ul/t7j1o0nVmoo5TnEkk8VxNWrKrNzm82dBCChFRjqRnej2AixERxE7GSPlfIXF4DsoDi0NbfkgAclteUMRVw9XmaUnGMUrWyvle733KOFpQq0+cqJNyvr79RBhsfJh45Y48rt3jmwx5yT1H1TbBvS6vWuxetXD08RUjOeWlBydt62+J5wrTpQcY52loq+57Dox4+WKZ0WJfEW+53S52tczKGupwILjYo3apyw9KrQVSgmnpKNm073WWxHuq06dRxqtWte6VrW8WVOke0YcRgsTuZGvy7q6vS3irvwKscnYWtQxtPnYtXvbgzyxdenVw89B31fUrTYaOR0IwmEmikEsbjIYTCGtB61k+VY5L2hVqQjN4mtGUWmtFS0m3s7u883CEnHmabi7rO1svuXztSbPinVEIsO92bRxe9oaHZRrQPf3jRVFhKOhSWbnUStqsnfX3dnzLHtFTSm8tGPF5aivhtuvzQF8mHeJXsaY4wc8Rf5JvMcwBoHQL2q8nQ0ZqMZJxTab1StrytlfZmecMXK8XKUXfKy1q/jn26hS7VxO6xE7dwGwzStylriXtY6uObqmvG+5I4PDKrTovSvNJ3usm13ZkyxFbQlUVrRbys80n35FuHGTtnijlMRbNFI5oa0gsLQDlJJObQ8aHmVedCg6Ep07pwaTu9d9urL5ntGrVVVRna0k3ktVvHM5mH2o9mHwhaIoWPbJmeI3ujjo6NDQ7S9dSVdqYOE8RVUm5uNrK6TeWbvbZ2IrQxE40adrRTvd2bS8L7e8tS7Ye2Fji/Duc+bI2RpJjrjncLsEAeTfGl4RwMJVnFKSSV2n8V9y399j2eKlGmneLbdk1q735Emytpl8j4XPikpge2SMEAi6LXCzThpz4FeeLwihSVWMXHOzT+qdlkZ4fEOU3Tk08r3X025nVpa8unpLQu8OWHl4IDyDE5fdOPz5v+pMrKAddxzvlxVPG6WnHRt8L1/wDI0WPvz2W46+FAyMy2Rkjq2vJAyNodU0NKNd60Nde+9KVtepre95lg51FB6OHU83m438CPG/FvTyuDXi+qdOsa7/MoopXylfxT+h6YqdR02pYZQ1ZqNjMPyZsDkz/9Tw3lADnN2d9+pdDhNLnpaVvher/8nlhL89n61HtWzj1VaN4PL+8Z9CT70aAttQEUtICs9wQFHEyDNH9M/cegJBKEADpQgAJtARuQETkBGgEgEgEgEgGQHOxMuY9w4e1cfyljfaKnu/CtXn5dhvcJQ5qGet6/IiAWuLRyRseWMv8Ac0+7Y9xcWOjEga48TGbFeBsLYe20qiXP09JrK6drpb/Mp+zzg3zU7J52avwC94GiKOJr3dXEMmc8jM6R4dmJdw4rHpGTqyqOOuLilqSTVsu4n2WOgoJ6mnfe73Lj9n3iG4jNwhdHlrjmcHXd93ClXWIth3RtralfuVj0dK9VVL7LDbZ2aMTDJBmyZ8vWq6pwPCxfBTg8U8PWjVte2y/ZYV6PO03C9rl4NVW57HOi2S0e6g45mzvcXCqoOaGkXevDirk8ZJ804qzgkl4O5XjQS0081LysQ4TZkzDG1+ILo46yhrMjnACmiR9mx4AXzXpVxVGak40rSlrbd0r67K2XF22EU6NSLSc8l2Wb72CdifAYiDefvpJXZsvk7w3VXrSn2/8Ar062j8CStfXZW3Eezf0pU7/Fd8SeXZ1ywS5v3Ucjarys4Au70ql5xxVqU6dviafdY9HRvOM76k1xKUGx5Io4WQzkGNrmnMy2PDjfWZm4jtBVieOp1ak51ad1KzyeatudtvceUMNOnCMYT1dmT71f7kbdg00neVKZ98HtYA1r6y0GX5NcReqzfKN5L3fc0dGzebWvXvCweXxe9fSvbbq1bi5g8NI0ufLLnJAAa1uRjQOxtmye0lVq1WlKKjThZb27t+OWXYe9KE03Kcr/ACRZVc9z0loXenLCm4IDyGXN7p2hlYH/ANosu25qG5HW7vHvVLHW043dvde238jQ8ofra9h1sOTlbplOVli3s1yjgGjlw8y0NfR037ul22T2v/Zng41HB6GIUFd5OVvEixh8nn5XxnurQ8nCu7zpR0b5Rt4JHpio1VSeliFNZZKVzLYrEAOwQeI2Fu0cOSKDaFy6kHlwN9/eugwcf6smm2tF9vVPLCL+qn62HreA21hwNZofrGe1XLM3d0FJtvD7xh38PkSf4jO1nelmLosDbuHr9/B9Yz2pZi6Ml0k2tDJMBvmFojZVPYRZc++dXQb/AFS1eP53Sjo3t2Gp5QnUU0o6rduu/Zt+xx4sZA06vkd1QNWZhoT1gQ3Um+N8lScqrWu3j+TWyrT0VG+q+d3fZk87ZW3bWWYsbA80AL46sr0WO9YN1Vrk+Jhp1Os+I05B0a2Pj2Iqkus+Jkqk1rk+JE1grUC83INy5a9Oa/NS9+cjzfxS0u/Kx6857nxPS7zTbHmLo47JJyNu/AcVuo30Vc6KnfQV9yLzlkZkLkBGUAYid8l3oKAqwOLi4kEa0ARRrmaPbp6FSwtWVac6jTS1JPLLa/H7FmvBU4xgtet+uwnV0rCQFTGzV1Rz4+C0fLGN0I8xDW9fdu8fp3mxwNDSfOS1LV3lMBc0bYIBYkBgKAPSgDoQK0JFaASEDEISCQpAJCkAkLIkEhSACFJINLIHo7V3py4p+CA8gmbeJx/XDP7RZxvX4AdXT+tFSxrtOOV/df8A7Gi5Q/W8DsYYOyM61jIyiCBfVGurSdTZ860dZSc3o5a9nb3nnh6uCjFqvCTd9jtlxK2Nc7ranRrrsg/FPY0c6U0lJP3rcPyelapgZQtRhJSy1v8AJx/0d7NhmhxT5oopXDFFoe9jXmsgPFwVnlzE1qU6cac3FaKdk2tr3HQ8l0ac6b0op57UtyNQ/YmDAs4bCgdpijH4LSLHYt5KrP8Ayl5m0eFw61wjwRH714H+Bgvq4vYsvasb/cnxkY8xhurHgiN2ycETQgwZ8I4j+CxlisYs3Unxl5mcMPhnqjHgiptvYmFGHxBGGw4IglIIiYCCGEgggWCvbB43EvEU06kta/k9/eY4jC0VSk1BansW4yHR7oZFiIY5XulGZgdYcyrJNgNLbFUOfNdTiOVJ0puCinZ7n5nEVsRoannuz1WVne+3Ph2nU/8Aj3DfxZ//AK/yrw6aq9SPB+Z4e1z3fUrz9BsM3/FxN38kH7GLJcr1n/GPrxMliZvYvXiS7N6JRRPZOx8pyPoZwys2Umi2g7gvWWPruk6mjG2rt+pYhWqRjztlZHoWx35mNd2tB9IVqLukzdxlpRT3nQcpMgY4i80P/SA6UOFDOA17Tx/4QEmU9p9KAZ8d6OFjvQHMxuFyat4c+0X29yAozy5Rfo8VVxmKjh6Tm9exb361ntQourPRXicwm9SuKnOU5OUnds6CMVFJLUEAvMBgKAEAoBDi5sjXO7Gk14C160KfOVIw3tLiedSehFy3GOf02okbrge1dN0BS674I1PSc+quP4B/Xf8A7Z9KdAUuu+CHSc+quP4F+u//AGz6U6Apdd8EOk59Vcfwdvo/t33UHOy1R7bviPwWq5S5OjhdHRle9/kXMJinWvdWsd1pWpLo5CEgEKQCQpQAKyJAKyJBUg9Gau+OXFPwQHj2Jc0YnH52k/2kyqNUdxx7+eip41Sc46L/AIv/ANjRY+/PO246sJGRpa0+QzSo3V1G0LcL4UtBiNDnGpvPPfve4s8nPHqm/Z4pxu9dteW99xVxDdCXNI0dWkY1yu5t14WsqTp6XuP6/c9ca8fzX9eKUbrdv7GVf0YfuMTXzp/3GLP/AOQ/q0v+K+rNzyP+k+/7I623duwQSRRybxzrD3Njbmc2PVubXTiaA4krw5J5Pq4huaXu6r8NXgefLTjOkqV820/Db+C9gcRDPE2aEZmujnc34eMEuY6omG2dUvFk35JFFbmpgsNTlozqNNd3kc28JhVk5/NeRLjoWAHLymhDeu1+ZpDXOdQaMtO6uvZapYylQhSbpzu8/oz2wtGhDE0nTld6S3auBS27/dsT/t5vuOWiwf7in/yj9UdviP0Z9z+h5rsSPaDomNgZGW5bb123lJNEgyDs7F21eOD026kmnfdt4HAVoQXvyvZ5XztdWutWy64nTig2u02IY+HAuYR6N6vBrk5/zfB+R5J0N79eBK6TbA1MMHpZ/wCVRocndeXz8h/Q3+uBJgJtomVm/iiDNczm5MwFHh1zzrkVEocn2ym/n5HpBYdv3m7euw9D2OBkbl4ZRXhWi2CtbI38bWVtR0HKTIv7Oj6pPb/QQGA/SsJcHNgtpQukpkjWSMDnBri0l7LbddZokaSf8qA6/wCkzbwh2aXwv1xORkTgSDleM7nAjh8GDryLggOf0G6W4CHCwYZ2LBmy5pDKJWjePNuG8kaAQLyjXkEBs2N43qHDXvBQGWxMhzuYfiOLfRz865HlWtOpXaeqOSX38TeYOnGFNNbQQtWWwwoIDCxYHUAo7XPwcn0HfYVcwP7iHevqeGJ/Sl3P6Hks3lO+kftXfo5kFSCrPNyHnKxJSNt0BPwfn/8A05aDl7VT8fsbPk3XLw+5vI+C5Zm4QSxJGKkAFZAArIkAqQCpJPQ2ld+cuPNwQHj80kgxW0RFx93tzcPJ3Ivj30qOP0NOOn1fnc0ePS53PcW2guA3lZsrbuPPZyi9QQBrenctRUk1J6Cuu+31McPSw0ot1Kui76tFvLeNIygarg7/AAy2uqeZPbXpUQlJv3lbxuTWpYaMb06zk8stFor/AKMr3OJvj7rffjkZaf8AyC3OUrdRfVnT8j/ovv8AsjrY3Z0zJ34nDtw7zIyBr2zF7a3L87SxzAdDoC2tQO9OS+V6eGpc1VTtdtNW27He3E9cVg5VJ6cLePYPsfZDcPEI8xLsz3OLSWtzPcXENHIC6HgqOM5TqV6zqLJbFk8kYR5EwrV6sbvfdr6Mue5hpq46g6uPLUKo8VUaab+SPelyRg6U1OEM1qzfmV9u/wB2xP8At5vuOU4P9xT/AOUfqi5iP0Z9z+h57sPpi2CCOKtWtryAeBPPOLXZ1+TKtWpKaWT7fwfPatCUpX+/4OlD0/jvrh9VyYB6i5eD5GrbEuJ5+yy9f6Hk6a4V3H3R5rHqD0XJOJWxevAyWGkt3rwJtn9KYJXshjExLn2MzW+VlI8ousCr0XpLA4pUXTaVtZ7Ro1ZR5pWN5sZhaxgPJoHoCuxVkkb2EdGKW46LlJkdLZTrae534BAVelmxhjcJiMNpb4zkJ5SN60Z/mA81oDwdkmL2lFBhI43PdgoZOoPKLTJTrBqnNG7YG8eqa7EBp8JtrZcjo4dobMbhJGujOZse7bYcKMlBrw0kahwcKuzzQHrZHNAYTEzXiJq+U37rb9a5LlNf/wBE/D6I3eDf9JFkLVMtkgWICCgDqAUdqNLmPaBZLXADt0V3ARbxELb19SviWlSl3M86k6PYkkkRO1J5j2rvjmiCfo5jDoIXd5tvtUMlEH6qYz+CfS32oLms6I7Plw7MsrC035uJPEdxWh5dT0YPv+xsuTmry8DZRHRcrI3KDWJIxUgAqQAVkgCVkiQCpJPQWld+cuNNKANSEB490w6OysxE2IZig1s+IacodIzLUZJvK8B15KtYYicVBSlG9stSevvT1Gsx+jThzjV9S7jk4Ho1i5g4tx7xldl0fIbOVpvy/wDMpoyo1I6XNLgvIww0KeJhpqOjs+Sz8Qsf0VxcTQ520H0TXlSDiD/n7lNWVCnFy5pPwXkMTRhQpupa9rbAOjnRSbOcuOeGB7TII3PbnvUglruPf3rCMqOIjeVNZZK6T+x7YCvKpFyi3HPVdmrxOycJEcsuMmY6ryvx0jTR4Gi/hoUWFpPVSj/ivI2DrNa5v/J+Z5r0i2vNHiJo4MVOYmuAYRM54IoHyr62pK9oYDD2u6UeCKs8TVUvdm+L8zdbLw+EkjiL8dJndHHY93PBzFosVn0N8l5PB0v7Uf8AFeRZVd9d/wCT8yXaGwIszo3T4zKY2233Q9wdZcDecnsC1+KtQnF06cV26K18DXY/F16ctFSdmtrfmNs84SABjS5zWtDQHNDhoSc1hupN8e4KnUdabu9es09Ss5Kzttz27Mu5Wy72XosZhnGg1l1erAPtC8nGotvzPJNvaDPkOgZDx5tClOW9madtpG2KOtWsvNyDMuWvTmvzUvbSjzeuWlf5HrpR0Nb0jQ7DluNmt9Rv2c1u430Vc6Sm3oK+uyOoSsjMDZO1GNmfEToaF8sw/qlXp4mnUqSpxea9fLaes6E4QU3qZonupWDyMb0v2Vj3vhn2bNHG6MPzxOAaJcxBJJoh3ACiBWpBtAZXa3R/bG1jDFjosNBHG429pYTTtHFoa95JoaDqi+KA323MezCwGzwZQHOgK9PLxKxnNQi5PYZRi5OyMJstznkvdxc4k+JNrjsVPSk5Pab2jHRSR22qiz3DCxAYWIHKEFDFSOadA0jvu/VyW85MxuHw0XpRek9qtq4o12Lw9Wq8mreuwq+7H/Ib6T7Vtum6HVlwX/YpdH1N6+fkAcbJya319ldqzjyvSkm1GWX/AB/7EPA1E0m1n3+QXu1/yB6T7e5YdNUOrLgv+xPR9Tevn5BNxTzpkb6151eV8NUi4TjJp9i/7GcMDWjLSi1fx8joYW61XK1LXdtRuY3tmWF5GYxUgArIAFZEglSACpJN6Cu/OXKG0tkwzkOliY8gUCRqBd16ysJ04T+JJ96M41Jx+FtHOf0Xw3KFg8L9qxWHpL+K4Iy5+r1nxGZ0Vw/OJvr9qcxS6q4Ic/V6z4hu6K4flEz1+1OYpdVcEOfq9Z8QW9FMPzib6/anMUuquCHP1es+JIei+G/gs9ftTmKXVXBDn6vWfEhf0Wg5RN9ftTmKXVXBDn6vWfEQ6M4fnE31+1OYpdVcEOfq9Z8SOToxByib6/anMUuquCHP1es+LK7ui8P8Mev2pzNPqrgOfq9Z8WRnoxF8gek+1OZp9VcBz9XrPiwD0ai+QPSfanM0+quA5+r1nxYH6txfIHpPtTmafVXAc/V6z4suYDZccJJY0AkUTrwWUacI/CkjGVSUvibYe1cbu20PKdw7hzKpcoYvmYaMfiers7fIs4PD87K71L1YztkajiFzdKpKnNSi8zd1KcZx0Zaju7N6U5aZNfYD/wA8/Oujw3KNOorSyfyNJWwc4ZxzR227bgIvN6j+C2JTOZtPpjh4gQ05ndg1PoH40vGpiKcNbPSNKctSMPjsdLjZM0lhoNhv4nv+xaTGYx1MthsaGHUM9p0Y3shYXyOa1oq3OIAF6DU961GjKrLRirsu3UFeTsgf1lwv8eH+YL06PxPUfAw9ppdZDjpNhfnEP8wWPR+J6j4D2ml1kGOk+E+cQ/zBR0dif7b4Ee00ushx0mwnziH+cKOjsT/bfAe00usjpinaqpmj21i9zhNJixXlhFhXKEnzc+7s39uf+OfgeNRe9H87uz7kkUAVVyZ6pEggCx0ibFbG7Tgw9CWWNhN0HOAJA40valhqta7hFvuMJ1YQ+J2Kv6z4T5xD/MF69HYn+2+Bh7TS6yGPSbCfOIf5gp6OxP8AbfAe00usgD0mwvziH+YKej8T1HwJ9ppdZEmG25h5XBkc0bnG6AcCTXYFE8HWpx0pRaXcZQr05O0ZIvZlXseyBUkm7aV3xy4YKAMIAgUAVoCFmMiLjGJIy8cWBzS4eLbtASZxZFixxHMXwtAMUAJQEbkBFmB4EHw1QAOQETkBE5AVsVM2Npe7gPX2ALzrVY0oOctSPSnTlUkox2mUnnMji93E+ocgFyNarKrNzlrZ0dKkqcVGIIXiZkmFwoe9o8/oVzAQ08RFePAq4uWhSb8OJFtfCNJyAePsWw5SxmfNR8fIpYLDZc5Lw8yhHs0di1Dql/mzoYfCgLxlO5mo2OP05/urx/mj++Ff5J/crx+hUx36L8PqYUu7DFXmXVGlJYnMo5iy60qqu+fmQEkjotcpHlaXl8mvHjaA59uyyZzH5XUy1wQHrGwcRccbTxEbPOKC4jF00puS3s31GWSTOzaonuVpuI8VbofBPu7N/bn/AI5+B41Pij+d3Z9yaFVZHsg3mlCDdjzfp5JeIhJr9yavh5TqtdXyIrUZd/2NNjJOUk+wzubvi9S3RTLIdFWpF075PH4vNAQY1wyu3RZmoVmrjz/FAWdgO/acKTlzDNmy1V5Hdip8oftp+H1R74X9aPrYenwOsLj5I38Q1iZG3Dl3xy5IHIAw5AEHIDPdP8dJDgpTE4sc90UecaFgke1jnA8jROvepWsxlqIdo9DcA3D5AyPD7vK5uJblZLGWkHOZTxPbZ/BLsaKOZPtcYPFbYxR+Ey4XZlVQ3jnBzGajkXOHmKm10iL2bZ0TtPG4WTC+7XYV8eImZCd0x8boZZB1AC57t40kEXQKZPUTdrWQjpNMdm4nG5Yd5G7EhoyuyHdyljcwzWdBrqNexLZ2F8rhjauLxOIlhwpw8bYGQbx0rHv3kkrM+Roa8ZWgc9Soshdt5Ef6Pyfcr8wAd7rxeYA2A7euzC+et6qZaxHUaJxWJkRuKAicUBlts4/euytPVadO88z7FzfKGK56ejH4V83v8vyb7BYbmo6Utb+RQC1pdDCgguYOXdtc/meq37SfsV3C1uYhOovifur6t+GRVxFPnZRhsWb+33ILWveess2CChgMFYgznTk/sr/pR/eC2fJP7heP0KOP/SfgYnP2buvMuqNISRuZRzFt1pVVd8+6kAcjotcpHlaXl8muPjaA5+Z2WTeGPyuplrggPSdkTU2G9KaweIcANPPlXH143lNd/Ffi5uYNx0b+uzv1d67nbSRPWsaLiIZjqFaoL3J93Zv7c+GfgeNT4o/nd2fcmiKqs9kQ42YNaSeCzpwcpWR4YiSUM9X21v5XPOumLyZ4i7KPgjQPLV1We1dVyQoqlJLf9jV4qUpSTkretpxc/wDpLbFUsB0VakXTvk8fi/8AKAhxrhlduizNQrNl48/xQE+xD+0Ya8ubrZstVeQ9iqY/9vPw+qPfDfqx9bD03DHRcfLWb+JLaxMjaBy705cMOQBByAIOQFbamBjxMMkEwtkjSHDn3EHkQQCPBA1cz83RnEzMbhsTjjJhgW5miEMlla02GSS5uGgsgWaWVzGz2lrG9GI5n44yPOTFQ4ePI1tGPcXlc116m6I0FZeai40QIdh4h8mHfjMU2VuHeHxtZDu80gFNfKc5sjU0KFlL7hZ7SjN0TmMOJwjcWG4eV8rg3c5pGmR2ctL84BZd8gT2hTcaOwuS7EmZM+fC4hsZlZE2Zr4t4HGNuVsjOsMrsumthRcWewsdHtle44dzvDJ8JK/MRROdxdrqbPfz7AjdyUrHQc5QSRuKA4m39oZBumnrOGvc32lavlLFaEebjrevsX5NjgMNpy5yWpau/wDBnQtAbsMLFkBgqAECoIDBWICBUEBgrEGc6cf3Z/0o/vBbPkn9wvH6FHH/AKT8PqYgns3VeZdSaQmiLKObJdaVXG/YgDk3WuUt8rmG+TXHxtAc8F2WTPu/K6mWuCA3OCmORjXaWxuV3m/rw9a5mpTWm5R35r16fyNwleGi347tz7V/p5O5ptn4oPaD2jUdh4EeY2tTWp6Emi1TlpL1rJJXahetBe5PLZ2b+3Phn4GFT4o/nd2fcljeqrR7I5e0sSL1OjTw7Xch5r9JCt0abtZbfp6+V9hQrSjOr7z92Gb73qXftt2oxHSlxM0Zdl/dGgeA1NWuj5KUVTko7/sU8XJykna3frOTf+l6lsyqWRuq1Lbp3JvH4qAhxhGV26MeahWaqvn+KAm2If2jDXlzdbNlqryHsVTHft5+tqPfDfqx9bD0zDHRchLWdBEltYmRsQ5d4csGHIAg5AEHIB8yAWZANmQDFyAEuQAlyAAuQEZcgKm0MYIWF58AO08gvDEV40YOb8O89qFF1pqK9Ixskpe4ucbJNlcvOUpycpa2dLCChFRjqQgvMkMFQQECsQECoIDBUAIFQAwVBBnem/8Adn/Sj+8FsuSv3C8foUcf+k/D6mKJ7N1Xm9q6g0hLHko5sl1pVcb5+ZAG/da5SPK0sN8muPjaA59uyyZ935XUy1wQHoWCgD4mA/IZ9g1HeuRqTcKra3s3MIS0VZ8fxb7gRukgeAHMc1x8k2HeIodn9Be6VLEpKSae/WvH1xPJ85Sbmo9+at2a2rPZt3W1WuyzFxB7FucLgYUKc4aaekrd2TW/tKFfEzqzjLQa0fx2dgGJ2k5oAGUXzJqvVS1Nbk2FJr3tLuX5LaxtSfuxSi97v5eu0ighJokgnkePHjQ7dTrZ4qrUqLV69dlixRw8YpaTvbPsu/5N7ZPfZdiRmuljanisg/BHjVcTS3PJLvSl3/Yq4/413HIv/S9XtW1KJYG6rUi6dybx+KgIcZWV26yF1Cs1cef4oCbYp/aMNeXN1s2WqvKexVMd+3l62o98N+rH1sPScMdFyMtZ0ESa1iZGuDl3ZywYcgCDkA4cgHzIBZkAsyAEuQDFyAEuQAFyAje+rJ4BQ3bNkpXyRjtq4/fPseSNGj8fErm8ZiHWndalq8/E6LCYfmYWet6yoFTLQQKggMFQAgVBAQKxAYKggIFQAgVAM902P7M/6Uf3gtlyV+4Xj9Cjj/0n4fUxh7hFXgF05oyWIMo5sl1pQbxv2IA5Gxa5cp62lhvCuKA5/WyyZxF5XUy1dID0HZsrt2wAfEbqdOQ5n2FcnWhHnG29r9emb6nL3VZfb8lnDYayXcSeZ41/XJeNSplbZu9evAmMdJ6Tz9bOzdx2sutwi8NI9dEGXBgiipjUs7oxnTUlZ6ijFEWWGnhxHLXgQNOPdWt8aVqc1KzkvPuv2dt8rHhSvdwb95bd62Pv322mX6WPuePMB+6PHhxPat1yUkqcrb/sUsdfTV9xx/NF6B7VtCiWQ2Kvi3TuTePxUBDjAMrt1uy6hWYNAvS/xQEuxv3+GvLm62bLVXlPYqmO/by9bUe+F/Vj62HpGGOi5OWs6CJLaxMzWBy7k5UIOQBByAfOgHzoBZ0AsyAbMgBLkAJcgBLkBnuke0f8Fh+mfsb+JWp5RxP/AIo+Pl5m35Ow3/ll4efkcEFac24QKxIDBUAIFQQECoAQKxICBUAMFQQPagGe6aH9mf8ASj+8Fs+S4vn07b/oUMe1zTXcY8jsEdeA9q6U0hJE1lHNkutKA437EBI9sWuWvK5gcK4+NoDn9bLJnEY63Uy1wQG/2a0lkYINZG9uugXKVoS03ZPW9huoTvFJZdvln88rbM9XZhNciqkqc9z4FmMoraT73xWHNT3PgZ6cd4xl8VPNT3PgRpx3lLFNPlNGo8aI7CvanGVtGSdu48KsVK0ovNerPsMX0pNzx2K+COjq7TS6DkyDjTff9u01eLk5SV187nJrui9A9q2RVLAbFWtXTuQ4/FQEWMADXbrIXUKzUNef4oCXY37/AA1hubrZg3tynsVXGq9CXraj3w36sfWw9Ewz9Fyk4tM6CLyJ7WBmakldwcqZGbpFihEX5GNyyxwSOMZIZI1rzPIA57bjJEbW24DU6nQLYLDUtK19jaz2ZWWp5628jxdSVtRI7a2JkALwxrQdm2wCQOLppmZiHh4poAPVo+VroCDCpUovL/7bti7hpyevsIIdrYlot72PkZ75AkskY1hZNCGB7A4gjK4uBPBpbrxcc5UqT1Kyeju2p3zt4d+zYYqUvr9TRbCn30ceIdmzOaQRRY2w4tzBmZw1riCQRqOKoVqShVdvr/r6FqNaUqSi7cM/9HTzLAxHzIBsyAYuQAlyAobX2gIWX8Y6NHf2+AVbFYhUYX2vUWsJh3WnbYtZjy4kkk2SbJ7Sudbbd2dIkkrIcFYgIFYgMFQQECoAQKggIFQAgVBAQKxAnFLEMWOxUUsZhmiLmkCwDQ0NggjUahdBT5WgoKLhq3GlnydJyclI43vRgPmr/rX/AJl6dK0uqzDo+p1kP7z4D5o/61/5k6VpdVjo+p1kL3nwHzR/1r/zKOlqXVY6PqdZC95sB80f9a/8ydLUuqx0fU6yO+za4AAEbgAAALGgHBT0xT6r+RHRs+sgvfkfId6QnTEOqx0bLrIXvwPkO9ITpin1WOjZdZC9+B8h3pCdMU+qx0bLrIXvyPkO9ITpiHVfyHRsusjm7VZhsUWunw7nFoIBzluh1rqkWo6Xpv8AiwuTpr+SKHvNgPmj/rX/AJk6WpdVk9H1Oshe8+A+aP8ArX/mTpWl1WOj6nWQvefAfNH/AFr/AMydK0uqx0fU6yLGz8LhIJGyxYZwe26OdzqsUaBNcCfSp6Vp9Vjo6o/5Ivz4reODstaV3nxWqx2JWInpJW2GxweHdGOi3cIFULFw1a7Y5UdAM4Xpr5jShq5KdncDdf5n/wAxUaCM+de5cA2itLPn1UpWMJO7uFakgVoBWgGtABLIGgucaAFkrGUlFOT1GUYubUY62YvaOMMzy88ODR2Dl51zles609J+HcdNh6CowUV495WC8T3CBUEBAqAGCsQECoICBUAIFQQECoA4KggJQBiwJciwhGEuLD7oKLkWC3YS4sLdBRdiw+7CXFhbsJdiw+6CXY0RbsJdjRG3YS7FhboJcWG3YS7Fht2FNxYbdBLiwxjCm4sINpCbD2hJ/9k=;" vertex="1" parent="1">
          <mxGeometry x="90.00000000000001" y="472" width="178.57" height="100" as="geometry" />
        </mxCell>
        <mxCell id="26L5T93bEw7jJD-IDhR8-10" value="" style="shape=image;imageAspect=0;aspect=fixed;verticalLabelPosition=bottom;verticalAlign=top;image=data:image/png,iVBORw0KGgoAAAANSUhEUgAAAOEAAADhCAMAAAAJbSJIAAAA6lBMVEX/////AIL/AIM5Y8f/AID/AIX/AIbxCInr7/nwAIDL1O4tXMX7/P4gVcP4+f3/AIqrueTEzuzx9Pvj6Payv+ZcfM92kNbwAH/S2fCaq98/aMmfr+ArW8WEmti8x+mTpt3d4/QUUMIASsH/2uv/0ub/9vv/hrxLcMv/7vZ9lde/yur/wt3/NJj/dLNbe89qhtL/RJ7/UqNyjNT/aq7/5fH/v9v/k8MARL//Yar/tdZFbMr/IpIAPb7/ir7/qM//f7nzRZz6vtr5qM34nMb0YKjyJJH0VKIANrz3jr/yNZX/AHT6s9T0dbL7yuF6ZhG1AAAgAElEQVR4nO19C1/ayvP35krM/UoDuYMQg5AoIipU7dHT/s95enz/b+fZTUISEAQh1Pb38duC5ALJZGdnZ2ZnZgH4xCc+8YlPfOITn/jEJ/734TuOX2xo5sfdyLGg3bimorHAVVXdFZvxAJg6A1jfFRUfgIELRNdnP/omD0IrgW9WAjpMaA20seEqhN4RE6NpWx2QeK2x2GkOPvomD4IVwze5CQTNDUNNjoDTAqEydtkQBCqXjBM1+OhbPBCq3fRk1rZuNJmduS6ns5wM21BXZuCr2oxYS73hP/oeDwSvuCJQfFP0dShmTBP4ugp8RjUBywPWZfg/uxd+4hN/HLoP/cuL4cVl/6H70bdyDJyOaKwEPTr96BuqGedDksKx4Wj6dP00HQ0xnCKH5x99UzXi7BKjyMvrXrGjd31JUtjl2QfeU624pijyarKyc3JFUtT1h9xP7ZiS1HxdrzudU+T0l9/NEfCIYbcbDt1i2OMvvZejYEpi/cVn0TLaRNuwxMWOPvbnt+ILiRfNpHE2gWDb2mLXI06+fMyN1YUeTV0WGzNigVmx75Kie+u++MfgipIK64gVCI7LKBQKi4KXqKuPubV60CWxclxv2VwzyviUaxV7zzHyT9bhbis8CpoGbE4vsDnOFqJy9yW1SdT+ATgjscpAaDDondFbLXmQlLtPMfLP1W2e8XllK1aLj2pc2T/Hn3/ZHdWN4dK9Z22YgjEq+5/x4S+7o5rRw7CqEHFKlwzrVPZ3MexPHTBeMLq6yZbiJVryP9HYn2osPmEXS9vcgk1Vbmn/Bf3j558pbO6x5cHcbOcfiOX5iytaOjn59vQHEtlftRxcAimkGuEu736kpUajcfLlx1+/7NZqwmNpVWTQ/NhoGaGvLe/uozZsICIb/+zfkLy2+ZhmuGBQkeUQTau65ct7XbOPjaqbTDMIWV/x2TBoLl1shN3zP3+kRJ58Ge2mw0UdBghJdY/6demEsV/Z8IM2CAXNdDwGtBQZWA4TtVoskB0ZaLJugYTw3kPZAtOq6St6AlS7BQMkAtRLBUcsD91iyEjsPX3/ghryy49daIxm1mCWgCSOgOIYvjwbi4IXMloYyyDyQlex25Vm8blW5BCaxnohEBw/cXzGMdwAsGwsmx2WM61wr6nNa6xUaXQ7MysEU8h0b7u8gTmW+2u6/6XM+uXvVafOazTlcKYnwBy0By6nsgFQ1Y4ftXhW7vCGZ9ogrA5IvqD+H8MxzrhFAEEFAiQnksWOaFtJy5wBQ1GMjVd6C5WhvCUQqxAWfFFVDM7+yZi1v21GqqnLjpIwN37suk2gwOFH7QCvZRl+RzQUzQazJQpvgAY6zDhxbHDDAItomk1L/SoGXuiZBAgHfifaeKm3QC1sJ/U1gZDEvDOeY1TlO/w/KYmNp3TrdFNrRpAF3IQnmimFoEmEfAApNDlPQBQSwBIqEptHKrHKAx9+SD/6QBThJ1HjRbRLBCKz4UJv4xbPRY1sr6HQzqXZCF82n3oZjd8QcfgI/Na4xqiM24wlynSA+iVBhOkxnsJW3aZnfyOZcwLV9svf3bKiM+OCX2bStjNw2ohNU/Kfcfr1F0+/n6Bm7HXJ2tyNZrRxwJT3n4ee4hL6owbL/MllgjVIDUYJX+tQ/CcdOk5vtzSiZwssSN48JYcxawGgWCZ8+elL1xgdyL4ssjetN7SFt9GjqbQNFIF71Q05QUGHHjc527rfEaf+oBaN2Dt9ep5On+9Oq6erXxkgykHim0kk+o6nsMmGoRsOJjZUGxXWbSusPlM6YqjAPR1nHPmBvp+cQXjCyNQyYsaBzS21YjBOn9spiT1t+nIfSRwpHXG698NiZg6/mJbt6tzMTPVGY240LzI7ptYxk9baH5MJOfAdKNyi7NVmY9Yn4BDiJuCruPYru+GSorPbUfUo5IQMXBjpmUvjrPSnrlylJ1GPPxCjUvdobg7HMWl4Obq6nNMYjpOXuUXJ88CDdwiYG+AacGTTAllf0etzcBbrjM2gpbPoZbcEEBkJB75qugGE8aINJ9fP/cfH+4eX3QVcT6LnRT/mRc33fU0td8xpqQdEf2C9Ugy79xckSUlSQ5IuMIocFvPGfPd5TlLkbXoPoj2D495MYKKZbbICVEeNRF93H7wPT/aBqjDpi2F5wLNwWIQjpAYPpI/3/Eoq53Dn99sVq/yp4PR80wM5m9M4/J1EsDnPX3NXL9MLSKNEY6OVq51eYhR2l35cuLcWLCDuKxcfJAzHyPnlqP94dSEhRrnYccKhS9H0+unec5qmUMuEsIdysayuO6cnSfjFmqeJpubqnLc6l3AKv70u2mLyMESzursx60SisKvX8rJ3hVFSeu9iYoecDdvxtczmh/Sm2akRhtfnSr4iKXq6co/dW3LBKNvAw1Px/nJDTPo47EsLjopC1iFs2341KF+8VngKPJN4TVMeZ5Ah1rTBexjlXIL95uK5m1EEZQUUHphU4V2PA7wbC7btLPHqFUW+4YZ7IrFaZh/PJBov20rVKoPjOxjlbo4EPikNL4YSibrxfLn9UxHPQhq5iuH6hL3NJVPsrQewK6C4pxeCWvTsjtARooJIyCg7K/9w0CZzSUwO7zfY8YO2bYf+4tIUUmgYYjZbP4gjJp5vOPIODGl6IVAGNxG6uObdFF6cBxJ7x6QD372+u7u77r4l0D2bE/Kfv6JSrRYOocEGreqMWq/Uvgd9vJjeczvQ+Ee+G8CU8399HKt5+s8PbTtBvXFSTj4ayoaToWFyYHxql8Qe8o/MDVQJ7ETWWROqsYXjZl9GYRxvkzboCVzbRzp5MWPjWRtOhfbZw6ZDu+GCKhzzY9huMWo7U0O+3cXuMwzb6xp+FPmWYzqWloz91tiMHFn3/FYa2a9Aw0MEUilmBhvto+mBE1cvJLYYxsSOCF8pSzRhA9r+4pz7rLe8F36SMISlD8am4XszNTJA4kcsZ6VaJTPzkPumYECN2/QzEwzbVX9ci8oMNBvCC2dh56GCvHmLA71dB/5lMK7msi1T97TYYwYRYwFZafluK2N/lYE9vDIS2bN2uz0L0Rv6FKabTXRkvtn62gHVWWodMQqBejyDbPNWaQo84pdrvrsz+LW2ABTiVe6fuZqvWU345jjwrWnBNzn1cT5ihzirHiqz1C6iMOnI/sAmoIjwyiGqi5HHmOHEsYpq76DH4KJ51Za12JTTh/yEHdIRb8t4JgAtfmgz+okds94MypyKnSlt1h33xxlZ7WB6021ZTkoherQpheP0Fl6wvcRAjqVbF3xmkRsxG4g3Ff3xdnWOqQ5Mqpzhx1xg2wLXEaDq2ul0bAG+BT461F3yJ78TvSU5ZRnuOP8oO06zct50Y/DhAYAUFp9l27VNT3ZnLqdYLcCjNuTFgF89793oYktusJBbjLsKZ1dH6zusBu1wFZU21G8SKwKeDGI9FAwkxB3IoIyd3+QBbXi6zOIqYeRc6ghLdtz5QV1hA2A/zPVhtcPIQqJE3sAQXDOYGbHRDg0jzNjooH64+mW+2XFcduAFxrLD4fSQx7gR2GKkcjzA23rSbo9lOPA3I5M1x55pRpk0vztElp6+ejyMPDYSy1/Ze5Q2hONhPpRDhjGhugG5FAhM+jGVpUmW1dfHDjD0K/1QUzKwrMmy+edC+T5KP4SKRHbrjAA7/jijMIS9A+lVqB9yWU8ZHqJ6l7K0GRjLiAMj4Wa5uDmKLAXXOWdoghDYXABHiyDghEAggiCAuwIhPXqGHWS9LcZDOXx1qAN04OSjx1HGQ6TvpuYhY4uqnoiiY4liyKpQZ8yQPd7l4MB3Y6HThCwwdeDrKCgj+893gJPAtxRH0WmQiZ/pu1ANNuOMS20G+LOlkzbMXO2KhV4aD1AaNgP/s/l/SFyo5xmuR9JLofWd+ZmaFrS8fSuOLQVypkOMk2azmSRpG94dGPW3sC1cO/WTtCoOoQ5QeSOLMDzQttiMy8zI1zq8KYRWElmhbTKBorgCFyqpJOUl6sAOsrAPrY5tt7kZh7y2GQSbu8nCF/a0D3fABMtY0OJmkYe4dNwKAyhF/baYiRnkqzqQfUobn/E5BxgWo+WAH3JJuqeNvwum+ajvzEybaekmYWaKY9jJrNM7kjz44ZZ+GkZwgPdapu7tp9nx8lT6hF3b5oxEsIk8SCbTqV4w6vBQjYqvTXbcYPz6jFqcspvQk2gpG+4Ub9xsLed9n2PUxbovvROlvzRhm2v8DfX7S5dwJtGbevkzSdUTH174vDsrFkWK9/m890BvvnZqDiVt1iXCi3kLv9V8dfA98xb7AmVirk7tnfUxGr+v6wrLc09LqHWSciOuJRynRucFkWfXtzgl0bURWMv84YF4RlPs2PyqP50+3s4xuEE3Gt/qvMKBc8A14PqWKsMkpNHpz5PGSa0lQw6ax68J3bv70dXVaHqHpMLkS+Ok5iSNBwl2xy2xGJmNvHeI2LvQaDTqFuISxJZ4Gqisooin8DAaOW6XQLy/G42/D7rMKzxQEjXdEhNFEESStLllV+O7QexE4TNsxEOu8goTTGpI23QkgkAuTIOwB4C1nKZjQZtLl1NFSIZ/TNnilchjAONF2cwVIzuOjgSGKcuq70XwVE0miFCX19Xl0aoBa+dQ1NRqlc6lRkPCt/xkRqHF2TpAzpTADnxgBYGG8h0CHbQEodmxOWGA/C1Ie9AD5G5Bid3wU9QROMEDyg1BcEFnXQglEVRmgs9O6hU1IwwFe2JbanWkFGozlMfssYzoE1wIRJuDd9vibB6STnADjyOEpgLPUYEWcGNGC7lZGhMtyC5BCEDTCSLW9TXZD4xACH652Wic/KyPwGtyBHv2D3yLPY1iuG2BsFGCqMgOlIQIoG3HQbLbXJQ2rgt4myDQRAS8WY+zNVF0bcFE2RgWChtC4fub+qErEG2i7OHfGyf/1EbgGSmBfxuNp+EWOwmFbgsB4cCeFQVBpwObS4QtZSuagHI4LA6p7qmo1BGFY46AJwkcNNt12y5O2EShExKxUx6Cj/y/2ig8H50ipvirv8XjBHuQmD1kV+AcjYlQvAEwuLFlIweZlTYRx43zNmxynJUCtaGwlUIOPgY1LMJO7mvW23pQh+ie/7+3tbRM0iBk/DZDbQgUAe5HsnOVQtm2U5Hp8ysUxut+XGtDTqgEDj2dNL7XQlqOCRRdXXD2dthDSSHsM4YVp1wKOyGB5MprCnmC4xzLC2/EJQpjjmu3X48WPBRaQkUAQc201gGxCyncqoUKQWfxsRkIHc8L0pli2eZS70ercwMJ6ASQCeXODbxZNRHQmJLw+XZ2gjYTgpu1MVBElcLzmnXv011+TxRLUceYDOCzbUbIymBkmyIKU86PANU0Nb44tNjLi+tDmWdChXD4zL/UOeS/QAr3+6bGNrn29tN2QShUymQiCuu0bf7am+udGyGoqTDrKoUnB0VDrWD/fm3q7v4JKctYonDy21BYI5b6YSbd68P170BhpXBP/W34196Spj7wdlXz3mn8egd2laWm5TjeYCU3ROQPMokXUJd0mrpl6elOo48WZn6MG39pdxCsmdF5P3xBqDy605pN4J1ks2pDi1DWrWSFQo7bLxd8BQObqGyh8atOnebsyw6SCxoL2aQpyslQvLGROHAk9D2CmLU8KOh5uWlESBzKnodC/j0V8J7nAsZqJgYKyfUdDw2dpuesc2ZZdvVBPdUs+3hI4bZMLh4av2WHSzqpH0NO/RLQEHQAQ9goTgQ+BFkIGKALgYLcGwpgb9IAEsjKXFoIIhGIdb8f2UXdHj51Rf1bC2kL7OA08KFBAf8oLIvqrevQKBINQgAqSxAx2gVtDR9Ak94FmmDrqMU9ZGSowHdh/5I5OJ7LdqACUbDXhubHQjG7Nx+C/xqNHzXSB6CNv9Vp4Aup7dqBLYeYlXFleUxkZj2inAk4h9EYAm0gduaMMIR2fiqEWFm2oD2cEQcfwjotSK0MFn3yDNr4ffDSrU/YwB/cNo/GCGm1QM+BZl9qP0EuTZ1HGYUmZGIU/GpzkOG4NhO0nEC0UW4Km4Y4Echl5UAtPVlv5LMCUUiWc/L8e6Px3CWl+oTNPyfb2Z7IDDhRgBSysMVUEdr6BYWwiZuuruuujublOStgB0KLQ9/guJmmaqlTzhfsgW2vrbTvCOUce4+8Qt1mflgmwjJ+7jDkywKB6iMxiEI9dVHEaRvmlSBtInVPMOkpyO5P33nAB5nZjyhEnbXwFKz8eliZZB+iqkTDwyMxKkADYrd7hzLinzYmOkcCZ9ttyJoRMAOi7YRESuEY7oFiRA+4tuPEaVpYmFINhSxq3ZDjmk075VKg5H/XocKRfQpleddbU/JEksopvHl//eCoxChssI3SXWXkx2h10OCPvBU3Lkr2QZ5wA3Gy0+mgvtrpIHI1An7HvOmkgwGx5PddwdlkMkkf7zneaEi1xvF0b2lIIDW/vBpdDtPJtfn6aD2RWUQSAe21NrqUn1kBU+52uPUqHn/dH2IogZHEhv3zM0qS6qyZ2bsiKWw+Leo1TJ4u4I7hEerIuXCAXCdnJiMaTXRjJImIxDEJclSN9XnPcQq7WCFnMsIosv6w0q9B8DriA5yhGXX69uH0rAd6Z6cPtzQkEa/vAd+TlLRmTmZyieEXdS+/oSB1aBXP8GFeLHeK6wtMouqaBL6qVqt2Y6ckCl55/gtqOsInOX+tE7/McayekKFHDCsjV5qeaKL0zsVVqErRiyOhN6TISuhMxUKEvDWs4QFXw7p4wlSIsWiUenEXo44UPVtcc05Xpi2Vdtwu++k5VsMDhiQUQUEywzc94Lc12SjGgfOakv434oLCy0FhYIgmo5SjSRc/PDpxSBfxf4alEaYZOrwha+3Cx3uP16kbvkJ/qaI5wbdbsWKVw8kLuW3WdhseiowL2P30mFdj4EKjzhDHhWY1PCafnpLV8FxmrMAOYieVArYPh1ZVKALFW4maWMi/AJgmCrT23VBd3MQR63HPlx4fEw1QzppW7XuXhwXw3mFZ+IUY634mQpMoiwcat5hZ7oC+OF49bnj9hZLP80BHhaZQhnM7Fnk+J/MMPyi47jLLKGGhcFkYpQsFUo/VKOOWc2xbFMremOcsJCZhPGNK502LjcKYyDO7DmnEsyxU3oLWW5KsJD4lhg+UMH2Q0rFCFE+xPAUxYUXfBGiOTkN9BViK5vtgxlRucj/kuVWh4g4UFjmY0Kv85ypJKlJHx4oTHi3inJEMdVREYZtxBohC2RtbeVGvywMun6f2Mbrb9EI5MWQ9TuTQG7txK3GcmatnPfE4yXkA5TTlzNHWUIdAXJpRiGwwpqlnNv8dvr+deFmoMy1nZiUxo4aJFXoeMDxE4eK0LoYdRXWbFAX3Swo1uwXYKEJURjmFy2nt70OZkxaaJmvKliXDP2aoGiZEUWK9Rx1n0C9TU0sKgQysxPddVy0ohLe598pRdFHVIIkh2gOoFkIkIP1DaOV5R6mp/lzYDjmFIgqFYJDS5sZlG1ZY7d0gi2QRmU0YzxGhXsokpgWapqcMykmEI1FYlpLOKFRiw4i9gWxabuy7TEHh1f4JnlTRhhmFqogoZFMKB24ZuXQkCsty4BmFGVgPNGMg6yWFrwqj746yH66jsLChYD88it72WNx5SiHbnkEQahv2DpHjSy593J/CksHXUVh0w8mRVm8oy/IjCkWCZ3hV5RlmloyhDNAqXLp3cklZ+gVSqLYcHjRb6qIfKgWXXh8lHR/ZDQvjD1GoJcDTXFfzkO9RrVJ4sX964F1+661wFhJhG0rQdht+mMXtsB2GRBxmhvBjXcX9VrAyWiSOLkOkb4QPahktznJhajCiugZ8VkUWzA8tt7Xp8hiZj7OZpGEHBVRkSuUUTooCGntgmOaHxVFzPaK0Ol6hH9eOOZ7XjWhrCVI1KmBNd6G1PR2Skf+QqnybwwxSxfS2fiNfa6XRT30874ht0ErhZcg2zFzzvjjEkcGn9bjjZtMTx+saceYjJql5bThRj4Usb6abaZyqZ2dEeblbQc9INNLaH5PD1vya4lQPQAGtQvm1BuiKF+/NVeU3zM4sMBt7BJFNkg7T+TMz8XPWJMZJkoxDJ2dVBT2GqwNzZaVtLoqndz9CP05MVed9XWVdntF5U9EYnWHKhBiF4NpZufbztKyHX3QTPhNxi02zmRo2h63Y+rIlz3dS8afuCC0OwczxmhYzU6zQdBJlbHkM4SwKNsgCFy6cJhmDWMg7U0G+ScQMauZDPaZ9jHyjrMeZRL+bR/zItZwW1NyV0HETRzZAbEZ6YuWOrUiwjaJW2oTcku17j5MHW26Xb2SKTiRaev9IwcN/Kor3Tng0DwE30fITGe9poY1W9iic6s/Ym3P1d7Wkkl9sXPH1nKKlem1fyKErgRi31Bs8dE3W48m8xdZW1AaPpES/Wub3EJihbcerghY+4E3N9EzWUlQh+yXycYUb+QeJoiSJJod3NRkWTFMo6utWcUljt+su0butreYAFMlDjMIu7woi+ZcRjePSM42q3mN4HauIMw6kL1k7Us4lmn6t+T7Q9ebK3w3TjPjbx+m0fzVMM+KnPLiiG43G91uSPHQqmHEC216TCoTwo9GQKFyaVpnobCrBJ/z+gVBpeZVgeHG5INPpSCKLeBrqMpVw5xhanuG/s+lujdh96F9eDC8u+w9LSoLoGoItEOvLmPb+PYEPcUrhODbs3710J92Xuz583Di1j9nrGf5XqF+4Ihhorih+BexyKsjkbooy4vtPBUHUHJH4bRd36emILlPBMbrgbGWMKhaFa0PZ4CXR73/vgd7zHKti/rwX17RmSRuYAy8ERDOJ+I4cb7v1EZmuldLYqridD0kKtsJo+nT9NB3BNqDIYcZkrUAg1i39kOJntp5O+nnycDWUKJKShlcP+0pwLxHbih46AiA0N+GFTXXCS7yQTzxioy9v1/I9u0QVGK7Lx967viSh7EJdy3c25wz99wUSWGfavTezArMZWR0gaLrBfzWDrbUDJKi0jdCD/vEG11xTFPlq4Jygqixv1nmboBWRvryhs+jWqxKOFZhr1svQWJaB/Z5hgSkyPmBRkbYtGCET+SlduGijlTglqfk6UYRqo7wR5vCUrtz1lu0ZO/INNFA0foBWVjFNTVVQaLIKTE1RVaLlb7v7XXCayvBuAz3tv9c34yO2saziLbbR1Tn5N+2Cb2q9Rou9YWQ90AhfjtjAC6JQ9omBIEITkmOIaP3osydGaTOui3Wfkm843aHlsr4V06XXvmyJLDfiiBVDhxi4TuyzbWBrlifPmrHZ1NWvy8sD1oC/0lU2/33FjS8k/pbm8Yiv84FcI544+b5NQocy7G2BKbiAaKMFAgOt5ZicKauJzPwfSBL/XRRsRQ8JvleLM/by9Zzk1muknfyyXLJrkttJL992aUCQFfgHA9Zk0ApVUHooou8DX1bgARF2zYFfG3E5Xr6fvKLxikqj6a1IGVSgoH+KnWYAS4tY5gmdGgqn38q1AXeFt3XgrgtPjWyRzYJXu/kSFd5ybrYC5bQJsoic89zRM6ERv/71LV0X8Pthvpcjopcvsvnvz+yhLnypniIS+bJrXJsHOtB5N6cwrz45oakJ//y9un7ldviynI3Yal2JuDugd5/RePLfaWXlAUhhmE6OzWbtcIXCUzRd36Xof/77ktG3s1/CDXRdBr4pAgdKFdXkeRNoKNDc9FEwwxav5f7oPTcWyxc/LqJ5VriUrXApct4/dykpZXDIn+8oyTLTkUzxZEE10IKpMgFuGFtpyqzcdJQYBH4t9KzFz2/ZGs30IlBZjlzdzZGmzaBNLhcPz5SEZwSe/P0u9/nMFY1ETJpwgHCAEzuEFrXGcKwfGOMQCINa0jo3YnKPGlIqJoeTyFrFolIn6KLIe2QkPb9TIsqC6yUKpwWmPjPdUNNFV2BDAo6TFgFke8O6GfXhtN+QihVGvdcKRlnYnZZoaE5RNC3N32cWmZ7FAGvgMkB3geLpQJV5BarTLdMF6k0tycdv466YxPXXLJZLFIlaF9QjtNyn/dsLqTbPi8ptXF6oRpQT8d46E769aMSrI0dSHw9lGAiUpexC0rBoRnLMR4Usfb3K/B+D8s49hfka5Pi6IKyg8ICAmA9GGdQE2xCNEikgw8Yg4ZslhaM/tg3LFQW8dTWDZgsKb//YfnhdBJ76XHtp2Wr0r11k+86PU5f/F6BbBkvB8ZBfBogXTdg7bAGHDwVVzEAnjrwCnVi4uc6PsojLr8HtIgRbHuurFMr6Qi8d/Ypyy0fC9WL5uxVJ46f/clnKv7Fc7O+PNB4HIAr5OMxh8MACMq8vKHzG6bd+4jfHNI+jhxawsIAtgkHqx8gpPHCVkQ9Gj86CUVa41E1pzCh8pOhfkId6PDxluWWWY7JLQIF4aamXU/KgFRp/A1xSaOEB3nNeIXW6n9HHTkI9OnrSW5ms/Jw+dBmVj8cEp+eb5lfO5jR+zAzUX4QuRdPrHbznNE39sfpaFRNp7SIcvSuMqjmk6sPA35IU3l8mZtLHKfL2V003HB/nEkZhF8/5kuN89/kCbu8RD/M7425O4jhGSsOLoUSm1V9+2doYvwzd++Ei5Igc3v9PSJjX4LvXd3d3193/ne73iU/8nlCi5hszBiZSt3knivxfdT/1Qw4ZQmdbOpAZYDEyK6uWBhjLBb7ruiCJUYX9QJEFXjYHvCyLwLd04LdYeI7FoBfQ4RdkU/5oQjZCDhVh4LOGbHkaBzpWbLRC0DENfSAMbrQoQY1oWx4hdhwzbHkJ0xm4jOC3zcQzGfRqJW4A2om79UofBXlmsSB0EgfYngw6IJJ9QhOiSB4YgPDlNKHXdmRV7fDgRmU6ygyAARFFA39MmP6YMw0XdNR2TUXOjwELTS7DpouAE4jiV3Hc8gXAWZbuxiAwXRSrzqeF+L6KYJwYjig4Hi/IninroQ5fsks4BLBrDtmqEyqK/1BNlQHyGPkNGVWEe9DuFT8AAAA0SURBVEwfHdBEoKHDqBof78MPPnpj/fTFKNkrjYhcU6/v94M5/oVBLp/4xCc+8YlPHIT/D5DSQCSocBt7AAAAAElFTkSuQmCC;" vertex="1" parent="1">
          <mxGeometry x="830" y="216.25" width="140" height="140" as="geometry" />
        </mxCell>
        <mxCell id="26L5T93bEw7jJD-IDhR8-3" value="Personal identifyable information" style="shape=image;imageAspect=0;aspect=fixed;verticalLabelPosition=bottom;verticalAlign=top;image=data:image/png,iVBORw0KGgoAAAANSUhEUgAAASIAAACuCAMAAAClZfCTAAABNVBMVEX///8AAAD8bgC7u7v8/Pz4+Pj//fuwsLCsrKy4uLjm5ua0tLTv7+/y8vLT09Ofn5/a2trHx8empqbMzMzh4eH8jU7/7uf+0rbBwcH+vpz9mFr+zK39waPQ0ND9so7/59v8hRqUlJT8YAD+4c7+28z8aAD/+PL9jUD+yrP+0739oWz+u5j9ll/8cwD9uY6Dg4Pw8P8jEf/GxP/9rHz9qoL+xat8fHz8kEFvb29RUVE0NDRgYGD9fyP9nmUjIyNYWFgVFRVERET8WQA6OjoqKiovIf8RERHm5f/8gy+uq/8+NP+6uP/W1f/Pzf/9q3b8hDZ2cP+Dfv/08/9LQv9WTv/+/u/05cbz6db10qPVYgDjgy3107PrkT/lwJP//uTrbADem2TwoVHst3pkXf+YlP+dmf+9uv8/hyefAAAe4UlEQVR4nO1diX/aSLJuofs+ECAuK7KMCLBCk1FCwIBtbMdxMhMzmdmZ2d23b2fP+f//hNctcSMhCYPj99t8mbElWeen6qrq6uoSAABQVPA/hX5/RQQIgqAoYkbTV0TBgRxBntY3ErP/V9f/e/EzQfztl18B4VCQCPQv4IvT6wTiLiTnv5shQPz8p+af/wR+/uWXn1e4MKyL8K8AkPDffzd+/ctvud/+9D9//e1//2YC4ZK8IAb4YMha59zgXLoZ9C5v+zf9o9+FfRKN4tGvnAK//uZC/JbL/fUvfwdgQJ/z/TpzY1nnutb3bgXPqA/B1bFbmtMoR8JvHvnCqWC6vzV+G+V++8c//v4LADKmY+qFOLCsyUSxvAHo1aU+uDg2RcVczPbRkS+cCr/8+S///OWf//yVAMj2cx7oEd6wT9M9dthjPCArigWO3tCcZ03Rr3/6GwWQpqaowHmMEBji6CbteVNEAIeCHPxMIReSAkToJs0Q0kNsuk0Hh9MoRaI7PfKF/x+hVYlE+6ksmv2y9SyM57NFrVHw/dG9mflAxzRNZ7EGV7KfIjUocw1P+0YfmvAxHdtu2BkPbDVyuVx7vlaEa43Cge9tAWo6WkPOBlQxwLGuuILSPfp5P4bP6CTtu45ROej7F9/4D52zIBDg5FrHuEWAXsD6eqcD7Bxyad8e6YKrGKHWUXBrAHS72Y7MIbFr3V83fX+cO/URwc2XR7hDhE2jDyl6MgSORds/KZugeJ/tUEiRU2iUKUBBdszCafUpKJpJOqLICZDuePt1de9rt6Ay6bpObZRzKDdbyAwqL3tMOd0RVEnNKjTLAEyPTJFz74ZNGTU01M7cdNqvejpuZGwjS9jwGu1K03FN4IyyUdRCb7B72iwVHbPsBmrIzqjOUmNGUatQCjlZSFGqW65CCbdP9+XIceEPezyCD3hWyXw01XShKJW7JQfeRm3PW0iDuRS5pwspSo/qNWpl9vW+HLXhk70JzjHKavVhw2oi018ZT0/HlHl9ts/1/XF7/PDgd7vV1pkZKxMR6rp13Wg0TlN0QEKGwP5y5DTM0Ja1x9kP9kG3EVy/WHGdUnaKIdBVKdhiinar1PFj7zKgqDiF2ie4XtjQqDQNbc7QYzgK9Efpvp20Y+T1IcG+m2va4MHd43Cq8gBFCILqPviVohP7CCFF03KxaDaQl5K+oSE9NEdmjqjuFKE5nUKf5mQvEaAaLeA27WIHvqnRHq9ojZOWbcaqs5Ci08D3KoGQouL0ulFOusJShhAycmS6vok8eLdYrLr+fkNk1RHwm8BE9qJ4lst+jjWKSrYZ67yEFAV9wCK6DKSIytWgEU5wd9YZysYRdXI9k9WggVRH/j69Hd8HDbPVGI1BswxO9+gIwxs2H3yIFqLoLIGiJZC6RmFre3dIrXS9ecb0HLVcvzjyXyO4/uuTk3LHdUfTh3IrmyT8oeZcg/EJ/HHSBm72DlogRbNoJqSoFXuGKIqQj2LupMhpbHMO5T3VrZnQUwRutVSqVqvzX6ZjljpjN73lrhWBfwL1g18G11TZR952NaMoQorK3RkgRVUbdKPt6mZ4H1LkoNDEdKdMOI3aph9h2o10wo66HS3frqAncmEXDf4q+7N7Sf2U8BZrTTBF7RX1gksNKnMHBFLkzAEp6hRB823k9SnXX8MI6mzbhZ3n3eevNk43dNF14yTdrdW6sClPyzai2AU2smaO6/iFEwq+1XSngAfCbuypbSIV1DqttE9L2buxkKJquYZQrkKKuk7roRxtOcw3awhbZDG5vzN6g35S8+Cf3UirSfxWZ2qbheAdzDuvI7dqdlyqldo/QsGQVhF0kdyZncBr2IOi4hwBRW+7fvegcY6AouLotNEIYjd2I+mAOdrVETWuOKOwoc1Odlaa2p1ueopGfhiLqIRHwBWzkbEPAimCOjqADUqmT1UfOt1oX2fPvIGAonYB3pyPNHt6iqqNdmvsl/zXL9+8yc1k16VytlvMpQ8cmu719fWi62vCleuHbPe/SlELUvQA7FIxhqJzEggC0EmgozwLgiPyRporBBQV0ClbiJ30FEF/ghqNnOZDd4mRCftbLzP19teGGPcZSlt3Hc02sKsxFBmCzGl1XtWtPC8DWlM9lUlzxYCiCmq7LWQUM1AEO62O87DGh+3azll6e3YQRFE0jfQfe3SP5oAMSBpYMtB4wChKmis8giLQGY2669rdbo4KTzycFhj9+QqiyGwVI4VIUIAg0azOSIbG1WlcAnlSFlNc4TEUPQsgox8KDTTLZRupMvPNQa/QySEdgigqNeDSfQZFwpOAhr9kAFT4S8t+bcKDr3NlHerS4FSZACnqVgpnZzbwX9ZGxS5S14nBS1HPcolyAQKZIBMtZOmuczih0ZrQlxWDk+u0orGAtGTBk9KegKR1Ns/JrC7LDEtqOO/lNQPIbJbbRxT5RbNUKoE2mJZLsFdR8aMtqiApJEmKSl2XOFoFpEpwqXRRRpDsinMh85xVZ6FxYKAI0ZYkA5UjtPTiRFoqDneHqoEVZTkvqwor0szqHsaQSzrJUl37b8/OqlAtjWPSznhFVnXFkPM0L1mCLHOMLKS+1/QQb7FLdm4pFQ/IOCcDhskzddrAcSBYmpKBIk+lZdywDJ0V5DoOZZERNYWZt7V8D7uwEt096qE9x8xQmDH+OQ9UVcobOFmX8gywelI+m7ymhkDfYfzW1s0k6nQIcormRoUkwkVyxgqNXaVusqnAAY7AcYEjBEFQaZLjhUQR3Q/KJYblF2viY5KBSbCSrw493/VzcdgAs9IY5ScBkbr/ogwwL48t12UOECR6++RSDFIDWjNuxrYBFDy/ITTnhg6vluKUKh6Y1mNhCOkRedRQUwASBJWD11tu0VTOUg2Dp1lL1/KskelWeU62FI3RPbnerxsWzio0rWoMPntd2iCQ2WSSVFlnRF5TNUujJYZJ2h3wqR52DknFoaHGGcYyNIavy3idjm2giCDULrAVX0YzYDenJxk80KB/5EmZFKCsAY618pBXuKThhGxJPA1UZkaRgCGDow8xL8HwGCJtcWyPBegu6okU0RiW5U328B4rkLC/wrKiJ/EGzWkxXpU0IwgIgxW9jOdFi82z+TyARskw8EwKluE0WZFZjgUMrbIGyUisoYK6Nn9JM5uMSNopSaoAvDzrGQA2uDqf9JaYoWEMEzkSxNlTCjiAjgJjaKxskDSu1C2dj/Rvwyb2pcD1U+mkFZA9S6bZyBcmAeidJL1KAcOwyTDGf4ky3V+WIAShj/Wy+HkSduf1B73oP0KKkiHC9zJIezlIkPzlp0IJPayf3o/J317Eu7CpKALwel66i0EdJKfb89jgetgwbffTuBQiHNwZ0lAkTm6InpXmUs9DguaAzS2lJLFD2NbyMX9MQZGEwUY6SeEcPC+CEGBzS+7ZQshDKElYzJ7JFDGBW3CXaJ+fH0EIopWmuXFoFxqL1vCJFPWx4ApSwtM/Hx20CRKSlC7QY11F2uEEioTzSRrzXZ88RwmaA5J0mYqk/k3U1t0U1bE0hux5E4QASZqkIWlwGbFxJ0UalsLeSc+eIAQCklRP3u0iwn3cRdEwTsevoH7zXHXQJggZmyTaHDLiaeIpEi4uE4XjGTQxs1KIxUZeD5mCJG7bhYylKI8lOovqzRcnCISJFNEojrZSXbREkiRsc4c4imQsaYhKPU8mqLjyHs+OUiLlbFcGazUics9gt7ufTMU2/KgYii6T1JB6m0YH+cvEQOd0ryTiJJztGid8GTm4oWG3O1M8mA0XMpIiDhvulg9EUGITK3XKhVG5M0M399DpHJ6lPSgCBLObJOtu7dmiKDISBCRNEwPg4XQ0ct3lzEm0eLr/HK0YzCgyO1FDqjEUASQpFztIWnchIyiydqshSFBySByqITQD52Q5Jy9IN/X3mZOwEyFFrebZSZhe0F6C2kER6pHdxZM0Ga6sbFFETC52xetgE0tDEKKouE4R0kW1mBIK+yOkqAlNQTswDdQiH5baJUUI+G08SbcrLuQmRTq2qxqHepGSIEQRuuUVK4YM8NEogv+/DhTdMgu4m0QR1CgXVzGBe3FF1xjrRLK71BBsYumHSyBF1CZA+UgUlX2nFWYvFJdIpgg+/tVd9Dvn4vpeXmzoLbUOmgPNot/GkXQRKLVnGR+dRSZlZ0UXGTGRe/SnmIahRFJBTs5jx1agDsqWGFE8rbW2cCR1XXx4W3lbCWyavcRCivRBfGAaAo9+98bF9jYpXg2pF1eZRm3BTF1v4ji6qDiykX5uo+S56hIzisReopMLe1IRybARfo0VN06int9lT60pRs2EOg5FldnLuIcWobWootOaUYRjd302aeQxP8Hinv77bz+9Tzga6qD0BC3yrZ6Sohez5TKatL3EvKHd9LQJdpuUMBgT9vru4yuIf+0iKaMOGi6SHJ6QInemoJuQomptjnlDgwoENhq1f4cN43M0gv0gSZtR6M+vfvj2/fvvfnr1bdxR2XUQOw/lPiFF5lxBb8YSZup6GN6SLk+wCy+/IxYvbY60f3j1IfhN/PAuWo7wq6usOoggoWMfNPwnpCgWM4qERRKYqHoYdsnEdx/qk1WSvnn3ebZEfPwhYm/8IqOZ53BrgGHnt6GxfEYUrUPXBkiY4o6Zp0UhfLeUnQ/vvtncE7/KQpDC9iA7kx6vABILhxqeiqJd8/0iu/8Iau8WClPMEKQynHsJ//642Pj9q+/X98KxtDpIULTeBYYNPGOmCs9n8dwnoghMq8U4tHZVbRG0S+zOUyM1kz4LdcRTZKTTQUJeHt5hFwNZFZfWUj6fLTwVRVTndUwx2NedhFmaZB1qpoEWb+Y+xDQ0OkUTEwzr8gq76svSpuarzy9YjArEdg7eAVmAmfWwUXa0kH7OBsdAYerFBMjev/vPfPGnfy220lgCQTqO1M55j5YSRrKbbnsT46T5yfsDZeGpNJAYQcirerbZM3XvFpvIUbT+e+4PfV5pZ/14HSQqDNRyUO3gqV6S4/9hC0csOERbkipqDFBUxVLj4xUxEPghhvWMrX7KD+/+/f7HHz/9a+Yf7TqDpEHv9GpgGeKXHjiLgUCqPMvRMlnXaAvPTBEEIVkX28L073evPr579VOsc40gGvIlNFlDOX+MeTQHA6FKUICgkhRESRH3nejA8X1sZYj1++++Ad/8/uHDJwJ88933UQfohneJYRc9TXo2cyueAPV5HPYT6sHOGtgHuPjx0+pupML3zpEviO8/S83S0CwNfTYXAtmbY8x4i0CdPIi8f//qX5/ef371039+//0/P736/B4qpJkgiVDtXGF3UO088kIap0mSbNGMJpOWhhuM0teZI+UAsDzBsIRsSECVtLrhGUB99IX++Ef089MPH9+9+/jDp+UWFM4YyuohXoOsaKzB5aEUsTRJsqqs8AqdbUpD+mvlmbwM+588kHmCFep6fo+5t+v49tWsXf34/v2P4dKnmQtwsLR7z5BZnENTdXhFphlLVry8zB8nq1+xcFxVmDyv9nmCJy3gPbpRf/5pe9tPn7e3HQBP4iSQIprBBw2ZEE7NIR+fFvbHCDqiaPuyWFQIdMKqskEhlVRHCo/WFD9+jHAWP3z88bHnPTByuUZQC2+Ua1RyuXsT2I3c6ZE/5KSrYWfv/bvvtv/4e0zs8cshKLhH3Y+LgKpRoNVAAx2pCyZlA6nkGa8P/RzsJpwz9f7V79t7fRtSxDGSfmz9US3kGvd+ECxxanB51I1sP0HF8PEiZlZFRc8OLEUCV2eskJpLjzGWT75LiqQJOuC8bzF17jhdDmdUsSlg1u6nNuXnfLhc7LiliB0Rh+YsfNLyw0LZByq2Twp52hreXMHOw8DTDH276/lTRLD6h4W6JkUd17wB7JndnQ8tRuXIQ4qVs6DjbOTOxceJ5Aii3HGCuFPbdZxDfKREqLNWfwCpwQaebChcxJOFfsnvrz5//80avv/8aluyBN2QveFVMKvRo9XDNMDKMiJCLce0nZg6/CfNXCFXMl+Pqo3uYz6YxEm4hQJd2N1lzzK2IoELEMztJFz68O7VBt7tiIhAZaaFyux26Gmq8pgGuFk6ct5yatHRtm7OQanVPgVJ3KOwMckpuOVNMNSg+jJeT+iP1/vYYDGg/OOnb9fwKZXF11XaG07u0LuAYqpze/jKG1W5WvMKSNHNqOUuefHdzcp58cUjSFHB5R5qUFc3fZmX0pSZEOQrzJvHlR+phglSUJEduEPvpqexyo4b2NKD7bnSCarEA38R4o6sw99ezR81N75mQESkSRGKwfQuAxPVt2iFSx3GMYbY5SKey11GZM7sBZGTaKt/gxogEuOosJI12djQno1tUaeBTNx357UzIylaa5bNjXzbwUrSpqiomje8RWqz7/H1jGqT8zBsWQWM6GFe3PFWljS0tUsEdgJDdqJn4fXVYZeLjXkS3Zm27rQDGz6CDayE5ImKHhx5u1Jee6MpyuhNC7BTb80tCq/uUxyG5G+w/koEQsaG82bGzcK0S17wW0x7VFdcrONy/zJ4lz2Ll5CYk9h6NuVZ+DUWKgeaZ0Fx21HpFFU0iymAaTbmDdM+Xa9yqWL9QGoe6ZcoPeycXjnYwG6WUYJh+H6JyUpbQMP+j3cYobJk5d7kItAIm1O2wnkt3bA2ctME3VN71LLNQtncyuxAWMhOZaOZWdgl9EMed7Okdot5qwF95XxVv+nYXGAub1ZYVIZY71C1jEgO+qA3KwNzTrNQcO/R9Cg0LJsLvEHzDbAr4+moXalspP6NA8pmGmjmZreXNLKZ0lMjkB9igzURF4bruWrD5ZzO/trEEL2Xdr5tGlhrmafoM1r3ZdO0ERsPb84WrSvqexe5wOYVg3LRjhvusNpH07Hh/mqBs7C79QZDehtaWl+lxVtvDKKF3WQuBxgJ8fx8qykUczNH2ryfmzcwjnIcG6XgO3Ot03bNbyD757TstW4smbqcwwYIfIL1NwbbtK0p/cO1icEyti43pIzdpiqVkQA1Kgl3kbHRnJNVjuxb+OPKGaCqzUqrW/Xvaw4oVsZ7fRhjA9DEX2gbDopxdbEZVuc2Jl0xW5P56KurY816rc0Yqc4+gVSLz3LxG+0qUtiFst/wD/H9IYI5x3qbz6pHpbwON/PZ1e2d1JtjFdnp3AechNFWUMvFPbvdQFVp2/e1AiKzE1H7PyNgJ2yy9ZzCMCozm8O2POF6hIFAtcmOUqqv6i5Z8WO/kjYv7N86CZ2j2JBJOgjyXcTjEB7Wi+qm9CMmRehRE4a5PtY/xijq2cxCAaoQ24Gn3E0zl/nThStQL1c6YUsw2GWkzt/URPOtUbUdBA8bHGGA0HS74a/4wvetbSXu71kmH5p4LKr+qXF1FZNF0oue7UHeDaM2i0kTbvcCVYF+dmfXVz/9iM+O7POFT4I9j24Kyk1svpkQU4YGEDcx9cDoi0yV+9KhlXPbu6L1hdr8k63wX7jYyh6c3eyELUY/hf6OUgS9+OlZl7cxNsw4gnmjdgfry28DNB/AA+g0w5WMmYBbnTAI7hb9JCysHx9MEuOECGF4EXdgfZBYVfKZoT7EJtsaApURBTQ22eWZe/FCBLY6I6vQh1h/T5f/6YE0tBX1KAMeOoEXOztYYkIlB2uzIsTqsT3s8pHmLU+A2fiAqoRaAd6tGpmFKgUZYJJEwF2zXYQwJtgw2lYRmLp7liOEt2sONQK/Y4Ysqpb0uC5uXwV9icMBZ8B3nFcFnJCBSCtRxMskKQCB1kiyJ9Q5UNfJ6Gz7Teg97CL2awsqljjLUUiuSoRju2w8SWOZZxitQGYE2ZA5TSY91pBEIc/IkHctyhZYGscQDM+QhEUqlloXLDFF7UT6BuvtEDoDZQ/vjlF6UcWwNiCFoaVYaTEu9i/sZOkDkfcUxQI91lAIWZFl2JakqBJVMhIkjddIoEmGR5OgpyT5ZxLshAXuiX0WgTBmJ1k3W532VQhYmmatIJeBxOJ3UPeuUa4DjhA4lhRYhQOqwakclGojz0ecDd5pndV1nQA6yUqAVgV+ZwtYdsKc+3HX98P/VjCd+wyx7VWF7cOLdKC3r4b1oGLbtYfy3MybOsQGc7l/KFXHVKvi2JV116uS9Iko/AKas5SPJdz1ALZbOXLZIriLQAIjgrnaNeZXQM/GRTfesG2R0fcyf+EbnbCp41YfRq3xdKOfV0rq45EYZ6XQRDNMLne5mOEJreWLS4Qlq6RW5zROZmRahgrD0CScY1RFg8uKKuc1WZc3VJKIa6TF6KImsZaobSsiJvCUAYqzrmmXJvXwothxzdrGFy9bid3gvoUJJJMm4VZXDQZLI3EadjEzb1aCRFmAlhVPVC1NElgRyo8MNFpQLVZkCYDLgK5zFtgQJIUFDAMsC1Xtl4G6dT+oChHshN3QGyZqWq5G4iGRIhW7hT55mqB0bzIY9nupvBD2IhygTPK3IEVGPq9JnqzgNKmKwNMtFq6yIk4AVgNsXpeVDaOuyDrLAFkWNCmv6VvzfvN3BHOx1QmDmHZqkWgnUkRcTbQjdLPUCTJvXILqIuE/XSQ4qFV0EnW3NY4gCJ0MPgtHoA/ZQcu1IQ0KLwERCCAvgDpR3zJng1tsgEf5OM2YCEJyQztc4vkGpEusR9xkdChTvCxx5z7kRVw4YxoTnUxU19lQPDsL/S/7LEWZOOj036YuPv84FKsnrzthDUQUoolyzyBF9rxKD7VYpA5MUWnkF5r+w4P/kPPb0+REVdLDooshHxhm4dRtFu4bufBplcuoYWtI0YkflldxHchpuHhoil7AFzF2isWi/RaAk6ShB2mCXSb0fA6D2mkhkGmn2riPj/Ujimbmvrm614EpogA1riBUASgnjWDxR/l42DZqy7qHzjR+hBJRVFosmi8DtGKlaBb2DZF+kOXF6vUTKXoimGvfYndjv4O4QVFYfbMcS5G7/GpaO0PsNztFZiQO+knPYFQW2O1KUKbAji3Kuk7REjEUvVhZto9IUef0/m1zE2/vD1kRtHiNOPFPK77rIuqbcVkQ6xQV558bjqboZeHFyprtFtJOoshMUbvS3JYY877yOuUFU6AUfPI44KmJ+qdv4gpsrFN0NouFRDU0xzbb3ReLEki2WRs3W3a6YriZKRrbdm5zt3LObB2QopMpQK8CLZqonJ19GqNbUzc0+z4ok7mii5Cb027H5hmsYg+KANUcrx5FFeDTlA5IkY9EJ8wxCsq27KSoFpSfcUYOcBbFMLco6tjlB9t/2DpNJY1d24ciALruMoZluyiB+JAU1VDCYznI0C6j2WqluK8fQ4pa4xBtCrQq86Vtis7uX74et7ca1hEpgrzMdy2HbB2SIvsa3bk7tYu1azRRwo+bOZO6j9ax2/cv395vKdFjUgQ9uiAbhirMMhQOSREI8kicwvV1oPWoLd03RzemONb9prjEFco6JkVFKmhsdq42++T4QSmqBbM/oXIJ1vzISRHhzYzeRmC09RhfgCIHtS57NAp+BU9wUIpAc+WrDLXTHcF6J6p02DajX4CiMJGcCm+mi8zzYSly3AVH1esDlEN6eooe1t3dSvfQFAFnNGtdocKOhS6COkCTUMIBg7iaXU9OUXXT43Jbh6YIchTIUfl0J0NAZMhLIAu4yBh1YHCclRfxiGDEU1NkupsndhrFQ3rX4TlRW6slMIQ+4yvVGYuTZYFneEJjgMVFRHERRdXm/cpXeppTFGE6DkXtkruddWaPqoemCHI0Le9uZQhqDww5S8lbJM/pMkMDT4kY8gs/TfJiZYsd+AtHoigXJbS13EnE1sfBGSUzBAgOKIDkBcGQ4E+O5Ek2oqG1ml2/679Y2WJP4ZZuqpzKzBSVGm5Utf1I4h4J53DnNFGU5MXKBrtiwy2p4iHPMup4JLxYWc4SUltd+UpR5GFOs9kszaLDX54iSda2B1g4qID3qeG4CXclDamSnqJxzbTNohk47uboQOVM9ocFBJLVFFU2FBmab4UxDEbmPEtQ1ci82EwwV76NYacfAaH8QqVSCD/zl5i5dHzIQLE8ibWAZgFDUjnco4HO5wmcfuQM2aeHIS9G9vOHHHs0GEbRcIlhNRX3lDxteDwOvR4Ch47hExWMPBRoAtRlVlYUTVCOUX+PANAbRKkkQFtu2heCvpl7EaSmpEtd3hsMq2jAAxqHa/whKQqSG5TghLOnIh5d/ARYksWLJBBEQEJ9FqSlwk6KwsBFMjmLBu4aFKeX4aFchpnEmqRrhAcYqy7T9AEpgp4ySoaETBFEcPsioEkpWN//KpYo0wZU/Zri4aqcN4Ci9QyQlzmD5pOrdFo86CmsrFs0o3OGuqP8+jpIQSDgExAkyq/a+963QeO8lZdZVobU8x7LcKzakxiVl+uRWe3pYCkki9IRUBol05PyUCCg8tfzfL4nJieF8gyel4I0Q4PRDa/+pe2GhgNWqVtAZTgesIBWof4GsgVwnpP2VtcGCiflRUYWJSKv0jqQGI1Hxb8MAycTZylCn4MwLJz1VMtQDNn40inWeB6ouiIxtMKphApU3MBVg9WhneOUL3pv5Dz37ymSq77iK77iK77iK77ivwr/B1HYjFK2mC7UAAAAAElFTkSuQmCC;imageBorder=default;fontStyle=1" vertex="1" parent="1">
          <mxGeometry x="780" y="90" width="190" height="114" as="geometry" />
        </mxCell>
        <mxCell id="26L5T93bEw7jJD-IDhR8-11" value="" style="shape=image;imageAspect=0;aspect=fixed;verticalLabelPosition=bottom;verticalAlign=top;image=data:image/png,iVBORw0KGgoAAAANSUhEUgAAATcAAACiCAMAAAATIHpEAAABpFBMVEX////W3ewAAACwvdnd5PTZ4O+tu9b/ih+qt9JzfZGRkpLb4vG4vsve5vXS2ejX2NhGS1KvtcGorrmDiJFGTVk+RVBrdIadqcJ1eYH/vhYuMTN5g5Y5QEoyOEEUGh+JjpcgIyTIztxWXm2Bi6BjZ26OmrCepK/t7e2goaEAAAgANq99fn7k5ORgYmRAQ0YAPbG/wMBYWlzJysqcnZ7L1Ov/xheGh4kBDRTn5+iNodQqW7qsut/ExMRV4jxzdHavsLEzNjkRT7YAMK4ARLNYesXMaQD2hR4AABMlKjFhZm+OSBLIlxFbXV9ng8hGbcBzjcySp9cAJas2Y70AHKobGxt/ltBYDQAgFxGvVgCbSgBKAABnWQA1KwBLPgA3MyEiAADAqzZOKQq6ZBdGEABxPRE+HAAAKDt+PwBrJwA/JxLGZAAXAAAfN0SMNjc6CAgzLz0CMAAAHAClQED7YWBtKCncVVUhYxdAqS5PzznBS0sORQUziyYXACIAGh8mGzBQFiJ7awAmKwCogA4oHgMxAAAADwA6nCsreB8XUg5gTwfapBOadA1MoIHAAAAMn0lEQVR4nO2ci3/TRhLH5YmEg2XZjvNyTPAjAcuyJT/kJM4L2WlI6kDC61JIWnIUCqXtFUpL7+jrOK7tXXu9f/pmV3ZwuFiWqcXGZb+fD4osyWb00+zOaLQrQeBwOBwOh8PhcDgcDofD4XA4HA6Hw+FwOBzX5BeQrE5WDSg5HFhy2vn2AQkgWLhadtJNBXhjNg0CWrUUNiuahsKpqtOBXLcjaLCIyzBAWMjmw4JgWhGjhltKVtnIkgP0fARXVCuRyFfwY80oWyb+zVtCqUz2q1ZFqOTxuIXmF4SaZR9CfiOPKxX6ybRKdAv9ELCEVaOUD5CjrIU3ftJ9QAPat1lagPZvJUhsJ4Csx40ERIii2nYDDB1SKSgIQgRSBuB+IaFVbA/UwTBwTwlguw4NgTR3Qr61EhBqYAik9wwL25AwNECd6oDf1gHQw0swyLplNYPqFiGngm4TJl5RAFPI4z+hhMeAhlsCtCOMowQoYzZMvqlDIl5aVKG6aO+uQFwXVuMBXGngiobHUoFR2ywVsI6/WEhAJYy/XbP1HEBe0c3QtlfpdrVUM8l5BaBQIv2eHRcSWhh7wQp6U0oz7R/QoUq+j4qpqqqBENfsHxAadCWg5QULf7gGWdxl4jE17EsLGglBYeLBEH/Tp9wXDtvpAtVNLdttLAtQrmtV9AcLNxhqUzdI0bYHZSFlf4/6Gy4XElV7j15t7QDac5bwWBPIRVEPv11AT6ZOVofFVagwOOvfjx0XdBIX7PxNrRXAUqGOqwukHeGGcrXe1K1aLem6vqgvvqpbRTMW6R50s6Yj2h5ZIZE6AQJpoqlqjRyzuNjSrQaVPP3/Bw9NM3W9lqhu23lvXifNp0xbkFCvYqgkJ499mwqarqOSpH9bQBd5RTdsrdiaTYzIFa2uCuFCBVsoWdFglTRWek0CtH9bqKgt3QSopwpMTvt308x7UTaiG3pVwUqgmyW0ggXlKghVqFtx0nLJgWFsWfV8g5x+4qVupH8jDdvaBrIxAoBt1iBhhaxY9jE09hYgno9jwz3UzUpUsyzO+vdjWEiAnkXAMAU1EGmUSyQri+MfA50hW45HyLmZkcICNqlsJL5NmrNlNNvXonGO/g1b8UKAZs7Zcn27Zq/Yx5Kj7V4sW26Uya68YeuG7uiYbHOOp6aVWZswgJjZFI08nN7I0m6Q0ytqaSBvFTgcDofD4XA4HA6Hw+G8zagrO8vra1fem2NtyMCwdAMXV3Mt1oZYGzQgLL+jzhWLuatziqD6VpZzuYusLRoMltev5XI7h89U5taLyyzNGRiW19ZzK0c2FK+wsmWQQN1Wjm5ZK15jY8pAgWH02tLSUtvDT1+uyM6cgWEZg0Iud73d53aKKx0P5zRRVijtm+ZyvId7LXI51haceJTjYsByTnnjhgwYO9ePubW6cZ3rdjxmPm+vvJc75sZKaW0rVPggo5egFkalOejtWm7J4UgzXxME/Y0YddIplaF9gJ8vd+S2Spkj+I58ow4LXLpC4ZUpSOu5dpX+hLlcsXj9qHBqxXG+1x+ecOCYjSvFG22flnZ2rl5ZLx4TK9SFt7SrM+PHe81a8ZUebm3tON3ISOq3UTmzU1uTc0dCg7q2fqy/CWQUef/NOtnoTp4y907xymG+tlIsXryY61wuN/tp1kmHTs3qjG+9mLu44lOUuaW1Yu6q4KRb/u0JESadeeDIUrH1fOEGSnbtHQf31HcLb0k3t+pm7O3Qe1du3Ni5Jrs4tDZ4uqk9Dz9e9SRlLQ2YdAs3b/U2m8ejyWY1WPXiZz2jtOffa06IcqOH6tmsAh3yHv2yJ5j7fr//fTon0s0VX/VwDkvXWHNCKKVwUdtD3fw3yXS1D26ztmggWDz4My63Nolu/jvYLf/0YRdnsra9tsk5KzwZxD4so5N9RGXzb26h6x04vz1hwftptDqc/PpS4QX2Z6Mbtm7+m2T+6GBOZ3/D7BKV7jRl828cVxHidMCOCnfv4eIsa1sGCTsqHNzGxUcDkwewRjftZnrv4OD+pUsPLCgHuuD1lFC9mwGHsLy5uHVLuElk+/hMi9Nd0Lyt+IRhopsFLRLsuuPa3n7sIeoGk0On3DE06W15tnDerSWnhtm966Hh9+9h93ZvfGjYLUNjXr7RI1ztwZIJVnezi5/YCcin549eyGFmDmedPuVat2FmDkdTkM17l96dHD7TxvDkGQdmG3nPujgdhocn2zj66f+YybMRroJ3ChvvbsViwVCsjVA65syWN7dCBjTqo6F6/JBUMJ2KO1CvQ5yFctnP/H4tqMiy5JPb8EmyM8pIwgNrrC1FEWWfIr5EkkRnlIwXlnTD3Pdvfqz4ekfxomcB6XUsabB4x8hf/Jufi+S/d/Ku5ulI9gpdKpoXutlXUOpMSyzp5VKJsNCtsmfrJmeSnUnLVK9gMogtOJ2Mil7qJoeCnWkKJgdDaJISJIYp40zeaZPaILqJ56YnOgNBNFcKwiMYkUPVR49HZe90k6JwtjOQpsJ98QRNUra+hIzMSjcVplE3CYYcmEChfHLsq6dfbSmZr5/+FZX2TDcxNelgyelzImkbf7vwbEwJfnnhGxBZ6SaYDeJv8YnznWlEJWLt428fJ8U0fPv1loe6KYXZzvdZQzMxcgUz3134fgYt+ebZD+x0U4luUvpcpDMZGjnEZCQp+uRoJOZlXJDSzXeqHkskRLu3LfgiLYlJ+GFEYqsbquKAbAcxma5IdOldXJDEzuFUbqZMoiySFiCSJTvdXit/8zAP6dESJnkIsTYkO2RMHS58yIt7ewi9RuKrVBk9/cpWM9FeyVS9eGRfmU6HeiYW8cASV5iWYcCYexoFK+/No+HsrkNM6ADbASWO+dsrzHj6ilMYdm/JaebPLcF1cfoU161JpffGAd4MEtGtbQOmx13TiBvbzKQrNXoPY9KoF69xViEz0jNbrF4onc/IvUd/0Ys8JBtTes6IJE8qgW6wdXOq8Lbcsa3q5Y1uo69xBZUES93EkUxn7PqbJNHyl0hrX7JnuklSujPNSygrtFInKhJj3cRYY6YztP7mS//9cTUtyYWfISp5p5sUhERn7PqbHIPxkE/OvPscDWOqm3P97QytesUePf0qpkQf0/qbZ7qJ8fMOlsyWSfEm8903zTrSc5GtbsrurMNTyjFat0x+/fTRqDgCn/5jTGGmW6StbvnErlsy9bd0IdWZmN2rlCGC3cnY5ub9LcmzuCCNdG+noeffwYgkzjyBpMw4LkiKA2Iz9yC9sUwGtX72d1IPMat9tsR1XJBGSGwSg2mRdTx1lbNlYtiOJshg4M0U6rb6QZ9TzmYe0jlXOzSlKZ/ENg9xl23KwdsziqQ07KHnqNviixf9nW2UHRVfI3+rMtItDCMOTyzbmP5wJhiMPrRHMO2XBCHyor/ja8LVkOJUrz9umIMS7Xdv4RpzOxJxemjZ4uDF2bPTsNkce57Cbzb6XBmpAYDWY4UhznSyg5v6G0wMDQ3fbY3Zf+hRWR8mXY9+O3US6m/dIQ+EaVTw30en20h6ZMmw61Ig4/qbaZTLMN2d8fHp8SoNCv+8j8uI0P/6ZS1bA4cBF68yVs5mmU3mCkN0ZCTootIVzIxE6bjW/csH6HC3an2fgLa7NTqaHO2NBiufc5uHSDLEgmSiqv/W/GX8e+8T/25/LaltKV3GKx4Hq7ePuM175TMbD2bJeOD9H+enHhwmI31kAOtvjsNB7bOR7vg3H26S3m1+av4nO/vt7w2DrZujczUvYfuIC7b39ZHO449TMWpldN9OQO5MTU3NH9jrP/fVkqxdd3EYj90c4ROdoZW6mYkQY92U1BmnOlKSnM9pe5bqJWylh7p90lebiW5ybNxhCsBZYokU/NezX2NiCP79yzjrOpJj/jZL6pbiDL1T2Lw93+Zv/U1+iW7KrtPz0/MFUpJJ/nLh2Tipv11gXX9zUScXx6huly5PEd1e3PMT93vY15scWrc8NzbbmWlaaUrD90+SsvT8l1+3GOuGXUa35zIYToluD6ZsDm4DmVjeV0vs+tvouc4k7RHa6dGo6JNCSWI54/pb1+eAUpBWQu7M27rN05Ca6qslzXjafQRja0YA83jqKlH6fLPN36ZICtfne9TKQOVvpbMhd6Wu9N3D/g25fMnvf9xfk0vTSq/1N7SK2dsKA65rXZjBbfzHbqjzeIu6N9pnS4yqw+jsDgzCq6hiKNzd32gicvm+f6P/b3/Qwz3Tdxu8IHAT7+qn8D7rtzv+Pf7SDPeEG/sbD368/N8Hn73f70b6B8e0bmFPVwgM2KsBORwOh8PhcDgcDofD4XA4HA6Hw+Fw+sP/AAvwNUgMHITVAAAAAElFTkSuQmCC;" vertex="1" parent="1">
          <mxGeometry x="278.91" y="472" width="188.13" height="98" as="geometry" />
        </mxCell>
        <mxCell id="26L5T93bEw7jJD-IDhR8-12" value="" style="shape=image;imageAspect=0;aspect=fixed;verticalLabelPosition=bottom;verticalAlign=top;image=data:image/png,iVBORw0KGgoAAAANSUhEUgAAAO0AAADVCAMAAACMuod9AAACEFBMVEX////LIzIGU4GLED+kQGT5oTXXT1v/ggEAAAA5dZn9//////78/Pz//f/6//+mP2Ty8vLHx8fNzc2qqqrg4ODV1dXq6uru7u7IyMjf39+4uLjU1NScnJyUlJTAwMB+fn6jo6OHh4doaGixsbGWlpZxcXEuLi6HEj//fgBUVFRdXV15eXkODg6fQ2T///b2ozXWUV5HR0f7hAbQITBsbGw1dp42d5bAAAAGUoWGADLaTlf3mSX5+OX4hwDJJS38nzdAQEAcHBwzMzMARnAAVIaJADYAQHuaMFfOVFzgSV/NO0vIUl702rHScYDMAB7Ob3PrcgDovXv46Mx+n7HyxpMnZo4ARHbeydR8AB/Ho7IANXCXsr7u3eaQLlOVRmOwe43al6Hv2dvtyMngtLfhnKTgipLx8tjunDr0ng/usmfmwcjwpFL66tXLYG7YOEXmsVHWq6f237niu7LiL0j15q2/LT7sjCyuAA3NYl+3Okrz98vgpbny2LPQjIzyrXbXiZjvnFPqjjrJcWrIIEXqohfyrmXhdwDIRkTwz4neCyrDdXzswZnzr4b1277twXXUYnrNAAD4jDBPfYz5pmokXniRq7ypxswAI1eQrMBnABSogJCvaoJYcJQACl0AUHFbh6YAGFXD4+2jcIOCRFtumrasWnlmABs9dIAATo5uAADKsbyYWWeAAA6Apant0+euG1XN/D7IAAAgAElEQVR4nO19iUNTV9r3AQTCXQ63iImorVtropYLBokhCVDLEgiIkJWYsCsREZV+BYcObtNqOzrtjAykDrwfTBjtgrP8i9/znLskYQkCAey839Masuf+7rMv51xC9pqoCP8RwnF7/sv7QXy/DHA5fr+PY2+I3miRCEf/d7CWcDccbSbyX4aWQ4I/PJBIeE59DPTI4aiMcgKlPBVlnmdvEXl4jf/tSrcAAESO8vAP5JY3DQwODV2/ceP5leeVjsrKOwP8C3+7d1jmmb0SBV6Wud+wLlNKZZFSThgYvH5jbMrj8TgcjgIk+ONo9QwOx27WO52xka72cRewGLlPxN8qXhEk0zTYP9bCYCJSFW0lu3F4brlGnRVA+c78itgP7bdlmed+W26J6aYoAlIiAFIEythZCVSQSvD0nSH5bn5+RX19Pt7evBnrar8N2svxMv+b8E8cJ4oC5Sgl0tCVVqCCTFT57T1+1Flfka/RzZsVo11eEH5ekCkR9hvNZgRoqUA4gOppLWjJCJWR5zr/QypcZLIzv8vLUyqgKd9vPJkJzC/HDdzwOEA3UYQrM2JtdRR8+4B0OXWk9Uj5sYqbo+0u+v6iRdcBFgb+SkNtHqaVjkpFOTMgdoAnKnjO+8FI1St8rahgmIHBFV23eTDp+KXkfQMt8iB7osgZ+1s9Dt0KtQCeygLHKtu0GvIVhFufv5qcFU/HwYchf983HkMIIYoURFjnZEtBa0HS5xQoRhmwV2qkvtNR0DomfOmscK6BCxT70oV43zOw4HIor2Btba1UwbVcaXW0pEky+lyPTqoPBuaPSV+uAxYdU8VouyzL75MsYzgAHueRJ8lHRv3SlKPt3nVmmR2eO3fu5KxHd+54QHuj42tFGfU43+kcHZfR9/Jk/8MOJc6H4PC6pyApsQ6mrpVX21qEIdMX/8ezPs4UqspZzd0KtFSKNjufekGa34NoA8FSiPwHKz0tOl8rC1paHJ4rVz0DQ7+jExN1dZtiraobvD1prXWmAGZOOKYwvN7ZJUOKJO83WoTL89IVT0GLQ9dPsDuetoEB/ka/dH+Alwa+rtoM7ETUW2uxFBZaAXEFym99RbvfqYEHHldUtMNJ3W+wzMcOYSwB4sss8RUwRS03vrhhrPtdzgRpuTThMd7ryIy2Y0pqt1is1kIkwIto74pfuboQt2axnCMuuq9AwTFA4GS66tF56mgdI2O/+/2d69EpPlp2qy56/dHgpVB/BrTA9o4x2W8pTCEU6elhZxcfq6hH9VXU2BmbBmlG2hdrxYOLpdygRw/8W1pbKj23BsZI/xS5P3XlSnTogSlnwHi9LoMk1+V0POcfpoEFuIWT1O+8K9+tB+WtUI0zWOcRmUK0tj/eiIdEXXyUYp0cLZ7Kb8dI21UyJUy03bt0ffDOUE5HTiYrVZXTcU9+bLGuQmvx897pYa/zm4qk4apANo+j6uwLWjDFA2OpDra1bYAfzBkcvNR/O3p1Imoa8FRVVeVkMlF1dXVD8qTVugqrtdPlfyK3144Oe/0VyQQJ8+B2maN7jlbEjJ0bVKJezNJbWyCVHfj9FDc2Rdo6viCgq56OdYGqT1YxltcNDD+zFK5CW2h5KD+zfD8OmGOukXonoFSThvp88EVU4PZYdUVI2rnrnpZKJR4sKPjWc+OB59bzP0jS/cFQR4dxqCMTU5kmf11X97Vx3LpKZxnermnLM3nEz08/cT385uHoTc3xoh8edXGsgrWHaKlI5RsovGoU7PA8ksmDS1ei96X+Nn6qY+hWR9U6aOvqIJCoQvkG3oLn4f1WS+0arMBcS+FT1zPXw6e3XZOuYZf/ZkUyrqzP92Kmv4dgiUgFdDytLczFelo9A6Y7j0jOUOjSLfJ8ou6qNLYGK2DsQMqZmJpqm4AnOq7IXZ0WyxreWpFqO+92Dj+xjj5rv13bNRxLBlmQ+MbaKdm7uIrjBM7E7BMLKb4goW8dj8i39wcG28jAEDiVKlU763T+AtCqiSuPhgYHTBKy5eofq+oeEPm2t71r5EltIYujFJ1NkuVP3uHxJ/ITy9Np53d+p8rdesj3IbASsFa3JwwGL2tsUwuJYJ3uRQdMLZdCA5emyPOxRxNVdekcravr6Kgb6x808azxo/QLrtZ13GNtAnzk8k4/nQT9ZbY5xUBbJp90+sctVkunyzXudeanFOteUF7eG93lASwWJJSwuMXRxrUN8mNV/KOO/ht1f6xLiyUA6qWp/gEZq3Mcs+RKIvG7S7c48NaQ2GB/AJ6Qb08/7WQcToo24h65PeodnXZZnFwsRZzrnX6O7klQxVFi9FS2FuhRhWdw6FKIPHhOJgBoGljgauU9I6LEAgQFePhp/I4rA0QAq84aIrLMU+A70PToM2thbYo0A3b/V/5J+Yl1RK5wjaSkg06/vPtRhsgJBDmrVhSvFoCX9YyJt24/4m5d1V2pKsMdOY8GOGwAQbqGqTjAU79GEKiIFTuMtZl8i5i/wj/Xiyc6b1WZtlge3ra8lB8C3lgM63NglUGHgbs81v52EzIVRAo661CTO9PgUNudnDpTtK6jraUjVWFBXaeGIO7ZagGck70Pgb8Mpcbhl8MvXNOdw37n8Ljzm3yn6o2cfixY7SqDQeBMbVqro7XgORkAw9vRb7qUk6auwNeWQQgtMW3Y2vdjjuMCvOiHktbK/ydLDDyvNxa7i1ZZcbs321F3dzENhMOXx5gYM/vkuTIoP4D4cEqeykkNnao62gbgSLBBssUMHAUbvItr5FmKI7bWWi2W773yn559Jw//oEaR4Imc7ZTKu2apUNO4K44Ctajo+PPA4NdXyNVLVXUTzLGq+prTMTEIIs+JcOaFLXoJZqQRsetpZ6rrtVqHh2OdL2gs5vqm3qnkvPUVsXG09LsjyxwPRvSBkrq3ouaK1wen/vKI3nqQGhPXVdVdB0/K76woCr50/IklRZoLn01anrr83i5XDLmq+t6Yi+d2p7TOgxqSoVa90FZwRb7fUddf1z8wUaebYVDiMRO6mp2qE7A3raJhBWH2dllG5Ycx74hzVEsDY/IuNYsweR/wqH2OljueAo/8+46c6IOOFM6CqfoCTwrZseNnrsn12KI7IoD7p+//6p+cdMnDXapddsYgAZR3RZI5Qk2VevLeNiCNfUu+uH/rOguKVbwdVyVOxKGRrVqntQRwKSf7O1W0kOJbrBBp1MrTL7u6RpxahuBsh5/bBbxgca6oQxMtrd9GH/RzVycGwAMlQwqIfQkOxmTpx9nXeCctVj1XsFieyOOdhbXer5z1Wgro9HK7UWgW6XXFGGPHykOvPB/k+6cmcpJpbNXXAxAdZvtX5acWPVOwWkfbQaIf8rFkhlBRIbuyXmiGgHFQ699h5+pBW3TiCh2s0jIeEOY2iexcgFcTRND+Tr2Ww3zwM9fT0du3k02Frh2bxDUkcFKb2nx1VD43hb6tI1ef999Pep6O5yDqYtZrChwv0PZnhTpzLYWW779vl7+MpfRQ2rMcYUDIwt1gUMEDOaYGrg+QBw84cUoRY7zp6Me5xWTcny3CCRvZa2W6ixr89PFDKrc/q0UT5WRB5Df1MRe8J4unmRO4Wx7FzwJ/b0UvXXpErkxM6JWJnPv3+KwD1QlSo1qmu/D/qIu+gKiysLbe+WK4vaI+BgnRzRGZilm0VCKVFZVtBbCeB9ytqr/0D3ToOlvV8QW8ZdeaUpDsu15a1MTXClpsgbvO76jfO47lOUh2x7Nac+VIv5LkVRa0jvXnfG0yXR24p4fGABbnhoTdYi6E27xrUm+LWa3A6SeW78edMTmG7cCYM+bKVkkd/ScEUYo1bi1okzh57P4tcu+SlgTkdAyBpIu7VyXCtJ26GFaLkiNY/K5a/7DzhYulfmCofqBZkmQOhJRcdagNS8efB+9fJ0P3H3BDqoVSYors/FaGo5ABrp4kWCAFfiJX3L2rt4m8WfJCyLVbHrUM1foH0TRxqc0o/aVtSOVtxwMibLlEsfWjoNQLGquU2q2W6enOh/xdZzswmEWQ9Xe57KQHqJJtjgKFt55b/SHSf+l+m9rdAM4+x+xo18fIZQiap/WgudDqdXEvIAWU1Tk6ZqiygRaU5p7S3HI4HA+kiUvPhWhLlQIWMrw2ng2Q7/x3MhOHg9rJFNBqffqk0897v6rATie43fpRWZCzIGFUlBhfHY4/P/dcMcp/uFQ3OKbaY/BBUvbjtg2PRH6akvC+dLlGbo52gQtiya6znWYjwqDkukNBO0RutVzqJ4MT2mRBVV3H4B62U0Vefpks3rSDHv/gkoGtShRZQYUsnHdO8iizma2O51Hu3qWp6ECHlrtX9RNx7ybjeY73JqtVj9sf35b97a5RtQHonM7Gaip6XSsfV7Z++1ziHtxXWz2gtGOgsXvHW+w4JFXX8lRur7VW3M3Xi5B0h2YKq4xiZYtaZCyovNNR188Naq3Zqrrong71oI+RR7VuoOXlY4uls97lHVUTe8Us7wAxFQU65KnU5jQdAPGPEwVVWpcHYqgsgtmcWO9EjyAtlpftrr/e9bdXKOX0ilG6U7Qi3+ZQVz9UFmDOXleXU6fEx1Vj+7Cahad+i16Wm3aNeru6XE51yMjpJTtCy+M8lEOtM1Z6lMkQQMuc7f0BuveDWhxPH1sU1tZaur7vHOUxwHAqU3MjO0QrQoSsTwilNnrg/34i7P3oIaR241i4UXIEv0v2T37jnfZWsOn8imFcbbXt7xaoSR/ELXDkpMKtmxCEfVh2KMoyGdFV97HrWefoOHH9UK+U078TdyJtInc9ydo7qY0tNFH7sSoLQ/JhrSxnsdb+9bbr+64vnUqrxHlX4HfgECnflsraJNqqKk82IpetE2QgMtelO90n9MWk1Rlz5sfY5LZznO7AcHID2gKQyoK0+fEqYO3+zIJjau96ptjl2kLrV52x72VXu9oGc3btpH1Nr2ucrUzT2pwcD7932cDaw+qyaPNGz/zy7faK4ad6F2wHaLk2beagwJMGFrV2/0bBeZc6klFYWzv87Jl3dHg036m63B3wYMCjo01fCDEh7F5BdXPiOX2i+Zn3ry/b5XFt8VRF1zZNJ64+vF7gqFxHkOs6+rm9niNNIV4Whzu11sHj4fFJnKRSV8bFtmmTcYeGsUptKZonHa20r6yVRXnUoiqupfPZQ6+sVWzyncPb+05RxtCiRR2gSbfIV8muFY/fhXiOTiuibC0ctXhd/qddLnUIst6/va8EmzvkcLRozjbF1+Z0DGb36LdKOCH5TGlhv3TdlTsttT941TyofnR73wgZwQ19pVoa2roc1I3Nmbtr6SDOu4yAFNdarJPezvEXfi9xjWITDLxuzLUdi4L7TyQDqTtpQeOjzFClEqBD0oZoS4xbPpq1NN6ptP3GvV75tn+0PjbiB9WFKGOcytvwQlQ0JjOCtLH5jsHMJ6/EwOj4Rq8bTmz9aNaQbGWzGIWT/j9Ndj7xD3/VNe4EQa5XBgK3/HWUDOpoHWkJwcQmIXKJQYLbw4ZjG7z+6cEtH8w6h/cU4qlaS22hpfZLWfa2jyDWClwTtq1JT47r12Jkz420gc3nZDO0JlTak59uE8g7ET+NiRCgtRb6nzx7Njp6k63rzK+PydsYc4ETpCXynn4ylLLaBaLGzB9laAk5bcD7H8CNcBA1VTp26nwJKvPpMnh0Qig7f/EIvk8gp9UXSNnJcx8ypYb3Hj+a0cwJrk59OuHhsCzLOIvP+n2u7ZS4OVE1Up4HZIZev6Szt8NIM8cWKtoPL8PN8XN4ZIYP8ObswZOGj4iqt4aPP4OHTNjP4j2U7qOGkwfPoRpIhnPw1AcZD49/oqb0hY9df33RVTGsFOPynd9vJ8fVeratV7jXzbPcc71BMMVtihb1ttSAnDt5Cp/BAz+I4E9+RlS9NZzVTsgRvGGCcOFD9dVjn8Od82cz/QhP/SpvLQ/9naPjfpc6Q+X081tPWHhu8A4zUFeJL5Cbu0TaqpJqm9mTlhiOHz9+gYFNQXv8FEjmR5/raD/Ch4jx7DG4JxiOEnL5NDw8B/z+5DzK94VMPyLTcTWcstYOe5/IwyMV6jYSD7eBlnBDOJrrGJNfBQJ2e9DHT1WxBYgdQ5vNbJYYTn788fHLl41oqnS0pw2am1XQlsANQ8ukmxgA6TkN3wnDpi6ZF5OK+/Lhy5ex0dhNJTMY5bfRqOceYNO2jY8EioC39mBEUkrJHZsWVhVJJp8glCRactFw7oN10X5+4cKFs6jCxsuGk6XMNp0znDq8CVoiT2o9kpfjT59CYqAuKtneEAZONVZK8UARQ2tvSGC3C/grbTZRrlopZptS0JKyTwyG0nXQnjiKwRe+Qj46azjHvuPQJ4bLpRnR8uSplhn4p61e/6hXXSAFRnkbaLFra0oA2Opce+6iPTeYuIXDuR4cFnoXm8xsbypaOAHnPl0H7UepHy4znFQ8j3DhTEa0Mqd1wCz+F52u0fZhtWfg9G49UOaIp8AzkAhUVwPaxtxcZC+93lFVd3XThEBHe0RFy7h88SCgMKJCrkJ75gTCg8fCGeTmMQB57gg8Vap+zQbHJ3PTWgFjctjldbaPqLUp55dbL5lx0W89g4lZAAtoVZqlD6qqHm36UVVvT+Cfk+hGSg2ghOfOM7TSGrTM05TBCwJ77thn4IqQv2XK12yM1quhtUw+ttbmqyvs8+u/3CTWW48GcoakIgSrorXn5v5iI2N/ufcOaD8qKTnyCVpZsMRHifHCZfS3cE84i1bXkI62FB5LZ87DvbOfI0b0t4YyIl04l+lHeEpcKUv+amsrtJFl53db3/WECw1RWxEjlbeNoLo+MnFr048ePQP0+cVDBKPC8wbDZeNZDAyPQ150Dtl1AU/Dp+BfyeHPUUU/gBfOC3DPdAHuYYSBnzKckjK5dZnysr50F2C/rNBqU86RLeotRzle0sAWVdtVuLmNwVfSAEe2tDpSUI5ZUO+uRSDo70l9s7BJLYDnBd0FMcDJ9cgjW7TJbBHVjAq2KGDXFDe3sTlOeOG92BGI5/jJlCX3Vh1s/egWj4+XRbpUVK2hbcxNUnMZz2UacNizbj12clN5mxzP3ipaOHE+xUKBHKejbWwwZV75+tEZg+HsoY1eVWRZ+HyjyPDohXc8XSLl6dPC7PCW82mMRd7mpsL9ZZHKGRq3Bw0nSsvOGzZMTj89QdABl23w8cMG/Fx6wLH28JTljdxD67q8jbFVae9sWgQyF4CgQrFStlS09sbGXPtshqkzifkdcurzjdCeQfcjHNzIlRpPo3naFK2Ia5dpGtqklYqxvWzfPQ+KzxbN2opstrVoc3MbgtdmNvbeBw3MmrIAA/I4cCIqakHF9zmeDf1MSOxZ/SEzxIhWSQk2EmoeDIu/y++fTN1UQEMLbve77/ztW8iDjJJEI6ocp6EFtaWSZNpYt06dUr7gHEv3NPd57gjeBYYdMRg+hfBBwOzg0BnTZfDA+F0XkOEmjCpLLgtwxgyXDSVlBpOgx2Vr0PL+Tn2TpnS0uH2P03n73cusnABGN1KdjlZBbG+AdEreWCnO6IVGPOoyJTQiZ898DOk8BE6S8czHRklFa7hQCqEkfgBCZVQCRAt6KxkNB0slRZw//nydH8El5FoPd40kO3GLCNdW9/+IVNt0K4VQVf4GM2e3hpTqKas/nWDlic8YGjRNit4qaDF4PH5qDVo1ZzrFgskPN/ghIXURWJqViuVXDMvCFiMMHW11IMUiI9oMHxIUI8WolCWzZXjLonxhDVoU0pProkW2slIVFnDW/yVBfmxhPc1VaOudTi+WaraGNh5Q0dpmA4HAbIMaUAUzJSZKwUWlEoPyDHDwwscaxC2gNUHGV2bY6IdkIrierBdLVTjHKb/lJchxlbfVS5QkfJxPQ7uRp1ToclKSIcHRjpwVE7eKlpw5TQ5uWHeUIU72Tq6D1jktCrgB89bQHgoUKXDjHy0af5wtDSp5UHAj0VLos5Psj3CmBAIFdhd1cHtoP7xITp3Y6IcgKxBDXn1OrLBWEeP8fL/Ut40mX5mKtjoe/9GU+6q0WfFAwXjGTx1XyoaloKNKCUMyHNou2qMGYtiwNgWiKv0tOq3VHRW0kPX5hfJH2+jxGQNawmeE7Ng4u6gmuXMZPwX+UYAY4ZgBIR0GUf4AD39TtMdYrWIVWlD5DdUWs85ojVlifgj561QsVBd54w5vo39LVbS26tng7GygWfVA9teZP3cGKw4mA5qlc6h0Z/HxZmjP4ZsurkF76sL5DX+HIzTUbe7hR6zKqiiG1vkDWXa7V7htMFdFW22bSzTPkESzGjoWkYwWz2S4fPK8UiY1Gc6eOMvE+TMFLRq4U4bjHyh3FbSsUXTY8MmJCx8iWiUr+OzyecyijmSIlwHRSo256S15rCw1Z2M1d+U+94H/hLYzE7KkhY6cryH4o9Gmom3YxL4LBz85rhZUpWMXjzGH9RGr2pzG2Fk4faxMyQpMpxHY0cMYdh09fr6E4OtG9qR0+himhKWZ6nCUzDeZ82qW5UlEa8Vi8qhr3l1c7t7W/L+e9NHcYPMMX6RWa4KJrXuz9WizPBa0nzXKNiCRI71Neea87rCMhhkdUEwOu8uLD7ilrU+IcXwkwODaAnE4jzTSrIDNDca5XdlzYTVBvLzJyEJNXl6e2dy9gstmrPkVMXnFfaD4QHHvtlbKxHWjbKteDNqKVLR2305mgLdABkPGEiuY5DyEm9ddNo5rrfNdABZYe2BhG+Vk0JqAhjVyWKI0HsxVwikb2enCm3cjKWOMynErDG1eXlON5Lc4K7whd/kBoOLwttBqLqjIR+I+W0OwUU2DwEy9B/tUU7LcpIA1m83cw1pvVAF7wL2ynS3DOaLlQL7S5mvXAq8bVLTBhLz3W6GuIZ6YFdaaAfQ/ZARbXMzQRrfDW474tGz+UBkEA3RWS3F97wNaLtqdp8LNAz8UBQNVjFp7wC1u5xJaHK+bqcTRV0vN/7NktyuKG3gfrpbAhVW1VQD3Mr6i2r4h25qv5RMBpZ5cBOmtL86/Us1UY9C4/2AJetskWreGtdg9D6n81ucuBJ6q1fPqQIKIkbm4qriNwbn34NIB0e4UtHnFxTraEN3O1hsCr8SO4IFmpNyE7f8al9SE3h7Yb7QQPqQKcl5euYa2vCe6rY3LOJnXiqyz9PUslXQz1QjB4/5ej4pS0psKFmMoFW35Njek45ni4iRC9RydAQ9kW1SZ2+Bj26lmG8O7EqQ/VLfIiiCraMuL3X3b/E4iqx1cAByYXfqA0qBWeGyg3D5eBBMX5/Q1rUKrhBagttv8TlFWPS7QHOXiS7m5WiMXMoPsAtgaiZxoThdklbegtjtYpRQPKIXHgCkO4dTsUoPG3EB2d3TaInFkpSadtZoDOrCwAzZooXJ1JF4dMZKELsrBBNnOPHuWSCA9qYJs1tFikLwD0kQ5YCLGSODvOm/tS2T3dkDdjHgu1L1KkHW00g6OCoJHNaN/NZO7BLlQkrll2drjaOvEpbM2T7VQKMnL2wsbFaJUKSrbimyvKV0MlC3ZtQhjhuzZPuvphyQK3EpaiOxWLVQxE+Qd6BeviXJ1gEYic39PzC3aleixsSEh78tKPtzdqUeD2mOuSUaNGDaKO1kny6uZAXC3dOlnaqINeuPaPrsvHpcDOHrQWBOG+00H9ECquG9HmyFxPLFVKwHGEiXGuWvxV4tq19reEOdwyf5eE5fqa81hUVwpd2uSjIn8DpgLH42rddbq2dncoE8+qjRIWPGRcvtgqTgyr2ttU17N30SJrJQje4HBLLXdicOVVZcLzE1EJDrX0Kz3rSFa3nsrJaZGyOa8mvmou0+KssrqDp0twUSI+DAvAMWNE/qqIehLRhg4FrfnaLlkFt/0pqapZiWUZ472MdUt7tnhHB6WyY3ghACtj8bjja8l8i89wmjMnd393e/WULhGU9seEn37zwXy76OSUoDbTm8vjdj1DX3V4G+rqwNFPxtJpOFaIHcxV1XeoA/3hd67CBJSvaQc1/T8tEJCvQuhkGqSe7Kx4BuckJIaVEeEouZghLzWqnGsdb2Hl1ATKSfqrha8j9TTEyIh93+UwoV7PhsuETRX8UJFNuqLUBMmQouaMC/SrOy0924EzrRPt8fdUXMolOdeiJIFJXJ0m3YSR+m/wSdmlbpy9Qyhvh9nuEizXY8xbFnZae/dSCArSTkOG2v6wisht3uhnEUXxfNZqaZwOL2LLXqbrSgSsJWRuZki3U6h6lKyBxeo5XG5WlTnrLlmJSqG3pSzojnrdbmjWdkRiae8cbaa2eWiQJwkFoPGeHNy8LE5judj99GKgiCZmzR7bI7O/zpPotGwW0vjw1n6HfS56HGri1754j67jybikWCSu9cSEKnvPnMFUext0tHWLIvRGvetFbeis8DcLO0jgxfuoai5NlsEJDlBSv7+I0kOAzbaGxL8loextkyQDbxpMqtgm5bfdpujpM+tNGyx+BbOkh/ksXobtyFvbTbba/HneMJIg8FGnbv2BiOhu3S5D51EblltTqu5T3f3CulTK6vFxW+yuUcQR5bUUTGb5HvtizTE482LOntzF40yt4umCiyUQJZrUsqM3SDIB8KK0mLM6I5mM/vkaVlAXVMxQxOBYCmdSXohhKtekG13CLeyAs5qaFF7a0CQyZtiBWw5BBZZ/T3Kz1VrDb/ZJb70WiBelARrB+7uYtUGwC4kwdb0vQU2u919C4oYQ4xcnt3olcqc2jewVQfmuPhMGSW2ZDKEI+m72BrixLfJQlTNW0KWu82orMWqILtD2d3ZCz3qIVxGAmjjpMRIfZKvGdxQUpjtGDKT7JsqDtybpCd5wN8e8R9h0tcDDNXtcV+2TzNGZZEAk+Qykni9mIjnmmiKncpdtEO+sAvDNlTkouYmXYzzmsKh7u55Ao5WCaEOFJf3irsQqfPcDNrlatvr2UDc6OMT2Kq3J1U3N/iaylm/hgw2QU9DS3oAAAr2SURBVDSwZnNTTU0f6anJmyehHq3SCPZ4N3ao400BlhwUVfvoERIJAtbZVLSNwVljdkNI5Flfd17SGveGwr+GxF63+w295VYTvfDutM55nI6zIVxOor6AbdF+zZSyfBOluSGO5huvjLlz1BwnCCTak9re6o32RaM/hUhf3ny0F4UYTNXyLhV6wVTNBTA5CMSlGdRg+xw95GtOkWZ7bsMSldlg4A7RcuzqYBAxpY6SNM2Hfu0hobwwEaOKry0H58PvTn7N8bK6TNXG4shAogxscySYuqTRztgLTNnh+cbLpnLR3tTyImR5vf82R5fFBXd5X7naiu+J7tKAKbv0OYU0t5p168EX/fzadG2GNOemUqO9eUbKyoUSxPBPqb2tpuXoQvffxHDeob5ivTuQbU+bJHaFTjmhqi6y+HW85Me4CU1zECONxka76nrnqCwTEc/PRvq7cZEbP4OaGOqpaUrKsLmpqY+Koe4+Eg2B81Gm3iDzIbvhfXTiSSKg9kps1EgphFi/2INLUmIx1Vw15MY53Jhvw52quY2qKvisKHAk9I+0Nl6Tube7O7oc5RbKl916k8vdRzbZZ2RnxHEytnRxbW71XFnQ9coWaFxcXCK+JakhVZ7twdk4ivNGbcCN0eKFgUmoF6xTihg3vZWQr8amMFnQZiyKy93LuBnSblY8MfaPq6JsOkQw4w3kUqlkkc6mqS/ijVCO32A154Zo8XLPDKvmZJl16o72/hQNdYth9xswTdpEyTK76P2u1ndxR56I0j2ofjXD/JGpLBgpDaaZZgXvoi/B1B1PUQo+jsWDqUEXx+njV1K4R4ud9J5A+NfoAhjfhTCruRUreIvfiLi8ehsjjVsjXouYWU40G6eBYEniWjzAauppmO3NRRGKS+6UCwnw7ArkeH0d6R/J2i9DiTyCE7my8FNqNNGEg+XdZjJvXo4uh0PAWa0MVQ5g92hLY4SrrSep9pF/BebIYoTLDS7af1nF30Z7MGiLsP0POLwON0Mr0qjZjBqKV5/jlCcBu7Sy0F2TNk/Rs9AE4VO0d5mYw+KbUDhpn3rdb/CSRHvRpUBtjMyqq+qLbP8qjZO5IrJ0LR5pyLXb09HmLoJENwd8cQk30cALsXMCCdU0mTnKc0nplkLh3hoG1ZysxzT1kaYa8W2YmEOleSsiBMblqs4WuxdwKndPZgPwaupKyKxk9/FSX4DGc2fIjM8XzE0OzDEXrOlwMHfpVdxI8QhXuvPMPRpfxGgo3NdTU5POVQXtr8awmZi7Q4fMJOx2YxagjZcvA2e3s3xtmyQQNluksDcA2hkAwNfIXNxmz/1lcbX+aoiDDYs+iH2RheFweH5+obenqXsdoGZ0sU0L0Sj5KRru7iXlfWShuFif7nP3iVnPLDMSJ3CJ2eQGIBG6lJBy48ZrcXqtIbjYuA5aYPNiY7OPLNdgWRgSVUDZ1JQmuimRk9nc0x2d/zW68pa8MUNkfCuq5bPlGEHt8RgeXqTPZNNU1zb7r0NkaYksNZgiDSUJW8NaziJz7dci5G3TOvhWcxYA95Ka0AqwtSdMTP92H4A8QBucca/gVOeezvPwGAbT1wGduzbfrBQPvCINR48u0ZlfguuBbYiLPckQyWzeADZwPdr3z2gYTHFTNGRegJynmDXfWWzcGyWCSMU931Af3Gdk1qYqb3VgJjFj4yIB4+m/m14vxX1BeypQvG1IRDNy1czca01NONQdjv6zT/wVnE8o2qsWjVXGLpiQq/sxlgbhe8JWraJdSsz6qBRYWqK+QBHxJSJBu85gNFvBXGmgZn20CpdRmcEySW97CZjs3m6xr1wiv3cXa1OMGEWxpGd/pkk53HlAmlHnPmfitiVyaIkuvSZFrxevzSWCvuQMKDD3ZxruXhcrEpgrgDrfV0N6lsW/RVf+GQrllUXd7uIedYBRHWMMkX24JJFCLAAGaVZWDUFW5EvMNiYOxU02QuNlkWvGFLTBGTK/AWdxJV7vQvc8yq/5390/ifN9Yl4fCYXCB3qL9RwA0PYsRJVrne8LXpa6QrpuVNgLBhq39QSXGzEuxsnSDNF6J/ZfGv5F3tZsgBVF+d9k4Q2p6SHmhVAUDBMJRcPhHjdWjFlHgP3rWSHqdQP2d3kOVcJmdZFjoOg1fW0sCcSlQIBtaWpvBGNcngFsU9OvEESQt93iQri0pi/6n/lQn9utj6aCjwUnuyzt8SXTNiJwveCLkrFG9dLRCMRWyiZGgVx7Q4nJvDYwTDFSeWCHweV0h0LlYkiaB2tUnIIVTXFviGy2++seEaek+IEkXFz495qwpL+oGleimzNwFjxwU9Oy2B029UZF95vwGwVqeXkSrTsM+fCORo+zSKz4RCEtKlK8LzilRKJU3Quluqh6FgT5AIT161gp4KsZXil+Q8K9oti3gKpajpKLyspSnuJidx8O4op7mAVsSoAY1VcxV2CgI0aaWNJZHSdvixWXCQefQuwJZGSUW3H39BxIFd8DymwQzn/t47qyDQjLi3QuoM6RVRcFZuI2XZFnI2QhGSesIuxv5EWVrt2qVxjW94inGuHp5yDYiKD+MgmuTuoxJMER0ucuVpirWaDkfbhdeIOaWpzOXHdfGbZI3jfGKqzFTTwhsJhRzbMtibYItxqYd6djSZPZcgW96m/Y5EhP2EhEDBTfP7Qa8TKhCZ8aXhWlEuTxG8NNwlYwu91vVsT3GKZGPC8gg5cCTH+TYG22GS7cU7wZXnQ84F7DaJr2bk/X7RLHNmkFsTZGlgK2VHGurp6hK5vBRZNdPo+rSt+TYGJzErEjwhNOir8uCqSgLbJRNkCgzcKkYNSQ9iyEoyIrtb+PxmlD4pSsgSYiPltAh2wzhdhoohI9qErKCqfoht+EQ1Ly4785Unp81BifAyYHigLVgUAi2sMGCMoVHcVo4z8ItG8lyiR3X6+OtjPCNoAsCyDZcL80Ho/4Zn5OGHuQoz0AEYKnNwt94ZWospmy2jfY52PePvG4KkHN+tVWLqRtWGrqjZpMSSvEUQGdNbf3tbVsUuq0iVo8w2qH9Mb9BuLB1Grab5ejm5AICc1C8fsY/e4GobyKff+93EwnDtdRbnZhlv8i4lhj438DWmEtKU/v94FtlZLHL6lkQjKmUekaSn/dyD5jUr8g/ZS8D+hUXDqWMqRDjI4ilah0WKMP0kl5skQn/Izycfyi5AlRz8HeotcRKgBVeAyZCgoQfMToiEKndTq4IelvUT+jfIFyLpQzkESfhL6LuFWUGkgNI0OoAtSxIYATjI4hfQz0YQqdVCn1uQ/xTezdx9gHtXOgg0foCu813ApsFXV2kaYDVXEeTkOpYlTwpcA6zug8o0/WkvLCefam5GlQsSdxJ1EfTmJOgSxlB3Gq5K6FmkSqspIB1VEq+C5ePAV0jtHZdFKexJcvXlSh66gRcxJyEvFawLpOZwltKthD6XxNB6vxVOWnhjWJ9EIqJSGn4NW4rAj4Krjr81eT6GwxN5Mcp4nxx0nunlQlWOEvY3CSyQpHTylsvfhJOlAVahpnN8ZqzBprNcAbmKjDaZh1+3RMh500SqoCr0P6Oz7U2akYq1RblQ700BpDlR2k6ZhTpFoFvcowf3QkzTRrxlk1zxuQ9p4TKQ4p6YrQEWnmeB2Yu+x9hVVONwW57ndL1DDiI52OZCT9bVrEUZLEl+ppjSlBxq6CzIBcixb1SFGJCstUOpRGR1U6tIq0d5elRpR6GPnexJCrSFgd+0vvSuvkC/+fdkT/D+5bXnkG9qd4AAAAAElFTkSuQmCC;" vertex="1" parent="1">
          <mxGeometry x="90" y="572" width="147.99" height="133" as="geometry" />
        </mxCell>
        <mxCell id="26L5T93bEw7jJD-IDhR8-13" value="" style="shape=image;imageAspect=0;aspect=fixed;verticalLabelPosition=bottom;verticalAlign=top;image=data:image/png,iVBORw0KGgoAAAANSUhEUgAAASIAAACuCAMAAAClZfCTAAABIFBMVEX///89V5D+/v/e4+3c3+n///3s7vBFZZMAAADu8Pb7+/s+WJGSn7w7VY87WJD29vbi4uLc3NydnZ2mpqaJm7zo6Oienp6Ojo6/v7/U1NRtbW3Y2NjOzs61tbXCwsKsrKx7e3uEhISRkZFQUFAkRoMeQoNbW1tnZ2d3d3drfqpJSUkzMzM/Pz+ps80yT4tqamqAkLa5wtZVVVU5OTlSZZdXb6AhP4TO1uQQEBAkJCQ/XZJxhKmDlLafqsZWc5lRZZagpcrCyt8XPHlmdp8XOnmruc+ostIANoBeaoc6T4wgS4PE0d1kfaBLaI43W4Z6iLJ7jKSRoLSrsL4tVYVviqzv9umFlK5geayYn6s1X4SGnrq2ucSyw9C/wbx8hJm5utO5/spAAAAboUlEQVR4nO1di1viyLJvAomQkHQAwzPhZQKIEsURGCPoYRzOXtRxHs7unLvuPfv//xe3qgOKDg8lyRy+7/DzhYJ0p7qqul5dIWSLLbbYYosttthiiy222GILf8HxDP/paWwsOPaNIzy3JdIC8NzjQ27Jy/6bAawT6/WGvXDs1w3Jwyfw7aYLN84O2Sbc6pimaVnd60//QCoFLnDw9hwjEuPgTScST2K7ljVWlBBAts0Px0AkXgxY4HjUfbGYyH7ZcOHmydC2ZEUZy0AhIJMsmWabBL6wdNi/tE3LlDvxyEaTCHiIi3+wJVtWHOQiZCXZkbu7AU4aNBAvthzTlmWZ8a3VaTNm3kxwPNk1JUWGT3e+ioKPFGuX6dKABiU9qSsrOB6Tbcc2r8IbzEn/NBlpZNsGtrdtC9dWCSlmC58MaGVHliKPnQmFQrYDY9q9YIbyAbGuhAI2lo9H7fZw+Fd7BBRSUCFFAmP9wUfbBpFWJiQCtnVkp7uxNLq12UyVK47EBoP4kJCWCZNXZPtK5ANgfpDethWSJEWSFUnC5VFgSYCNlADXxAM4MvwIU0Vm348NRq3RaDTotU2YtRRSrF4QU+ZIGCRZYsuCeg8+QbgdGcZ0YptHIpjRsW0zhlfOI10L8SHOSIRUOw5mzPOxNJUwGBn03/kgErdDcsgcbJzKht0sZjPNA/Q4D9uOozi2PQASSWyzsQNxRm6sqZ4GHd11+m3knTiIOzDXxrERzKdnOQ7b7O3vYdjZgN3tRy5SrGEQo+7PbPaDiOjOA7goFHKsVhADegGHO77kcj1yEfyQZCSRwq5CAsb3H4JtT3cyuz+xKnoiI5EsdwIY0Ct27el0z8OmSyIQNCfEuMiOBzDiEJzB6Zio7GLDz5e/0QHMQ7IVOxzAiB5x/MtJtGs/2kNmn7T20Va1GBcBO5sbZxtxK7hoN4Bd/7MdcnWRBFwkWrKtSIpLIpA0c9OUEexoA3TxcVVl0EUy4vqJRFYQuuj8URUhiWxJGZu2FRswdR2M9vMEHgzdp03fwmk7ZvyJRO0AuOgZiThZGe8MYxN1vZkkCluyy/YymI4mizs+kkgywwGYKceuoMloVH8WgW17/HTTB0Eb+T+gN4CkOW4MJDQ+F+KDQQs+hkAi2PSlkHwpBkCiuOn6hHYIxhJt8AQ5jnNJBK7zxqlrQOuDM/HRMIDcQ0uO2UXgMQXjD/QsFgWxQzEYj8rjDseBZ+vurIq5gZs+EWVTmZAIXP3fRoRiMAdWdBxyYshmfkOQmTKCvQvenDogWyBoPZtJtr2JpiNR/2fiD1yiQxZGthmZEkZDUHUG4VWeo2RL4NzwHBeT7bF9PBqM3Tls3J7PUBV+2Bi4ke39eHwXP3YdtANs+zQWTGi2Z7k7KOaH2hbGQkwW95TQb940N5aoFSBBDAx/tI1s3NBM+D4GRaTYTkBqAYMhSI/r3VisPbE4wDuDv0jW5gVD1IqAPyKKrWBEawJQQ0AvJaDEDbBODCUNmGcMvOrg4uAnGvanXBBbqAckUrh9oUIOd5DfWfIDALN2rNMI1kAEARaYlTARhVkExkUssCDLH8MbFpjNuiwEOy5PxDioA8UJuSYS2HRxChQKbr6jLmxrjjINPgK9gFbWDSkJgQ35dqgJOlMKAlZ2XO6asmzLNiijfuDL2bbs8Vh+DK0pjm1iHEStlIId97UA2pQqs+vFChzEm/h+x3HOBzdoDgWqNnmRhCXTecyjyePx9X7M1X2Jihrk0K+FRgvPfmcFGhO+4d2vQLkIc9PcyMGkJlgbINfmxZBMxxQyGvV3rDVSXaXKyzkwzTylEr/Ipnaf90+L93Yv5W7XUn60XtgXRkP3Z4SndX/9pPGVWnbO31/1Fn6WS01KityBX76pWKS+EGm61m8zgUvlpU/rQL9sLjGX1Vm1lG8FHDBtAEoBR+bwrXHki04SIzc3N2+rvDMWbBmw3Wr4lJ4ySJWUCyQ3d/8V/RMzjnNZEr5gc/35bUUhURLXfnfGNrHR7c7Oxe3Fp7uLQdhVsSvXt1Rc9Ey9Qip7pFbLHeT1GskIuWj68TmOXUqs/flUNmVnfxDhmTnliVh08oUQagv0c7FM1yMSj5IlxO+//JXQKE+plvt6d95Dv3kVjTLGomeERumkWM6mjGxTL51wDVIuP00OlV2vb350U12y+UFqi8SjWXCgkmyNJOCjlNSKYOkveF0ytY41iXNr331NaEKMiiLPiZT+/u0ujrNeSiJjyZIUU9QgeSPTSNSP1INqppwvPU2a58Vd0x5Lrn8SkiXZOu15tAtO8mptTy2p5URDS5RJPrNoo88Zovb2t+e5r590TZgoTuR6ymtfLmJLF1aozNnInp7FGWpUp0QtEBV+FYyZOYevrJDCqpDQjZOwGshjZKeQzL0TD3OZvayQahTLqYqWXPhamqmu5iRWnTxlbSDJH7cJ5IipNkD5EunXi9jiheV0uq77w3MRxw450jQSAMRCcbMGKNrrSls2B5ooqZWFSjWdURtqsiwsMV0StFhY+CTDk/xwsRi80ddb9aXMoLh9u1g4iLaUhVYMzik2ppinDhXTR+Cdd0fEW7n0W8grJKsrXoHWQ3jUv72APez77o76E0dgITm9/XP+f4tCYQ1xnr4xObcU54k+EzggbOFgPbnnEEhFXzwcbmCDi50v3x4KiYL+8FX/We8CowEf3c8NFKplD5YqR/42WWhnFliT5LiFfkuAuwcXHu4eH/cHQ6yHZV7O+lOhpaI4b8Nx7Y/R3ZcHjboQF5XV8+LDhfuAnRl4fFFpbRZikG0JJO18fx8+Jzjf72DFVPdm2RWjSYiHJmyAZdqd9pMXuDbUvPEzkdjxjE9XOlhAK60ont5ffR+0w4Q8Wataw2OU6sYEHnKuXvy118Ww/Pnyfx2BpYlVXVIINkGlezn0HkAQi0LuJx8cJnn97XdKV6tGDhyS4sPXLzs7g9h0+xO8Uoic246sjDvk6rRzeXl6eXp6etm57A0trHNdmhiMXXVZkSCLigOhHNvqe6cRGEqNFz6USHr3RSDQK4IeHIZGUBRzf9z3meOmVTxPiGJiVrJ/kI49CW0rit3t9VCFK/Y/F06Fj4Gl8BR5ZTkg2bwS/Yj2CkJyyknMzYtc68LbHBUgkvb1Grha98xChERM4CLJviKdp4IOB0mE/GEuLKnlY/Z4mgB6gmzu+5NWUR8DSkBxev3wRgohRJq776vr+8lP6GE6ez6J5GXK6JLZTrMkkljO3re6N6PCdiEg0Z9ffl8nTAkCd/HFj8jOjeWgoM0lEfx5EU/841pi521sdrTEZj+xIF32r/RDq7rOW+9Oi63DmhxP+U9+5DZvujMkmpzaYCRCdW13FpgfMZM5LAraCccTY+HqynawsEH071RVugJ+yfdvdN3LFIW7nvfKjhsTXFdJ/kEcy01oI34b9j4Ck0j2/oL/GljOGGzLfrjVHrX/OZlD2MIqHXvoY+aAFrSHHQ/ZAKor3rVRD6vYFNjRRqPWEwTc0aTQQnWt2KzI/Xh0+uPHD2eyaUS6bDs89zW7Iv77j7WZCO3/LwPPTM3Ziu2MrUshLMQEQIwhPPrNBmUzv9ieJ2EwNxVnPD4PD3s3vWHYxdBkZkNoedDmjdMjt0W69iVyvKjeUS8kEjRB1B0spYnv7h7vHvf7xy52+/1BB7hrrukIBGhheTLookv4v0f0+6yCz59aPYywsqMR4p3qIesGNLr9660BVI4KRC3qXCqZFZPVLNFbJjvh46I9GEySCbFL1NbzBBkG7LMQbkh5Lodh0y3DHfkgaY++RviT5kGbgJDdXLzupSKnJVSuVEWyGCSVVYkmTBfHxt19Px7HAq3BoBVn2EXbGeRszsUCifYZLV5alqCLWCXawBdlJAz757cXt50LL28Gyki7XubaCZpKiqUSSVZLJJXWiaoJ5OWSgNRY4GGhcWOj086qtABoOHboPBaF8X64FcL2MeFnOrWEGYkUbySa5NN73z/dfnvQ9eJff3nQbCxrdB95ebhbFEhB17lkpiSm0gYpFjSyIhMjOVhyhFfHaqUkLAaCb3jocYFNse/mSuzPz/4Km/6ERF6AQZ7Y7advqqZRKlLP8RX+9oYFC0SiFXLEyCQZxxhGjgivzVBxPOgQRXoRdgQn1lrgS8CU+xMSvdBFjEQh7JKwPtCfb99/Q/J4eZsZHP8rmyLJSpozSkWiUvqTIK0Cz471jZ/7o0Aw2TpeXAkwMhdzkWz/K2VwuWxRVPUEbA5v3Y94MtjRgUC+tRkZXX+KkNXBuGUzIlgM+eEljT7uLjTceRKxsLT9J3UNmz4eNlcTOZIowmZpGKKeTFKjXOZS+TwplTNUT5ZoLpsVE3qOUDCb56zB6C5HxZW5FzRXRbDj2C9u9mf+1gcKe/C/f4qe/BD81/D+R9vNDmG+0RnbVvtRc855PefY4Nc7wEXcIwgf/k1SbNnsLx6KEkFNcGqxyBUMUJPpqpgtV6hRr9NUvixmkykxZzzc9VaGPmgjGo3maRK+R2sC4ZrRFFAoOj9Vx1NR+3If9uircTzX3rGw8A6jRGOzu7skEIWxv1FXdpSx/ZwaYQvIOzZ76+W6ReCqBNFy1w8rtRA9i6b00vtcMqrrRjQqkL1oVFtEIixLob8/XPtx4L7Xd2zLskyl01qqB9Dw5bBJi6zsh2eBDohsXxFP5QCj299XVsJkom7ALRmFb0K0TJr5vRoR3qcX/YPI8Q/3nuo73TIXTPmGIxHW/mnpy/GVI4wnYQ+SJ5hAtpANq7V+SQkszU5iZYE/12y6DxiJSO0dkKgQLQrRBSRyy5u+3Xqp+XYbZT2lx7lXyO0PrGN8puMdTIN4PW1784mu9FrFgz33gUui+gFp1snRgbaYiwgKGzhrvxLgY3bw1MRseN+BDb977ImbedL/xq9e7ErUzRy6JIrmkURatHq2jEREjOz4ZWk9VU4tAR6jurRteZZE2Pui76lwC9j3PkdXm9NqtFkQEjU9HRUEdS+aQBKRdHSRoLkQxVuPjRtKCfhmqOC+kHdAJVFcmlxhVXR9Cw+ZsWNUYDCADcBcD0/7Ruxee014J/cOdvtDlW3673QivqvBlA4XbPoT8PzDEnPkNagAiYz0XvKsor6vJpqV8sGiurInDIGRJIcdK8EmdlcRb1MAhHde53eA6ZkQiQpubgJfr2PpjVpcnrjnI4sra16FBnyVjUNSzxonxChW1Up1VckPzLR9LlvsTHI3dNzz4QDga0m0BjgiXHjrIlPNZIxauSbu5YuNaqZUFg/yK4p++Uk7zdYgPmi7Zb2ejbPwXWAkAu35yRuJRFUjAiigugAPhSwRyqvmyvt+bJQnsTtt/Uj1ijfn6adXJK85t6ZkWX1yfUIZdUm5wBzK+EIsmNN9IqhDfSBoO6u5aKYyf+ElTaWLvqZoqeCzVHDk+0NQbV1RF600Z9Bk5mLhXsRjJ16RkVEDGrJzU1mj+Cpb6hXgSfuWBnWSkL+5XTk8mPfHYLyYlhnqtDxQSagTvULS2UYlWc+DqVAzaoXaIckdNEjxUDhqPL2SYwdB3AoYjrxGhESQtGAUNsf/+e+kqC9aS55VtbUdy2YdBUIKuPTYiZd7xZmJOWhq4Bft5aJ6JV3VSK6ezFS0KGmSg0I0o89Wvk7enZt8f81YX88DkjReuIcrzpaTZK4KYUeIr7qyJIUmzQTBS8cU0IrzAAuQek+MMyGZ0xvFPCXZGgVX+12uelTJJtVc9mB2CrHWDwWsJvtq8Mqejtz9T4V8/oAb/eHOQKzW55TPwsIMLcU9Ye26U3LIcT4ec+uFdvAsWYaoB4ZQgUc0S0hRNUhJTOn5SrY6U9DZu7IsVvwWsk3r9DUuEpdr3wdjGkXuhcdFotpR9YXVBxQy5UmdnstFWKIoWVd+qsaKcTSlN2uVTmLHXfvJzwXhPg0vtS7FhJbLG/TrhUA5fj0VsAAgLLFP7WfbuCbkytMzHmywCDhT0pSLHkMYsrnr3zSIln2UEIxLkrCCOf5HGmG54IfhImsDLFetwQ4V8eSPC7p+Mchc8KJwEf8pCAa6O5tmXhbai6eyrEy4ZyZ8ISvdG1+n8jgldBo/Ps882diF4+O8HJsoqEJlyvh4HV/vHqjoGxehNRhxvs4NE3KJEjikuLQtjCqHpsdgZqJgthOI3OPugDoIq2jZF+Mi4F7lp27FgiZWM7ln0+ZIb+c84psjwvPC17sb17OYB61YJf8XcZwxLGGHwcEa6RDrZgqcZY18mshLXLKELXZsxZZ8U30kyUrsSR8JKklnsj9nR3k+Nrq4+PoQEbxC04TEX9/vdmMrVFvu35g8nVa/jiw3xAPzx73f4dbb+JeCJwO3kGZsIzM9ci4OOAndgomeqpTmW+VoZ3KRwe3FJ4ad9QH/3OnfCKvyFZMqBfs4PIgPWq1zy5qWNNrY6qQXRAOaGIYhsb5mv4U3RngikaJghZbKyg8W+t3cxJkUY14hTG8gsZSJgEssiZFIaLf/7hy3/m7/3WYYOSHWXj6AI1UDU3Hz+y0S7lt45AaNVtBFimR/TlSSq4sa/NvzJ50bll5kxO1KdRwGJurMBE/pKR7U+xxEb4xO6JFEoLnPu6wzuMtMcsjXfhj+YGiyTfc4dnMz7MzsKLFT7Cp0GsCI4UluBEnESk86XVmZ1vpbG9i3sM1Up90P9+MDZ2Z+lJHICaDFSs9S5CkXud5rWzJdEsleS7QCwYREn+lw2JsVNMZFiu8kwhqqSVt2Jmi82ylhYNqO64h4zNX4D47csGJftz33596kSwvPei6G8JiVz0zE45Y/Md/tSeE2DhE7NlnPsFUHAUlhVRsomL8qkOprVBplRru46lBaeKKucev6HmENwrChBA+CpuCa+k0i7mcSsSOhA1Nif1tBIhHbZ6hPabxqjohuviqPvyUxuKBlCjpGNBJkxjAvUbCUiU5q7Dc3JKMmKeZQqwsbhbDJEc6e3q6h3TqeFbQdW1JMP6qknw/IuYV+MyRC6zR8ak1urLVC0NQGkKlO9sRSVM0njkhzL5l5X8xWcrn3tQQp1KtlsldLJ9RMtohxPaORMWoET1A3mkRP6tH6WbkppGi+9D6RySRrFYwOafmlQ2IlOdgkSKLeaNhV7K6t4Inf62ssTLOW9EdYG0NTfiIRs0pi513b3fRXHllLgFTk4Etv0tRJ/UisaPRMT+zlk1oGnlWrJJlpamVVT9Ny1qhXSTRHG8IZ8Fk+e1Q1TqqkAXb7YdqoJKrNohgtIXVobemQHM/OApvHrvU0Mq1LPAqkuA0w9wPY0HDTfySR2yPGup4a2PKq20YIJxgeN8pGpaxG1dReqZLNp0p7dC/dSFKSfXeUNNLpzEmqmc00yWHROCNCrZEEEtUFWi6eZLO1UuJQeKfVMlqTJqrlXJIQY2G/GQaeF0/tsXT92S1JbP3W6nF8bChj4TDzvANwQDqy/GQ60sHYlB8DI/LKZsXo+AtFgRRVN2WVE3RdZM1+dM5NXhkJKnAaVoFqJa5AaIWkc6wcFBzXFBGwGYdAdJUksHojpRPaWGrMI58P8aSYfHp66jiniix1nNPOKatrXHjgzCNa5qSB5IiILcVUJOkx/viiEnkell3PvOdKadJILHtDbpW7w2EtOWvpiPEP7LGoyK4/IAXVfjpssdvVOdbusMO85UmnWclWzIWRx/VR9dwukiOxSzyNz9qYSpKMt1DC207Zvhz6mQOexJloAZta9kwUT3Ycc39Db23JxTrgez8LlCohliYKqM8sGBTuIMpsMBjPLG1i23QE6Ocr243hPGJst/2MOTwDz0XQNHLG8my8HKQc+XYj7yKLO5k4mKRiEawzQ8/HDoU/Y2iOgYccN7XJCDSWZDO+uTe1RET6qBnQB1cs66oddG+iId6+yb35DtLJkZzQBrYEnwVGO2PD+L6jKKefWxEx6NUEl+OiKz8l7Wy7q6x59uFXwb1dMuFFUZx0Cg92tkAMsX2JDaRdC8m0B3TNGoJfBs49vYEPMaHM/YrNl3cPlnQt5fNwQzf7l3ic5C/kdz4WZmmIjZaxn4C26K8IsvP8lG3JuoU6vxSJ97UcNl4T0rShpWgZnL0CWRpq8g5u0uDfbUS38SQieS1TKkazB0V6VCnWj+p6I1872PPWq24OsNnxjEyBC5men1Q0SGkjeszPIK8lavksSWa0xl5DzGhapmDUnxXeeUYu2dCTCaxrVBMkpTK/nFMnPibrAk5ThOg6yVEi1GkSfvV9iTxArDUMWs7kM2WjIpQrpXwq3yB7tRXHGN4EeqZrar2ezGSMw5pRfUfzmWTRoBVSKdQIbSYr8JKoQd9l1GgqU4qSPVJNHvo4vi8Qc27ERcCwOCzg8oDlW0GFVMNICeQgV2yK9eIZiSbzzaJaISDWwpGabhJSSFVq2UylIjb0KKnTenbP1xkEgOXhuDdCPEmmMplcQ6+RbDJZL9dpkx4W66Vm6UTXjyrlbJ0AP6kFWqmU0rVKRXtX3asc+TiBQODvzi8WCqCAE4JGxJIgUI2jGCLlNJaxERLkZHKYXqOGmBCpqBKN2yRd9B8B9/RTa1RyS1+7BQmoLH+LLbbYYosttthiiy222GKL5+DXuQntZuT217/v0hvBWme9CRtCIcKSsK+ExylvygUHCU/9q0gs8laENyKvJr5pyh5uKsKT0f7u2xB3/LtOD+h1dnf7r5txf/d84X1RVoMnrTc3KutshGz23nJoJ/bLSOTmZjsbUWt0M3CLDWYiyE/gnn/jNU8kGg2n74TyqhZne06IIqE5968iPM+5eezL9YfzEb1pA/OE5uYeREpEvfg8TeymIDgS9sZF7kE3sXrSqJG9crLUODtppmmdErVcLtKTepUcNpIpMdssH7ojOhsjaDiPYr1ZEE4oIdlMIppM6qUqIY3s3tleo2Q0K2dupsgXEtHDFCzAYSqTIe8LxpmWLZNGoaZVdCFJmslMhqs/pkE2ikTiIcnmNEy8ZqvqWamSLUVLJF8gNbiaZnI6ZT9IJBZIMdmkB7pYoidn2GfxqFQhTXoGolY8TFBDJbn0nluOslEkok1CdHaippTK7SVUtWpk8nWB7KlEJ7nUoXs4wA8SCWfpVPJQSDcOi2KTa2bKajFKSE2rVtKHWqq+p9cqqVTTvTvpRpFIbKbKZe0wWa+lkuR96h3NGCSxBxykknfVVPrM5SMvJOJIa9J9JMcaUOoC03EJlXUVAw3IDthhC6pE0V2QTVLXbLvKatj7Bi5FI2LRrVDLiQRvsDadMpDIw5lVzt3RXCdmev/ziUczKUVnP7jJI/xlg+wi/nHevFuKPnlE+OlTbkdob1w0enMPm876w/mIN5mOnriIb1/F34Td+OlmcFHnDXPue+j3xPG0F34bIt46J/oF8U2T9lBIs9bRl01gojfCS2t6jl8D/k3dA9wj+a+Dl5jaGhfMewpQ+YZX3K/32Yu32GKLLbbYYov/dvw/dtbWScB56eYAAAAASUVORK5CYII=;" vertex="1" parent="1">
          <mxGeometry x="250" y="572" width="223.33" height="134" as="geometry" />
        </mxCell>
        <mxCell id="26L5T93bEw7jJD-IDhR8-14" value="&lt;span style=&quot;font-size:11.0pt;line-height:&lt;br/&gt;107%;font-family:&amp;quot;Calibri&amp;quot;,sans-serif;mso-ascii-theme-font:minor-latin;&lt;br/&gt;mso-fareast-font-family:Calibri;mso-fareast-theme-font:minor-latin;mso-hansi-theme-font:&lt;br/&gt;minor-latin;mso-bidi-font-family:&amp;quot;Times New Roman&amp;quot;;mso-bidi-theme-font:minor-bidi;&lt;br/&gt;mso-ansi-language:EN-GB;mso-fareast-language:EN-US;mso-bidi-language:AR-SA&quot; lang=&quot;EN-GB&quot;&gt;DevOps&lt;br/&gt;and CI/CD Pipelines&lt;/span&gt;" style="rounded=1;whiteSpace=wrap;html=1;verticalAlign=bottom;align=center;fontStyle=1;fontColor=#0000FF;" vertex="1" parent="1">
          <mxGeometry x="580" y="380" width="415" height="380" as="geometry" />
        </mxCell>
        <mxCell id="26L5T93bEw7jJD-IDhR8-15" value="" style="shape=image;imageAspect=0;aspect=fixed;verticalLabelPosition=bottom;verticalAlign=top;image=data:image/png,iVBORw0KGgoAAAANSUhEUgAAAT4AAACfCAMAAABX0UX9AAABU1BMVEX///8eR4taLYOQvz9Aoc8AAAAbRYoAOIQAPIYAOoWOvjpYKoIANoM7n84VQoksm8yJuywAMIHNzc2MvTVSH35VJIBNE3v09PRPGHwAM4INP4fs7OyHuiZTIX/X3ehMDnpIAHj1+e7q7vTE3J+Xw0uotM3o4u3f7vb6/Pasz3Y7oNTJ36htgq2Wf66xvNLu6vJRbKAAK395jLPI0N8qUZFxttmdxlna6cPh7c662uyjyWTr896ioqK92JPQxtqWpcO+x9qrmb68rsuo0efa0uJvb2+Imbuy0oB1VJZjOoqDZqDR2ebIvNRCYZrR5LZddqaLw+BLS0s9PT201+qfjbQAIHt/YZ2Lcqamk7rO5fFnQYx7uttPprpfX19SUlLAwMDZ2dlZqaxGo8WIiIgAAHQAFnlvsYNjrZqGu1hrsI6rq6slJSV7t3AuLi4YGBiUlJSAuGT6Swt+AAAgAElEQVR4nO1d+1viSNYu1A4hQIQNEMgglwjeQEFARRjlogMqIna3ra29M907szO7O7tfz/7/P31VBUmqQm5AcL7ne/rssz3KJU/12+fUec+lTgHwTb7JN/km32QeKW2ddzsPT49XL9f+leuXq8enh073slT6s9eliiin2q1epTgq84cJlq+Vi73WQVWW/+x1ga3bztPVSiwWj0SiUf9YotHoRiQei69c7d9u/dkLlKv54rDGBrysJPE87/F4GA/D8xLr83o9w2J+8KetrNR9iqbjEYjaiqH4oxvxdPyxc/lnLTCVr9TCEDeeYTxGAmH0BRLlVur1l7bVuYrEoybAkRKNpK/3z19/ganeMOCTjHGjhGcDtUr1NZe21bnORKL20ClquBGLvy6CqVYt4QQ6RQ2lgLf4Wgh2r+IRB2pHy0bsuvNavuSg7GOdY6ciWGstf2mljxvxmbEb62Akc/MKKij3fD5+VvDGCPqW7YpL+9HZFU+TaOxqyQAORqw0hQt2uA7Eu1z73dpPbywAHgYwvUwAB+WwgeIx5ZEz/KQeekh5OSCK+/ENO3QiEVsA/bHHJZHB1MhrCJNXlhMIRYwsz/rwh4zMmxmixxTD5SUwme6GPTSRbtf+Q1ADH0T31wda3mmzxeJrg4CHCQwrHsnDlvPtog/+VmMC0wgm0OaX9/GJnssL3Lpy4jDSW1sx+09BmP237i4PgGrN0NkyksRAmxzyHhRelNkKgKFay4d+q0IN5AM+UmEh0FCJoaqynrabi/uYtmR5fsyf4/HMOYRvI52O2+HnT9+4ymLEYsIAPMYj1Xq9GjsClcQBKDMp+bCV//B3ORXOg1ERDLy+0aA9ZInNr4IehgybCYxcU0CoepZgxF+erjdW4l1Q2tqKx/dL4NaeUkcjXbeWB0DbY2C3POvhy+jdYQ3kw3JqCEOLmtQbDMRUogWKh8V8ogcGMiD8ClNDny/iFyS3FPA2ZopGJA3fw0DcxJ9A57G0Fb8BnRvgYAv0p5/cWR4AlbCR3Q7bgw9y6oMHpOB/DmWUdqnWBqBXlFPeRB7IlUMPaP/9VzkV0OBjkdNojfWRCVfcWFwnbbrrbXRLl4/xfXCTvgWZ21I63S2lz8XHF/ijLXwQ+2tXXLBMmp8qbEoEvUPQGuVF4GvLgZT8IXE4TIDqrxBMT4VhoP1CniLnUwR8Hl8ePnDgVZ4xdIFH35jqXvwWPJ2DyG0pE70Cj7dbsXhXTG+JW6XSlhP4VvxxFzzIgWTIVtgWqATCEJ92xQNttVYBVWS8VVCVQaoG2h+GoJUHw94AVL3at6QifKKoPpCX2guv78pU+TLgIe1/iXVBxn8N9jtgJdMF8fNSJhN3QF8wfunOoqvrJYzAw9tY3hcYgMTh4cFoBIqJigzkIsv32sVensVmCSGtfDhkaoTlMx70xlDFj0ksFAcj93htAV8nshK/fgL7mX34MbF0KYLrK7DVgbGdM/xWYgtugMWAEXZIEikxwY+QdULfcVBmJC8fgA5G8kkSy7CeYhGylgEYDNpe+ltA3fywBBbYAHGWyVyTYpdQ0zqlzC0QQSceve52rp9WNl5uzzvOQ7v41SIEYeQzQw9FYCNeKldTBzWemeKEDI9iELZSbZcp22fR5keas8dXnBu9DEoUZ0z/6tFHcN6BXjZ2tf8SQSmViD+KdrSYQ9vFsnE1P3qGTkMBqIZg4H0Bi9wVI/l89M6JqY7oI7/Cludb3FM8vWUJ38rG4+XWflyhzTMIrohsRKBArr0yJ4OWYaCBGK4JPL6DnsNMCyXIGGiNlIbzGMhTfCUDv2fJQaKxmG0agf5COp3JpCMrqBy3//Cx0+3enl/OyV/KtVoNWiHrDYQVSZB/b4PUlb0EUL6lR39TGs6FHvQNMORwxEGconezVVpGugCKKKL/O0xNmQqfQJtfW7elSjPb7z6K/WPwh0tHSQDH8LmPGyWLwccnRjhXJev3Sxg2zyQfEWj+FfjTuavwEX5CFGVZ3t5+fj59f3Fx8X8APiZQVqq+U+95Z+IvXWyx/hf4461t+kSRcYXcb1b2xR9B8F0cQVmDElyfSDC4PiN+zbOzTSgFJHdITk5OskC/6evggV4GiRl4NSXNXDV4SmAG/nw+3u8gMYFIOoDPH43E0tHrq6urx8erq2voUOLGWX38D3IP4YLYoT80WX8/E3ohgZZQKJRsWsCHHIzE1GrDIXQ3vDfA6suYvtrB5NmpcsLoIYm208WVJgoURSFBx4bE+aPxdPSpe15SfYJYKl12H14ysWkIYXAHtY/CTcXv2Tl6OzludUpCJvDBeCPBjvLtlCwj9wLQnlHNV2qJAKsURhiflJ88Wi4aZ/zhY5ym8K8mIVfkAf6yb8lMorHrp1tj3iZePrykdXU5C/iC69uO4Ts2QG8M31D/d5cCw0rbOHEyaJUxa4YxiWKZciVsynb4mrPFPSjmGkEB/ZN5+OqPp5+s62ZbH6NUstC/Av/9368bwQfFKaXZFQzQWxUwfJRN8l5fz7IHSM6XEz6UTcAi9iQrqsg6ch/napiB4TPNV/ljL10Hf+HLG7JA54eaemoCX3DNyfIAOAsZoTcNHx8Yte2fJucV8Fo+ixgQSdjB48QV1d7iKI38aAyf33nFe+tJq5RELeBbCx45edydMXp6+CB4M9Ub8zXz9MNEGN4+fXqj6QrOZr7EN6LTPWjxl1mq3Vs3SsY6AgO0ZzP41tbv7Z91kjRGbwyfkrxjZgSvyhvULadEsmXPt0SMFkMJF9w3+rKyAYP7OGqD3IBoRmdOc56vjB143BK+NXv61xSM3IYOPob1zNgqILYCTgh3oG3zGFLP0lQsX9q6vDzvdj7uP93czBHkP2AFRP8i2+bwra2fWj8lu2qG3qqAaDOGj/fOkSOWR6aZV8J8Gevdfp9keTFXa7GX1xF7+IJBS/qyY0hZdPCxtfmaLFoO7Fey9L5bVHIveulueuQpthKDW6ZoAR8E0Gp7bhhSFgI+GJkF5k4PVxl7Aw5bESGdm436UZ/8zf7H7u3t+dbiuthJx25t4bOgL30L9MbwMQsVd+SabYqQt8j9TWVX/EpaGLqNdDoTW7lerDR2m0FcyDDq0PAzpS+bJGXh9FBi+KTAgdm3nYhoXDwhjdrCe1zZFcjS+4ssDso5gn9Nj58ue2BCXyjCxx0XQvQ+yCH4Eos251W8U9hBRIn8H2Oqfud2ieXYw4KLG4sevvVnmkkb41enda8OTmgOw+3ADy1+TKOnw48fVnEtXq0pmer3i03BxyX0gH6zg872iNY/A/rSJI2Vy2WzdR0HxPC5ID2KwKCuod4IFGupPGutfrc2eeX4oparyBEFFdzq7i/AJxq/qewVnaMKnQAhuQmyOcF9+ECF3P+8VXHoDbegBlYU9fO2Db9mEt0qEnGtI4pQNZRmFo/W12EoEgxqr09nr44pTxFqZpOroT7FA12DD4wI/xuQ82G2JqP2S9WcDQtHWxYFXSjRF7dWBy60nS54irLPUANP14PP1KZIM04qRyUIoQI4S3JJsKNFIZzg2vrEmsb/2BbuxKJ64MJGtNw6L+qPu9jQrVoqNNKL0+01qIFrazI4JdCj6R+VoxJ2C7lQE5w06tmGRgUhoq5JyquBhQLAKhvmiXYEo9BDtCrxQMriYjMoYb5H9+sIp+3gJ6SFlEch6N8dmWURNuEr/WQd/rmbA7sT7RP6bq4vT7RMDuXih15KHBB9V57pYMy6orbhltsYi6iaaRD+7+JovAPSfEajLyeq7kGsoMmeHe9A283t5nJZxR8LDVfXR3XsSmFIVXpVkfAn09zF0nH4N1zuDdgmmHIwCLe97eDaKa1+avaqqaF3zHGN5k5SyGVBIQQVrjnxx1zONb8xFtlLEeXWoHI46XnGzmMq71eydBwx1w8SkEk/SPOQN9kGzzr9w/RP8w7CGTgONaDmhTiuDs02d6wQPxxxuCotjb1AsDxlsUhqZFif17As50YXaCIzE6pg9AkiJa+tgXsdfoi+aIQPBmq5QhJq3maSE5DPUN4J1d1fH1E1YcT8hwFosxp8vrzu05bhbnoZx6guSP37BE4vwJG+CBeE7ljLUXEClyzA2I1rgjthlWAyobslLK+teQ+pCPLDyocaYb066leyYi1Lauz5RNC/I4AUEBzpclnBPS1HhZIEfYhUMwSVbZNEb3MpyyNKxhJTO0RVO0Ihaeu1tF03KR8pRPQBsdtG5rtNp6L3ftMIn1AA2ewqDtWSBZLIuEpZNKmq6sd7h3kRiAeipn66tJVVL/fyusqIKGP9PfQmRyJt03v/IIMNSJWbAhc6AzsNgkULx8tanaJ+PCrayUUp3BNVRMdnV1Wx6q6NLW0UxraGH+QtkOiJa0dED8fe36gcVS6LkwTJ3SwZ6bpNWTQ58KrwVXoHh1I4D1R3zFAdG1YtpLjLb0lC0Jcgsl/4pywrr+39lUyyCMKxgJIEjQIkf9rLSdcpiyYK92O8gQoYFdsgz6qd1BR1sdr64q6Gazoh8qTB+9N1RKAV7Qv+TBYlhV0UfYRQcNEnXl4GZVFFa3HGh93kXoIN1CaEhspaWaUL4ksdgEFmX9YRUVEBDf6TgIk7Bmf90O5x6LhAVtuSJ8tc24A4sSSVh4kPtV4VyOP9TyIrUuYHr8Y9kksUmr5oeYO9/1I5qsJOspFFiSsyw7wkyqIKSZ1rlbaIBhONmCnmV1oxh8/Nc7eGQiRJ17ZV4rf3G5UfFTZBE9Qb2RMqc7UkyqJKhcibQuM9KNYCSuhB+g4rz7GUiIMSwv2qSZe9f5E4hXKQ6jX7SWGHpMtuZ1mmpUpEHpXar56hlnJmWM13WCWr4steI5CDU4XfvX9Q6MGgrA4Jy12WrBctkbIoIoaJzQ9PQ9AyCQGtJGrRvxx1rcJhLlNNL3t/o/c9cHYH6smTnROCsnDuZ1mmhdj82JTYG/W0tAuRNXgwd7yOacvvP759++PvOC0o/vjDj19mWaWuYXLvZ3LbWw3tbCYLO7kGJ4Tmpiyff3j77qc/vsOr+wHJL9//xcHXyNNZoOzjD6vqYVVWc70W6Za0s5Djy7/fjOUzWiD8r5PFaUJGapDwaTkqAdWFsvUzkAupefnZKYv402R1v8Bfvpv8/ObdF9svHmhhBg9G4cRQA5QI28xPPK9EHLE+dUkYt9nho+ocwf9q6BWajToqAjWSEEFSI2eiLG/V1f1BrfWL3ReJOQfQWAcDIKv9LkS9yNxz+F8cZel/GuvdF7jOf88FH0Ff9v6jbXyoLFQICXXQbFI5qtkoyx9wPd+L4Lsf4H+/w/B9Fr/7/A7/Zi3E4TbG10qlWh4tDaMl7C1PPDuQLxOrxUv7Mhd8Kn2hCB+XAyB7LAibzWafzLLMRlkmVgsA3GG+x2vEq/v65s0PNt8U1UEHEs+w3vDhsFpT4FN7NdQ6hz8OJRKJbGid8I6SVeifd/zTu69vfp8PPtmIsnDHBRjr7iaFZIgE9XgmyvIXVc1++Pr1Bw2+39VVm4vietl2xct6iwMNUI03Kyee/Ve3XSidzkc1/eesQAmt4i3x61zwQfoS1FMWlKAXGjugsNMg419hNsqCYCK2IBW+7xwsU+EpvrZY7MmgWtTOwvHKZ5SgI3pTmgxbPld2w42PThb4I20G88GHsld0jmrM8oRcEzQpItOc7bnfv3nzP8SvFHyfbb5bVGO0NvytXRxqDfgB5TNqzOaPpDuX/mv/rTpEKeIIvp9cgQ/SFzpHlTueaNsxlSeYNcvyhwl8ogP41KiX8XrK+RT8knroMKx8hgh5Y1vdzEbmQR1gEHHUjOuO9kH3S+aokNedJKeotOnZrE81076Z4EPWyiY8xXbRCj4YZHRuPopqEOxM++De9xPx69zwkX1UEKazPtfQn4Lhcj87P3k5ls9v3nw12/u+2Hy3SPeKM5LWKaTmmwn4/H502OpSbRfacNRQCs3j6/inH9+++zw3fFQfVTJbSEJ219TD99c9xycvJ6J53l/evv1lNs9rcbg/rCxDg88f3chEV6IZtc/Umef9ovw7jpc2J3wFAj0Y3zZ3muDujA7VVoW/7Tk8OUgIYs34h68o7CB53y92X7U43K8arzaq5eoGD1c5V43XYcIFMvivcElf3mE1nA8+8qwfd3yXbDTrx8kGffQ59I89FNV9mu3Jv8D1/D6JOr4oUcdfnEQduvPBxvApUYcaYojq9BGHNd4vOIT8OskZzAUf1fot3IF6KJTcLIAC9fK/9jC3dnLykhDxf9TV/aGPz22+WTOHj1U/pUQd10+PV9f+WCaTUfY+v8PmoC/Kin4H88GXJauPAsqQNrnjbLZAJef/szeJi2cbHAHEd0YZFwdJNdl88D2RrVeK5P54xP/yuN+5PVfOKODT847k+7fv3v34vZpRs18aJVTjPHcmcKFNkF0NCZTu/XdPzcrMMjgCyecf3717+wdelPgLku8/2xouGE/RNRHidJYCVqR7ibWtdKmW3tw9VWkqZPWR64O6wCXPdOcnuX+SOcEZBkcsIO2pM0YafNrJQ2XcQ3S/6396iaYzGTVnEHuViyKos36cUIBRmsDt1CmVzP1Ml0Re46qclvl0AyJdqibroxF/Jv748bb0UXnFWdixoJBn/QRuNwc1L7t7l01S0cZf9yj0nA6OWEgq5icsiWQ90aMRQcn5EnhQgt5lV8mRkI3zOBFaD+3CPynGhwgfLTPTvznEwvESXRrEQdRIt/t0ndkvqbW32NLXSJ714xqgcAy9bjJ3Rp0jGhO+CW64sBkMzkhf5hDR3HN4AtrZmBKRrY/EI/HMFVD7DpbXnjaRJmmjwl02hLzGGdWMsSr8tqcMDBtvgGiK2KdPy3YfVXPP4fFoe69I1Ir88ZvOJdGsu+zNj6QsnAC9Bvw9iZqXSfQg4QtePD8/b2/Lsryk+YkG0jPf+qhzlVqlEnfzbXW1phenxHleoVodN0M5kD1O5qD2keghwvc6TIUWi4hXIicmEHXyjYfHaCZyFVPxiy21yYXKURVg4IuyLPrDuz+v/Tnw5c0HC7Hk0QRyiMEGvo2kpJ6Ndpbym1PIHBWHQ7VQ7q6+SZ+zx4QPTyiR5cm0yft7NEERbofLpS/m8AXIU5XkmSK42d0+EZce+KPLW16BpCzjUK0phEL0xjcmfGhAybM6bRIJLm0Gl+p+e2a0mQlQnyN8R7TUzUQzXe1s+fK6c6kc1S5oclyoD7L0qJvQhPAFRePhYbOO7ZxJpmbAKqI71UZ058a3Opn0S0lDdGnOo0nnRwsguyqEstkGleH7l0L4gMnkv1mzB44FmadZtpmlp8Vom58/di3eloCoZQ1W0suJe8kcldAooDaWnd0CoPa95G97RIx2oR1jJaIP67lNc0sVZaQGJsTZSx8oVw9D+6+6JYjm/nWMoILuncMnhCJ8KEjDtQ2qlWU1tKm0PpPwBY+o+Z1Lin7Lhwgi47CN0Q/iVJIuGx1wuR+P0cdk3D+PCrQcFQIx2TxZbcLY93izT7WVnhG9Q/Ar4wOXaPYGrX/LiH7bAUztDgwCD0YK93SfVjyF//plegz9MtSvr6LHcbnmTk4QTkCdo/OjuBOIgAjPQECh7jZ9dHUZ0e+Q90iyUbqeYb3F6VkQSthrONIg7nrkpuSouAbYTOaaiMIk72jLnXQCjU9u4fIQ0sT19/AV6C5o92Ez9m92yXsn/kHHXRhvrWWUabS+4MXtszHEPKo7GKoJ0HJDnNCnsstKJxA+uYX5HWLKz/jo1j34RI4+cN19yBg0Cf1EtId7JO/QZAST9Wx6l8+T11XCJ3DQYTS5JLJcji7pqp1AiK9g+NDgiFOI5jpURfmUbsh3dX2TSTh45IN2ClUKFM1nZFlPsIq5yZ211gHujusLqCoELbdOBRtk8/L9+loQseOxw8CJvqMjegaqu+5jMogEHx2aHO5gfJIy3xkYWa/NcHqHPeJORKMsXB/s4L7lnePkJl0Qp6bafAri0uTE377H9ntBz8JyE7+BMoYzgLQNnetlvB51y6uWjSYsitYTwPzXruXZiLIaRGnnWEC5+V2KLod0fVRHyDmMp79AmvcM0TsihsG47H41b4vLaQc+ntjyDoaBsCES1lOY3Nv+iBwVJzTvEHKhxs7ZNGUh/0Zo2JWssOYgxupIzT27jB8xAgy3UYVHygkiueXx8ibjX7dsrpaIuHMon8hRcdyxkGzsgH6/v2pAWUjZfkazc1RLxVOHLra3qbl/LmUPyAF0LOLHitWmihLLwE3QZDDvk821Ta4M8COKklwuC7LHIfgnnZw3O2+lHt6CJHAb5U+39fTZDfxa5PhDpqYaanuUwFopmU3mtb3VyQX8yKaVZD27uQN2k1zhjM7wmTQva2ffghd4+No6dCj02M7F8cvT06+VcVX5oXKPR8J0KrSd+i18JyJV0uU2keqhmUqCKWWhhJx8AIkepINQDXX+Y1H88rp7knFyAG556s13pspnv/tB/Vts/6M6II+RF4HxLl0XshjER2ZLof/9FESdLuv0rT0L+o/pyeGB6njLU+A02/mQPNhejxi5WiB865O6JyDNQ3TlJEehZ9H6TTqK4DZURmTA99uUAuJhMPOK4Y2hXrJLzXLqumh/W2J0Y97kaZbsGxCOz2CEm0XT0Oh9b9dqeRRQCKb3SNvu6fTV2rzpZ+OLkmlhLTuTuva3svnT880fviP7BvDxgp1GiD7pZ3tajRr7t3Z/cQTRky9EcbIdTt6Y04BNLkqmxGcz0t12cDgy4OvZA7gsFVXAfa+AEDwO1eksi90BezLODeI2F8hggvjlT4QBz6GAsvlVv5pYTazH4uhKSn9m1g3wTmeifZDkQg1wF6InV9sfsKeKbUGoezh+e0bDd8kM/vr9jDvgAa+71jNgdP+J5X0JWDpObgWcsXZ5ktPNl4c7XD+0mmxSg9RRCGf/LPLgefATdBsoVwCNeE23A65fzABgteajPa6vOBgUp3ZCVp+jNxAn5ovj3x2HBxtPGjR4XGg1F4JOI7mq2/icHbC/p+13gh5WQJpCrznlgNWynq5AnAbyVHOko5vaShFb7zsZ6Xfct9eWbGFVf7PBKkTpbBV9te6Q8NFypC8THa1/gkb8fE8Nfh53ANonoeWDGmWmjKfGM7yY/3UE2l4KVUvKp0nXwfaHix+FZKhxZ6WCOyd9OqDAKJ3snBVWhWS/0BesclTmQlopjDsQeiIud9AXB2ATPjq1tOF2hafNlmHkdm1YA70iyPsq1FsB/cBSE9m33/5w7S0bQuT3eLNu5C53moVGSKd4Y+WD257A9etJQe9NnIqo07Fx4VIE+smxYwDXj94b6qCYyo+83qkOPhTkttBY9eKHESCrlPa3jCniYPvLIOvF7RRovEqjX6g3FRCzzZPNfoMLGV8JBuGDga9QADpnMst4gm2qTLSG1C4og0/3R+vTA4kwgkG6EicPDnqjmnbFJ6F8PCMDkYWBrTwqiuQt0XzNsSsSLSaTTAQ3nar1Mg5d8ZqcSCgEkTO/0QoNbg0l77K0051topKuzHGEKm336+ufLi6mbqLBAGP0qj6kTGwikQgEfNI0dOjNWpmpFEE7gK8zrhJ7IiPNcBDiMm2H39h6ra5eMpcmaNZ1Rzlmnah0QTcLBd/D8G3cKzS1/8EoGP/Ne16r242x00B3GMue8AEY+RK1YpncFZ3cT6mJ7b0745bxXXMlMxcutJmt07eczjqeQH8/APQbKFf1vB6Ut3XwTS6eloc+c+DG1slDugI9RjUhyWKxxfKkP3bqNhTpWt/eMWk6PTG5btNGBJ1PmWcIJE1f1uSLdRFuiRArxPiId4JYJ9u8TTzLJ8pyLTX4FRrtyFdGd0yQ7wYc8GVaOjb65/ejT80Hn06Sc039pvGDzgQ5XmjAEDCNP6+Pj/5WEtaqx/DllCyXK1I1NQKyVxqWqQDYOzN69vjhwq/xTcOzybwjNHW7XBAl7yF1RhOg73WGa52I8vl8XhhQsDyEyfdhAA5Y+rpA31z3Dtrgh8/pz2m9FHozj8Ywxi8IAzd0ccUREOVJL9YaJnwHhle1E6rXRu1oB6DMs3l0s061SH/e6+hW6GmxDj/wPeM75jeWOpRFBpDqgtyj5+33wXUZehEErJL2K5rf3MmwXt7DHoDKAch7QDWA62q9MI1eYE700GW9VvwF9+xaXhvpRPesssu2orufB3Xdn+KOGJXspWrGhsugnFTtoD1ivaD1AfoKSFeGPM8UdZ9f6M7L84hF/IGtt76Y9YYWHH6r43+4AoxfCo7JXt5rpHowzpUkqdeGVg5GYdBOgYOhrwZ5NXxL9/nEjIyFltK1Re0yjT6xCHzo/o0FRX9W4Wh7wmTQm/LI0HBZNMO/Em6B1iEry4cp0PN9aPXCB/mpAJi3uw7aTsQbk+qHfyOOz/6ezW+9HOfC0O9tXZg2CYdxP+Dg0Mhu+TKojgZgNAQtFjLlYQX3TPUkaTo9OudFyaR0YtMboH8jfb0/LnjMb73CsTuzb/V3pExgRHS5ZXSiFPoKifWBalhOBfghVkMg96YrHcz8FyWTcrlCV3/90bh/XysW5eyBMpT5CYteLtYN8wQoQ2J0JtLXFgNMIiUftoHnEI0S9tVq/PTRU37WQM1MxP2Mdj41Govua5XebKExH3MRVl2c1r9tpIC4X1I2UD/I7mp8OCWHK0AegKrEeAwSCYxvuLjhKnJ+Pc6gRuPRp3M175W9awjGST074UK77o78NlJAHHK0DYxyCNpSGRx4JVDNmxz64+eJ0yzkIRaNxmNPtwR2uyYJ0VdWvbEYKSA+AlyZxseHoGmjXin5g/GYoICLqjeWrccrDbudk13OIBHvEDxhKfdEPK9NayB6vTa9/Um1EapMIis2QI9hJZd2PUNBBaC5sYNcr7+sYfPv9QDiszQpg0Qfg9kxX65OT0hjpEBviRN26v3V0AJUL9SYOTM6g1zoAMSnjQzZyxiqqZiEYanBx40AAAE6SURBVNnKEsHLNpLzhxmckNxd5t1CSHQAriMsyuYDMfTgeZepeUjqu3N729WzZWqeIqfkTbVj9uKxydOPhffWWq8w5KRZyCVnRRAqXuNu6deTTGT7XjuxgLNW7bAtdowULpscV3Nfmme5GVgLaiTdfIXLSQg5PVKMGAdvBuxFZ7S1nttUxVqam1AHbSHkIHTJRuE1jFYn8vsjrIPj4M2AvSjQ8b7wsPW62I0FMuecEDLFENXOVxv9k9ey2Wl5vsdNGgBdvGFE8HjJ560VD15jEqCJZOuFs2MhGYIoCtxEBNxzIDTO7pqva7IGsn16jxvV8gmeUYXnJdYbCHtGvfafoXZTstM8uds8291tQNnd7W/endT/dOB00isP8VUbtdpwWB5V8m3bRtFvohPxVeevfZNv8k2+yf9X+V+5+VmCVsc9CAAAAABJRU5ErkJggg==;" vertex="1" parent="1">
          <mxGeometry x="597" y="405" width="220" height="110" as="geometry" />
        </mxCell>
        <mxCell id="26L5T93bEw7jJD-IDhR8-17" value="Automated build&#xa;" style="shape=image;imageAspect=0;aspect=fixed;verticalLabelPosition=bottom;verticalAlign=top;image=data:image/png,iVBORw0KGgoAAAANSUhEUgAAAQ4AAAC7CAMAAACjH4DlAAABF1BMVEX///8IfPoNEBAAAAAAevoAdfowh/q1zv0ABQXAwcEAd/pBQ0PNzs4bN1U0j/VMn/u52v74+PhYWlpbp/vT6f4MCgA6W3x7s/zp8/8ghPr2+v8Ac/pCnPvr6+vw8PBnrPwVi/usyf3g4OCZmpofIiJzdHRpamoRFBSoqal+f38YGxvh4eEmKSlgYmLW19dGR0c1NzeLjIytrq611v2TlJTg7v6Ov/y7vLzJysowMTGioqJPUFDP4v4mJyeAtfys0/6Mwv2by/3Y4eixvsZLhc8bGAEQacUQTYx/jZtvrO9LnvthrfwIeO46aJUwlvtGeaw+idcTAAAkfOArRF8xbbASGyIncMMVJTQrUHotYZweMEJkhac2V3nuvprGAAAMdElEQVR4nO2ceWPaOBrGsWWIOCaJgQ7gciSEm2DACUeAQDN7p9PMbNuZ3Z3d7/851gfGkm2BAdk4xs8fLbFsXunHK+nVYUUiiEqt+qDJsnBQn3Ujbqo8afdlQ2ytdye6auhw8ZM5AADKmWSh/GEed82SWNcNsfKHp1nZNUsHi58mAWARAdCfumKpWscNQVBr8a5YOlzdtp5HqEgDwg5L1A3x0r3FEAS9FHVDx0jsaXkEsJbs9/uDpubLoEG7CSk/rr8Z4IaSEx85iNhXaYDOvH6XEkVxMuwN1HyCOl0e5TuSoSf/8OjO1UzC/tBo5id11alBe5qiqJlGAzHET+oD1VDSnZZqf/FtJT+w1sAr8EyFBOjKxhAvaYaoV8wDNVEzeW9pN1M9rAegJPhsNZRWedz5orqUVWdttq29iDh3g4eNIZUHfPJFRNZSncPOVfnJANKGARpVmzxMnmRDYOiHeOxezglM2sag/CNt94DJiZ2h8lBxj2cftB4l1Tnq9vU2laTsHqBtb2iqGALujQsca6ZWW8k+sdym6x7bDYHh6RtTpfsAaVI0LtH1DpC2azkUtZpKPEJ/ULCvVC+tk1LjdBvTLYaUfNROj+OeVXpZUqoWEtDTcKshcHocSiY7xFxWG1RxNB9JhrqKIUCqSt6po+TSKxxk76j6BMdAySWxsoh0KwvYXivB6QOPudKUNkip3jWlfeiLtqOu/CpzkpdKdOsKSJPGJS01Nj49DnU8+zyzTyxRDsPY2jZDoO2DQYs22WAfD8bvaQfpdfsSa2M4HwTpkTQ5SldHVlRFMFRSqiwcnL4llUdPqnv07LIyoQyDJQ3wW2pS/fRNR0QbtbDQZlYmnnRh+gdYDfGSVifB7PRDODm2aEKVh6nR5ycqDUhVKg+LocEauz94rGf70xP0dxMfWaU+15I09QSshqqz+40T+oKHNpXOglp7UtUa/lJKUsNR+DyM09RMW0SQDYmIIaT3cmH++CKvfxIWWUdPyA27VnlrvWFLmkizdn+9BkB5WZKXBsDOkJs8lrk1D2FVWTh7pPTYWa9KyuqsF0TkTD/Sbut5KWljCOdB2aSwzAnqh4fKteNstvrAFHEB0Ju4sGQdrze391du8FD+u3bqG2o2xccn9KcCoN9yZ7hdknqoIQjMvwNLnBQ5UMKF8m92Dxqyyqm7ubF6OL8TXWvku610c2No0J6Yli9ghzaPw8RXp7Nhu1F/bMXFqpujKb4rTqW7dq/XmIliSdnl4EseckbL5VKp7EXnz/MlWZolC4+aX3icRi7zUHoUYZTfeZ9vxA9drC+rgvyP8JJ51zyo9bcrRg1G88t3xcM08QZZSjxWhZH24X3xiJgnIunEY8LbSP+Y/3RL4xu9Ups18/DB+PaEsvDww3j/hGo3Qx6oLP7hu/3Z3sqeh2exsu80NM8ztErVyaM8khpKYvcMiZjXdmB9oI9+e5IfVmI81tA0AWL8CWDDX682eKIhtEzMdWraNBGYx8+uwvCPGA/QacwkqXWn7uUHfT8s5Hor/g7hIbcY2ixlNz6swS17IoIrhAe6aFeePUOf7NX2VhseoN3FLgMW3vvlzRcPxc9YdeU4iVcNZefDObqH7AgKD0uQPrmHoH/6DYbei7+Tx3M1c5yhbLgEZxh8RCLTAbTZhTMD/tg05bniT9BmQ5AEznSYG2/a7Y+SIAsHZ9h4iANo9/qk8q4aePLFLjIvlXpWNxOaQ1BtpyvwwasenkrUdkhZOpFpcr0x56x4rGnItQUvNj/Td9V1zigWEze750yTx/GnzVimdjY8DBpKXIoUe9pHEs6FB0pDHdJqDsJ3pQGWMDiL9gPzDWXcct8SxW5VlObyX7BpLMWA5BlMnSI0YKcxlwdyEIBBul8DasTRbjSNuVPieziBEUajXUrV1S2eEGinZyRbfLXeQXgEfGosNcBoqBsNa/rCQrI95ZWzlAz/gMGeKkwlERrrLc+idFfvzdONoRTX+hKZB3sWPKZ9iPvGWiUxhe5l7NaN/gX2AssjTqBhUbeBdLhB5YHSsDttBlG3AYPOYw8acvVBX/8OYvuB0mB3v0IacB4IDZYlnAGDqYwcXBW4/gXpU1hAOHrHJB45HwAGKz6dJlEaDh9CeYB5gMYvSPS15XwEizAePjgph5JElIZT31DEN1AeAZn/QA8+2IuGzKOOPBqQXbmicUgI+bwTghAeQXGPVG2Do7b3D1zdzJ7CgMwWIk0HSO9ZpKrRmoJ5MHCsz7g9hEcV7VukYLQd2ACVfMKdjVAaDgL796LqYTyqRpwOWcK5Me9SIsrD9mgVG6E0dg6B35dwHo4GIN3g0lCOajd4QNsTcUwKsG8oQnmwjZ0D9oDTUHhA5zzEoNNQuk2DR9PEYzTC/hQbe0wkvldV5yQeo1fsHVik4YV2J40HRFXkZHaUR76YYCoGD7QbYv1x2pg76qJHlW36l/xrgmEMHjiNAEVfVpUGVh75V45hDB4oDRhsGvJ4roZMCKvNgk5jzQML6AlHRwZIKA8wkWlcMRvJPNCT/UHPlRzkcwVUl2jaIleMXWZe0EsX+N3oEUOjT1c3savxUSchlDvGFMawLCA0ZB4CctwwSB9jhqx8JYGY5G6MFGHJcbKrcokY0u/fYnfHkNO4XgoJ5W6OwfDtq9KGB6j/lOFQHInlnzYLMmB+jJEtIuLI56L6xYTB4xbLIYJjzKxTOObTMfkp6TuAwOMrhxnjEn/W+2LXaBBxCMuocZXZ1AASjpfCJoErHOcfWv8C//JXxqyf/6YluVVTImQc2Vek4NFNAbHKguDIoZgyR+Wo2m8CAJt/xxoOTbJ7AAg67rSiqkg4HhikgNybfpngHYs39O7L/Q5xM6s8nM/TEj+y8MiMUr1BMt066tu3i4BDuI1iOdFvJ+B4uEGv36yoZC1r4pFRjjWqurseS8IxJuCwryyrGHb5qMbDEM4j4+zE0eNEqiy4dxQ2lx14B3fzQClzKA9PaBBxXKPF5q70ywQcWMPLXVLLefZK/15vaBBxjK6Q69HNz03qWZbIdzAVetnLvia8pEEOwy6MSCK6cQ5i3IF0Lcd2LLiyV1EPaWyJSsdq1C1fixaNzBCj0tXlOiVBqV/RlX2Ncp7RiOQzHxOGojEk5eKViSai0Zsxkplb7O6CgUNYVApRWUzlWqCbw2wxM9p9FyUJLzlUYywjF+Px8naBFm+B3b1Ef7XR9VjWNf2sZz3zDVlCHpMpUTBfwO8WTHcLlD0jVKhQoXyv2ElU/LztgP/PGceq/CNzdZhec3amOadiaN6JDoGsNLBBwDZxP3+5vHm5PkxFuxkqp5apK/FmkxtFLx+df8kvf1wmDj7B+M2Gh3vl3aVo0TaTiz1o/Ap+uOQShwaswpt1nOlecXfqo10xhD2+4Os/P8g4mOjBPIqW9sO1wu5W9JNNFovOG47C4IOK43Ae+WLOFEK7Wd4dStjU3ZxjGkzhR8BqOJho5UAeo6slzsO90u4UZ208Vns8/gtgdRzH8BhjPFwqqhMlPpszt4jtfkrXr8ryk47jcB7ZDMbDpaI60Ufz7PLozfGz3NfaBxTHUTyQntqlojopUczUjOUrezz7TaGB4DicxwLl4U5RnZSoYJpAFMYFx8/GvminEiA46PBwp6y7C5SwrEutYtzu57SHC99/+2DBcRQP3VGjJ1HhJmOeXF5cOqXBML//S6OB46DB4+IkerBMp44yjmFwX39Y0zDhYA4evyxM/e2plc/tQePfm+NMTDiCwkO4LThuOGL/+Y0l4TiCR3G8+yavhG+G2Eqj8F1vOOxwMNyhPLJvvuGB7ZTZod//MGjY4GCYQ3mMLn3CY1RxTIP7+g2hYYuDuVpkD9Kq4Asewtg5jZsvKA17HIzD+VqLbo7b0EZHwm30I64EcY618B2jQcDhCGxUsNGpWUSUhW7zpO5///cjQd86LCUcTOLU5XYqPg0+kMTSw+EHV3Ai9JSSHQpxhDhCHCGOjUIcmEIcmEIcmEIcmEIcmEIcmEIcmEIcmEIcmEIcmEIcmEIcmHyLY5QzVlKLdN/Y2SLf4og8vOm7g6/I22Jpy784Ig9F7aW2jIdz7j7GEbnOKDxylm1cLsrPOE6gEAemEAcmX+MQNv94JT/jyK+UbUsvNF+a3iUf48gvPys4Vm/b3k6iLP/iyC/Xm/FWl97x8C0O4VNO3+G3evPsrW/f4sgj+x0fPHvt27c4TqMQB6YQB6YQB6YQB6YQB6YQB6YQB6YQB6YQB6YQB6YT4vg/3E6ZvO7c7D8AAAAASUVORK5CYII=;" vertex="1" parent="1">
          <mxGeometry x="828.37" y="410.39" width="143.26" height="99.22" as="geometry" />
        </mxCell>
        <mxCell id="26L5T93bEw7jJD-IDhR8-19" value="" style="edgeStyle=orthogonalEdgeStyle;rounded=0;orthogonalLoop=1;jettySize=auto;html=1;" edge="1" parent="1" source="26L5T93bEw7jJD-IDhR8-18" target="26L5T93bEw7jJD-IDhR8-17">
          <mxGeometry relative="1" as="geometry" />
        </mxCell>
        <mxCell id="26L5T93bEw7jJD-IDhR8-18" value="" style="shape=image;imageAspect=0;aspect=fixed;verticalLabelPosition=bottom;verticalAlign=top;image=data:image/jpeg,/9j/4AAQSkZJRgABAQAAAQABAAD/2wCEAAkGBxISDxISExMWEhUWEhUSFRgWEhgVFRUXFRUYFxYVFRUaHiggGBolGxUVITEiKCorLy4uFx8zODMsNygtLisBCgoKDg0OGhAQGi0iICUrLS8tLy0tKy0tLS0uLi0tLSstKzAvLSstLS0tLS0tLS8vLS0tLS0tLS0tLy4vLS0vLf/AABEIAJ0BQQMBEQACEQEDEQH/xAAcAAEAAgMBAQEAAAAAAAAAAAAAAgMBBAUGBwj/xABJEAACAQIDAwcGCQkHBQAAAAABAgADEQQSIRMxUQUGQWFxgZEiMlKSobEHFBZCU5PB0eEVIzM0YnOistIkVHKCo8LwQ3Szw9P/xAAaAQEAAwEBAQAAAAAAAAAAAAAAAQIDBAUG/8QAPhEAAgIBAQMIBwYEBgMAAAAAAAECEQMhBBIxE0FRYXGBkaEFIjKxwdHwFFKSotLhFTOy8SNCYnLC4lOC4//aAAwDAQACEQMRAD8A+4wBAEAQBAEAQBAEAQBAEAQBAEAQBAEAQBAEAQBAEAQBAEAQBAEAQBAEAQBAEAQBAEAQBAEAQBAEAQBAEAQBAEAQBAEAQBAEAQBAEAQBAEAQBAEAQBAEAwzAb5KQKmr8BLbpWyBrGTuoWY2h4xSIsbU8Y3UTZIVjI3ULLFrDskOLJsslSRAEAQBAEAQBAEAQCLuBJSshspaseyXUURZAseMmiCMkCAZuZAJCoeMUhZkVjI3UTZIV+qRuiyYrCRusmyQccZFMmyUgCAIAgCAIAgCAeG56c48Th8UKdJ1Vdkraqp1LMDqR1Ce36P2PDlw784tu2tL6jGTk5Uml2nB+WeN+mT1E+6dv8P2X7kvMbuT78fFEfltjfpV+rT7pp/Ctm+75s5+WmPltjfpV+rT7pP8ACtm+75scvM6PN3nbiquLpU3qKysxBGRR80neBxAnNtno7BjwSnFarrfSWhmk5JM94xvPAOkxJAgCAIAgCATRyJVqwmbKtcSjVFzMgCAIAgCAIAgEXawvJSsM1SZoUMSQIAgCAIAgCAIAgCAZDGRQJiqZG6ibJCv1SN0WSFcSN1k2SFUcZG6xZjbLximTZg1uEgECxMA+dc/RbGXN9KFPcbb3ccDPo/RcFLZ6aT9Z8VfMjy9ujvTjHTXpV9PWjgnLrq/V5e/+CdVYeiPh+5ivR21af4S/Cv1iy+k/rH+j/lo/weiPh+4/h21V/JX4V+s3qeMq0sLSy2BapUuSgY+Ta28HjM+TwSySdaJLg64+B28isCSlUO0rp8u4pSGDi41H5lf6Y5LZXo1+ZfqK8riWqyx8/kbHyux/0n+in9MfYth6vxfuZ/bF99eRg87sd9J/op/TJ+wbF1fifzJ+1f6l5H0Xk6sXoUnbe1NGNt12UE28Z8/mioZJRXM2vM7ou0mbEzJEAQBAEAsotr2ysloSjZmZYQBAEAQBAEApxB3S8SrKJcgQBAEAQBAEAQBAEAQBAEAxmkAzY9nbI3kTRkU+0yu8yaLVo90qSWCkIBICAfMfhIb+2jroJ/O8+o9Dq9n/APZ+5HDtC/xE+g8ttDx9gno8jDo82T9qy9PkvkSpFSfLv3G3+0+6UzLKoLkavrV/8o+8ylNNuUk32UvfodXEZfitHKPnVjrZ+heKj3Tl2d5XllyvH1eCr/lL3lMrTxxpOOvTr4xNHbL6KdHzUmu9k6H4y+RqvR+P/wAz8f8A6FVWqpFrAa3uEUd2k2isif8A2fyKQw4oyvlJPuv/AJkHpkbwRcXF1tfsiGbfvdadPWpXXlx6jWUILnfV6v8A289ew+vci/qtD9zT/kE+U2n+dP8A3P3nTD2UbkxLCAIAgCATpjUSHwCNqZFxAEAQBAEAQCjEbxLxKsplyBAEAQBAEAQBAEAQDGbvkWDNj2SrkTRkU78TIcmTRatHulSSwUhAJgQBAEAQDxfO3kHE1sVtaKqy7JU1ZQbhmO49onrbJn2dYVDK2qk3z9XQc2WGRyuDrwOP8l8f9Gn1ifdNuV2P7z8H8zHk9p+/5Iwea2P+jT6xPuhZtjTtTfg/mOS2n7/kjT5c5Iq0MPQSooUl6pAzi3zfnE2nds+145znNNvRcz6+ZWHjlGKT4nE+LN+z9Yn9U6/tWPol+Cf6SvJvq8V8y2kRTF2VWO7er+wNpu32nNmUtodQlJLslHz3fK+4m5Y+EU+/4aka7hwDYLYfNCj7ZbBCWBuNuXa5P4P3mOTO5SrdS8f0/E+sci/qtD9zT/kE+d2n+dP/AHP3now9lG5MSwgCAIAgF9BOmUk+Ysi6UJEAQBAEAQBAK6y3HZLRZDNaaFRAEAQBAEAQDGbv7JDaXEEVqXYqCLjeN5F5XfRVSi5OKeq5iwUu0yHJmlFopd0qSSCjoF/dJoEgD2dkaAkBIBmAIAgCAIAgCAIB4n4S6pUYYj0qnSw6F6VIPtnr+i8McyyQlw05k/JpryMM0nGmvj8KPD/lB/8AlSt/9J6f8Kw9P5MX6DH7RL6cvmVV8Uzix43892/mYib7PsUMEnKP9MF/TGLKTyuap+9/FsonYZn2HkX9Vofuaf8AIJ8dtP8AOn/ufvO+Hso3JiWEAQBALKVO/ZKt0SkbMzLCAIAgCAIAgCAIBVUpdIllIhoolypiSBAEAQCnFYhEW7sqjrIHhxlo45T0irIbS4lGApLVf4wtZihTZ5NyXVtWsenT2zj2zYeU3sWa6a1XnzHXHaY8ioKKu73ufsOmlFQbhdTYE2323XPTLY8UccVCOiSSXYjm3Y7zlWr4sox/KdGiL1aqU+q/lHsG89wnTiwZMv8ALi2JSUeLPPVueiM2XC0KmJbjYhe3cT4gT0I+i5RW9nmoL67veZPMn7Ksj8U5VxP6SomEQ9Cef7CT/EJPK7Bg9iLm+vh9dxFZZcXR2eb3IK4QORUeo1Sxcud5W9iB0b+JnFtW2S2irSSXCjSGNQOxOQ0EAhSqqwurBhe2hB1G8aSWmuJaUZR0kqJyCogCAIBXWrKilnYKBvLEADvMtGLk6irIbSVsp5P5RpVwxpOHCtlJG4GwPfoRrL5cM8TSmqsrDJGfsuzyPwnLdcOLgeVU3mw3L0mer6Hmob7pvhwV9PQZZ1dI8H8XPpJ9Yv3z2vtUfuy/DL5HPyb6V4ojUpWG9T2MD7pfHmU3STXamveVlCudeJXNip9h5F/VaH7mn/IJ8dtP86f+5+874eyjcmJYQBAJ06d+yVbolI2QJmWMwBAEAQBAEAQBAEAQCqsml5aLIaNeaFRAEAQDy/PHDeVTqjpBQ9o1X/d4T1PR2TRw7zDKucnzPxbBK9NQGcKatMHcWtYg8BfJ4yPSGNb0Jvhwf14lsMtGjP5P5UxP6WsuFQ/Np+d4qb/xSOW2HB/Lg5vpfD67hu5ZcXRuYDmRhaZzOGrtvJqNoT/hGh77zHL6V2iekXurq+ZaOCK46noaFBUXKihANwUADwE8+UnJ3J2zZKiwmVDdGjjOVqVO2Ymx1zWOzUXsS1U2Rba6E300Bm+LZ55F6vhz9y4vwoy5eFJp2unm8eBBMa9TKaa3Vj5wF9L2zXYqPDNeZzg4PdlxKwjmypvejBd8m+zRJeaJfFKjgCoy2BBtlDkkHS7EAfw98qpNO1oduKUcMai5SfS6XlGvf3G9cC24dAkGWrMwQRq1FVSzEKALkk2AHEk7pKTk6RDaWrOVyhzkw9FqQdjaoAysoumU7mLbrdl94nVi2LLkUnFcObnvooxntGODVvia+J5WqHF/FgVVauHZ6FRdTnsbG+oIFmO7hxl4bPFYeVerjKpLq95WWV8pudK0ZxMFyauOwbvUzNiaavR1Y2DoSynLuuQQCeqduTM9lzKMKUHT7n9Wc8Maz425e0tO87/M3FLUwVIgAEDIwAA8pdLkDpIse+cG343DPJPt8Tp2WSliTKed3IT4paWRlUozecCQQwA6Oz2y2xbTHDvKSetcOobRh5WNXR5ipzGrqQDUpagjc/RPQ/iWJu/W43/l+RyvYnd7z6eb5GDzHr/SUvB5K9I4k17X5QtiaftP67iLcxK5/wCrT8G+6ax9K4Y8Iv67y62auB7jA0NnSp073yIqX45VAv7J4mWe/OUultnWlSoulCRAJItzIboI2gLTIuZgCAIAgCAIAgCAIAgCAIBpTYoIAgCAaHL2G2mHcdIGcdq6+64750bLk3Mqfd4lJq0eR5CxeyxNJ+jNlbsbQ37L37p6+1Y+UxSX1oYQdSTPpLEAXOk+aOxtJWzWqY5ALi7DiNF9c2X2yd1nJPbsSjvR9ZdK4fidR8yhsVUawAC3Nh19jNb2K0mkjFZtpzfy40uzzuVV3RmjUq4SpVceW+zJFiKahhbeWNW4sTuyIO2awy44r2LfW9PBU/Fs6n6OjbeWVtVx9Z/GK7lFm4nJ1Cl+cIBZQTtKjF3UbzZ3JKjqGkl58uT1E9HzLReCL7kI6+8x+WKZsFN2bNlVgabNlFyVRhmYW6VB3SstnyRTbWi4tapdrWi7CssztRgrb6Wku+9a7EzKVqzWYKADfRrpbdqbgsd+6y7plpzG2PFNSvNNV0RV/mbV9yXeXYXCZfKfKz5iQcp0v0DMSRu49wk70qo3yZb0jaXR/ZI2pUxPL8gO1T47g67F2V2F2N2NOoLA/b1ZhPT2lKHJZ8apNeaOTC3Lfxzd/JnnKiluTkdlDtgsSabA6hqZIuvZcqOwT0E0tpcU6WSN9jOR64U3/kddx0a/N2ulXD1MK20oq4q01ZgDSDWZludShA7dd28nnjtmOUJxzKpVTrn/AHRs9nmpRePVcez9j0vJnI+xxGIqh/JrENky+aw3tmvrcluiedm2jlMUINax5zqx4tycpXo+Y28DgKVEMKa5Azl21Jux3nWY5M08jTm7pUXhCMPZRatVXBysGtobEGx67Sri48UWTT4FWLF0DdIIP3wtGGQBmhUQBAEAQDZorYTOT1LIslSRAEAQBAEAQBAEAQBAEA8b8J/KFSjhqBp1XpZsQFZkJVsuzc2uNQLgfjummNXZTI5KL3OPN9f27VxPmb84cVbTF1s2n/Xax8m57LGwHHWbJdRnGWTe1WmvbxpeK1fRoUtzixoP63WPZWY/bLbq6DWOqujHykxn96r/AFzffG6ugtQ+UmM/vVf65vvjdXQKHykxn96r/XN98bq6BRqflCr9K/rmbctk+8yu5HoNt+cuNtriqx6darHd2mY7q6CZRUlqrPseAwhRFYtlLomZs1mfS4DVXL1HsSbWy79Jw5tp2jJLdUdF00o9dJX7lfSacrsmzq5Um/vO38PD1jfp4hEAVVJbVvKzXJ3E2bNUPRrYy0ISr1uPV9fE4No9KJyqKd1wfq8P9KW94QoxiK1Qi2YIx8xSLZgPOOmZzYdS62Gl5pHcT9bh1fXzGLHtOdOTuKVcyS16W23/AEMpwnJJcZqtSpc6WX8zex0OYMavcX7pt9ojH2IJdvrP9P5S62GGKXG30q7/ABP1n4tFlLFYSgWSkFL38paKZ3uemoEBIvxa3bJlj2jKlKfDmcnS7r9yLqWOGkfL418Tap1qrqCKey1P6QhmtpY5UYjXX52lpz5IqLpST7L+NHRicWm5p9mnv1+JJsEGJLu7i9wubKo6rLbMP8V5marO4qopLr4vzuu6jakmBxeVebdOvV2wqVKNTLlZqT5Sw4HSdmDbZ4oblKS6+Y58mzxnLetp9Rvcl8mUsPSFKmtlvc31LHpZj0nQeAmObPPNPfk9TXHjjjjuxMcqcq0sOgao1rnKoAuzHgoG+MOzzzSqCIyZY41cjk43l6u1HaYbDllyuxaocuXISCNnvbd0GdWPZMSnuZp09NFrd9ZjPPNx3scfH5HNeli8Xyc1QVRVNRlbZqop2VSwemGvrc23+j03nQpbPs+0qLjVXrx15mZNZcuG7u+bh2o2eQMatCsuHODOENa5U7TaBii9J7Pf1zPasUsuN5Vl393qqrLYZqElBw3b7z1IXeOg/bvnmM7TRobrHepK+E0RQskgQBAEA26Z0EyfEsiUgkQBAEAQBAEAQBAEAQBAPA/C8f7Nhhe39pGumn5t9dSB4kTbCtSk/Zel6fXC34JnzUOLE7VtDb9HSv3Da3I650cnH6/ucTTTS5Nfin79yiWlyNtuF/No27jtbE6bo5OP1/crel8mvGf6DAINvzx1F/Nojx/O6d8cnH6/uS3V/wCGtOufl6mvcYs2b9KuXjmo5vV2lvbHJL6/uN6G77Dvo9evHd+BTiazKQBUzaXvan4eSzD2yHjijbDCE1co13y+Kj7igYhrk31O/QSN1G3JQaqtCL12ylb6W4CTuq7JWOG9vc595fk4slJgTY00BAZlFwosSKYDPfpDOBoJzPanijpG32W/O0u3TtL4tmwObnLRvopX2vj7+wtwVdXqN+d2jKMzKjgAEWFmCadzMZjGG0aSyY92L4W9fBaV1ps1nmwxUliSb56Vt975+5F9HE3GWkEUZgvkjOVJJJzKnkr0m+aX0Oea2zI7klDS7m7fhaXZUn2EcVycazAuNAcpVnZkZR0mkrBSTr517adk1hnnBVCl10r8eK7jXksVeu3LTsV/HwOjRoqihUUKo0AUAAdgEzlKUncnbKpJKkTlSRAEA8vyzznq03yJh2F6uxFSt5NMtewIt5y9N7jSels+wwnHelPmulq6+Zx5dplF0o89W+BzuclWulXDrialTZ1KZDrhjbNUUnRbi5BugseudGyRxShN4krT0cuj9tTPO5qUVNun0dJsVOTQ+GpVBm5P+LO2zNW1TyXynMwJ0JboO63XM1mccso6ZN9a1pqv2LPHcE/Y3eF6mxzZ5TrVMTWotWXFU1QNtVQKAxI8jTQ3BPHzZTbMGOOKM1HcbfC/MtgySc3FveXSbXNzkmpQp4iixy0zUc0SrXYKwtw0IsD23mW17RDLKGRcaV9Fl8GKUFKL4XoXcl83KVGoKperWcDKrVXzlAdLLoLae8yubbZ5I7lKK6lVlsezxg96231nZnGbmjWFqvUwv3j8JeJVmZcgQBAEAkj2kNWEzYWoDM3FotZOQSIAgCAIAgCAIAgCAQqPYSUrIbPAfCs1sPhze39qBvci3kPrcajunRi4mc1cZKr0fR8dPHQ+aUGOtifOO5n+xfxl5cT0dlcljpWuxyX9Ka8yVR2AOrbvSqfatpC+uBtOc1FtSfjP4xS8zW+MP6besZakcf2jN99+LHxh/Tb1jFIfaM3334snTNZhddow3aZj7pSU8cXUml20Ss+d8JS8WWYmlUUKxck3sNKoIuOLKB4GZ480ZycUvOL90m/FCWTLpJyd9r0NStUYjUk6HebzdIznknP2m32s/R+BF6FMHUbNR/CJx3TKGlUwtLabMupOUstMkMQo9Gj5thcC+U9EzyYtoyXNOo9NW77XovBm8drWKNR0aXNx8vWfcy8YrKMqrut52/ytxyICe4gS0I7sabv3nHv58zuGOk+eTpd3F9zo2qDsbhlItpfQButQCSB2yTZRairkm+erXv8Amy2CBAEAQDkc6+TjXwdRALsBnS2/Muth1kXHfOvYs3JZoyfDg+8w2jHv42ka+O5KqYvCUA52NZTTqXIDFXUWbce/fwl8eeGz5p7vrRdruKzxSy443o9GXYHm7TQs1V3xLMuVtsc6kXDWCHQC4HG0rk2yUklBKKXRo/EtDZ0tZNy7fkdTD4dKa5URUXgqhR4Ccspym7k7fWbRioqkqJ1KgUEsQoG8k2A75CTbpEnFxvOrDU9AxqngguPWOnhOzHsGafFV2mbyxRoYHnPUr1hTVFpgg2uczXGu/duB6Jrn2BYse9dsrHLbo660DcMzEkeE4ki5fJAgCAL98i0KGvD3SN5E0LySCSuR0xSFli1+Mruk2WLUBlWmTZOQSIAgCAIAgGGawhA1Wa5mqVFDwnwufqlD/uB/43mmPiSj5dTxAAtoe8/YZo0bwyuCqvf8GiTYkEW8nxb74otLO2qpfm+ZClWANyFbqYm3sIMicXJUm12V8UzFOi744n0VLxqf1zHkJf8Akl+X9JO8uhefzJpyiBuSmOxqg/8AZIezXxm/y/pJ3+r3/MrxGNzi1lGt9Gc/zMRLY8G47tv8PwSIcrNckWmxU/RfN/E7TCUH401B6iBZh4gznzY9ybiRF2rKvyUqZggyITfKgyi533WmFLdpY75ybVm2mTu7XS7k+zd0/q7jpwyx41UYpPsXvdrwRtYKjkFggRdSfNB9VRb23meB5v8AMtOtq/BKq77IzT33blb7/e/kbc6jAQBAEAQBAIVqqoMzMFHEkAeJkxi5OkrDdHExvOzDpopNU/sjT1jYeF524/R+WXHTtMnlijh4jnViapy0kCX3WGd/aLeydsPR+KCubvyX13mbyyfAqXkLFVzmqsR11GJI7F1t7Jd7VgxKoLw+ZG5KXE6uD5rUV1cmofVXwGvtnLk2/I/ZVeZZYlznZw+HRBZFCjqAHjxnHOcpu5OzRJLgWSpIgCAAL9nvlJSJSJyhYzlPCARIvAI9U0Tsq0JYgQCxKhEq42SmbCm8zLGYAgCAIBr121tLxRVlUuQGUHeL9sAhsV9FfVEAbFfRX1RAGxX0V9UQBsV9FfVEAbFfRX1RAGxX0V9UQDynO/BhaiVAAAy5Tp0r+BHhPW9HzuLi+YwyrWzo8xcXdKlI/NbOvY2h9o/inP6Tx1JT6dC+F6Ueqnlm4gCAIAgFdeuiDM7Kg4sQB4mWjCUnUVZDaXE4eN53YdNEzVT+yLL6x+y87cfo7LL2tDN5Yo4lfnPiqxy0lCdSrnfxI+wTtjsGHGrm77dF9d5m8snwK6fN/E1jmqsR1uxZu4a/ZLPa8GJVBeGhG5J8Tr4PmxRTVr1D1+SPAa+2cmTb8kvZ0LrGuc7FCgqCyKFHAAD3TklOUncnZdJInKkiAIAgCAYb36SHwBZMi55rnrzt+JBaVJQ9ZlzeV5qLewYgbySDYdR76TnRrjx72rPFYX4Qscr5mdKgv5jU1UdgKgEe2Z8ozZ4on07kblRMXh1roCL3DKd6sNGU9ntFpsnas5pR3XRtVN3ZrLJ6lGYmpUQBANjD7jM5FkWypIgCAIBqPvPbNVwKEZIEAQBAEAQBAEA5nOTDZ8M3FPLHdv8AYTOrY8m5lXXoUyK4nmObeL2WLpnoY7M/5t38WWentuPfwvq18P2McbqR9Hnzh2CAVYnEpTF3dUHFmA98tCEpuoqyG0uJwsbzwoJogaqeoZV8Tr4Azux+jssva0M3miuBxa3OTF1jlpDJ1IuZu8m/uE7Y7Dgxq5u+3QyeWT4EKXNzEVTmqtbrdi7eH4iTLbcONVBX2aIcnJ8TsYTmzQTzr1D1mw8B9pM5Mm35ZcNC6xpHXo0lQWVQo4AAD2TjlJydydl0qJyCRAEAQBAEAQBAMHeO37DKy4EouRgOjpmZY+S/ChhnXlAub5alNCh6LKMrAdhF/wDMJhk4nVhfqnkgJQ1PrfwZUXXBVXYECpWYrfpsioW9ZSO6bY+By5nqepc6HsmhkRG6bFBAMqLyAbSLYTNuyyJSCRAEAQCisnTLxfMVaKZcgQBAEAQBAEAQAwBFjqDoYToHzjG0DTqOnSrEA9h0PhYz6PHNTgpdJyNU6PVvzzphFsjO+UZh5qhrai+/f1TyV6Nm5O3SOjllRyqvODGVzlpjKOFNbnvY3I7dJ1R2PZ8Sufn8jN5JS4ChzZr1DmqtlJ3lmzv7/tiW3YoKoK/JfXcFjk+J2cJzboJvBqH9o6eqPtvOTJt2WXDTsLrGkdalTVRZQFHAAAeAnJKTk7bsuSkEiAIAgCAIAgCAIAgCAYYaSATVrj/nhMi5q8r8l0MVT2ddMwBupFwyniCNQfYemQ0nxLRk4u0edw3wdYJXDM9WoB81nWx7cig+0SnJo0eaR6xVAVVVQqqAFUCwAGgAA3DqmhiRfXQd/ZJiQywUjL7yIomtDiZG8KLVUDdKWWMwBAEAQBAEAqeiOjSWUiKKmpkdEsmitEJYCAIAgCAIAgHD5W5ANatnDBAVAbS5uNNB2W6eid2DbOSx7rVmUsduy7Cc3KCb1NQ/tHT1Rp43lMm25ZcHXYSsaR1UQKLAADgBYeAnI227ZczBIgCAIAgCAIAgGYAynhIsGch4RaFGdkeEjeRNGdiY3kKM7AyN4UZ2HX7I3hRg4e2oPaOg/jKt2SkQLW36dv3yCQXHEeMAytzuHf0fjAL6aWHvMAnAEAQBAEAQBAEAQBAEAwQIsETSEneZFETQEneFGNh1+yTvEUY2HXG8KGwPGN4UNgeMbwobA8Y3hQ2HXG8KGw6/ZG8KM7Dr9kbwobDrkbxNGdgOuN5ijOxEbzFDYiN5ijOyHCRvMUjOQcBFsmjOUcJFgzAEAQBAEAQBAEAQDAUcB4QDMAQBAEAQBAEAQBAEAQBAEAQBAEAQBAEAQBAEAQBAEAQBAEAQBAEAQBAEAQBAEAQBAEAQBAEAQBAEAQBAP//Z;" vertex="1" parent="1">
          <mxGeometry x="772.77" y="620" width="204.46" height="100" as="geometry" />
        </mxCell>
        <mxCell id="26L5T93bEw7jJD-IDhR8-16" value="Automated Testing" style="shape=image;imageAspect=0;aspect=fixed;verticalLabelPosition=bottom;verticalAlign=top;image=data:image/png,iVBORw0KGgoAAAANSUhEUgAAASwAAACoCAMAAABt9SM9AAACFlBMVEX////T09NKlZ8AAADhuS9ky9bY2Nj5sCTV1dXR0dHb29vc3Nz/kU36+vrqwDH39/elpaXx8fG8vLzi4uL5qwBAlNfo6OjJycl/f3/m5ua1tbWcnJzDw8PLy8vt7e11ydyNjY/g8vYnHACsrKyXl5ctIgA4ODhMmaOHh4fvxTJ4eHhfX19tbW1OTk4nLCtGRkZZWVn42Lv++O9oaGgAo+mjzewjIyM0NDRfwctao9bf2NJlx++heTPCjS796Mv816AAidXB6O0ZFRUAAB//rH/DoCkAhdRSprBVx9PlngCxkB/6vFD+8Nz7zYb83K35tTfO6/IAACgZGjIAABfP5PVyteP/6N0znduXfB//oGm82vGayOpvWxNNPw0xeYGM19+Hbx0AOkgADQv/uhgzbXYhU14AJzf/2pQXLTCV0fQnr+w8ptCFtNf7x3TioihRUV4SJUeseiIpKj1sTA91VSs+SGD6zKlLwdv6qi7O0bZ5zuP2mT2usYGMhxSaz9OYaxbNtKfVvH5thjeoyLz8sojNgy//hzfCbTufWy5aNRndfkLmzp2nf2s8FwCCvrupVxq4r450mZ6bpZXgj13xnk2zjoDQplKTppr/m2DuwaEViL//yafdqUlmla0zsdKolFgnFxUjAgCTel6gfE3DhQCLfHDerIREeaWmtsqpiF9nXlLKr5eSg3h/Yj3ftnfRn0p+hJxKWoe6shzeAAAgAElEQVR4nO19iWPb1pnno54JAkRgXDQPAGTBAKZhkDQp0aYuR6IVy5asw24smbYs33Z8ylk32zhtZzqTnWx2ppmd7bFt0tjTTW1l6iZp2vkP9z0AvEESoKjY2c0vMUWcxPvh+773fd+7APge3+N7fI/vMTTwVCrVuodJ8v0vY6FY+xod9iN9q9BgGWrNO7IGUOA4C4AM58y2k6GhyaDl7HyO7P8b77xT/yoIgz/qqwDIAKKYYwi9ZKCtbCkOyqKuA4D+wWg0W2IpORsHfCmb0mA8KSmwyJp5VGa+VBQJtNH3BzjYOIdXd68gO8OxH/QviUUWJGQzMMeUKbSpmQCyUg5J1txcHmQkLqeUGUiXZKHAQ4YzUpBJQhHdOMsFICgH+t5fhMnGBq8PXJrdxbHHjx/3Z4vBZAEqH8iDLNYRDpHFa3EkWSooE2VVFpQcKIQLcVljIOAMFgIgYc3NkOi6stj3B+g6WQlOV2M7K9Ou4QfpH5w50/csTFY2l9EoqEJsrBFZanYOyZg+bkJWzXKKkAXjJJfXJMQTF0eGKybnkMZyhVIJwF5kibat0iCuFdgxFb755ptv0UMp2/CR/oGXs7CFToZBLEtYVVUqgTYxBSmSZNBRheVFQLOAVnh0KjoqxpiYJSsE+iSYHndOQvtv7r8sr4QikUjo0Q/feuusqJZMdSfF2h14I8uBUhj671MOWcuLkZCFRXj2rbd+lOp91e5jJjQ71rHTF1m7AOqs9WfWoSoU2obw7A9/+HIfCmEmsjTTsfOlkwVx9bpV5yr0Lny0+F/hy30ohOWt0C5KFuvipnvxSnSoNnP18HX88eMhPdROMBPq2OWBLLHs1OsM1XlQqX1BNSQwC/lyqukI7GXaayB+eLTBVehd/BGZ8nDdrmNrpX2PB7LUXAkQGpATxjgHZDMMdMEkTQ5QpsEoMA6EnAICZhx5CqyQZ4GSE4CU02gYZ1XACSjW0Uw12eP+Y01c/YP1GRndSSGHhlC71fJAFkT/IT+qQKm5FJclIZjj1Dka8ryYk6k5kZ5LQR4qJg6EYkXkjKfmEjAmJiCNrisY0ni0DHraoKcNrrYf2mS9t4MiDg9jEdtsnXn8OG196U9WABahoJRAIYB8dlMDMFVOCdiFz+WycmoOCOPxOIHoRA49JkspG3FRmTMwQYgsIjEHMmbO/dayifR0uclgvWH9ef+1J0Mr8I6wetr6M/HxT35qfelPVk5npUIYapCSMooyziFBi0rIL+ehlNd5qKWgwgGo5zFZSh4gIeNYTkJncTwEGUpE8Q6nuN04+eZb70ABrDTIemR9/uy1jyw1JF5+nbj1dz9Nz2z9/d+d+rm12Z8s5JUzAlAEOgWkGKA0ZJXYaAAojKhFaRDTQJQTQEpLEOjcFLJNKQ3ZLC0FSA1dluTZWNJU8lLnfd+BOg5zfny61WC9/xrCP6LjUdie/fn2cezvP/hvS6vMT//Jrhm/BT9LKBgFF49ctfaxuUizXFlUvfYahFIKlnb9yfri5/+0ctL6MruEP78Np5TplSmtmyxk3B2qXvsQeV8wP6yfl7KOXNeyGWZB5RqH7VSjkAOmbSxsm8Ha9fdPHx+zz1qaBS/fg6+T9fC//8yh6rWPzqH9GsgVsezhsiDFZmvFY/OlpqREtmS/CLLH+5A1VshSGVUYp7NZYhxnjkCOLhTMTLSUBSkYyxUVIJWZOSFWUnJZTSsRpZyWaVOGyMyrQdb777//s9f+x2t1HLcOSKhUakGEgWJcKI6n4qqZj8XLgC/EqQLI6nGzGGdAhkbn0BklH0e+i150jb9lNZozNCFPyGJBV3A9NA6yYUMji1pOBaCAuCsBTS/KgqnKRWRGFdnUk1zbXbAf8dLJAh9ZBP1zg6uP7ChJ4oBoZtgiLokSJ02DLQSQ58JnJQ2RxRlErMCCcYWIj7NxOc7kVE51T5xJNMipimGyeToeFzEJJlBFTqANFpOVE7giDQQ6S8fiqmAAIWxGkQeQT7TdBoU/L5+sC5igf2ni6pxzIJcN5EyQjcVzCiWLMsfGlVIOsMVSQjZl3dT1HIuKLeZMMs4pJTEnae3lGy5WtoZCFoMw8MXnPnrtF/AXDbL+ubtl1/W6N5HTdzFTzzgeexuWPv7pDu7JR0WaDFAOAiQtRnn/rP3r/4QNwfpolJ07xCak3MtstXh8Je2K+X8b7H58ImwR1Aa8L5zw0KjajDxsWCysgxkIYfYlNh6mH//AHf+GYsX+rS+tYKJhF55aGAtH/UiY/r+wlf/oo1/8q70d88n2sHGmR4uX1vWIG1JEL6IahBFe8+gM0rjRJx8+ee+cBF3CopeBM642y4bq+S4s7YWpGl+0l1QpMBpfJfgdaLqPezsNCZVXphy+PIhXi1xrsFea8BWBF7Z40idVFl29AhGMaKvF9K2IEZ/nDwN9a+qBqLKlq6cytoYVMU9p+ybMRDpbrHYdjNDzKRl6QKosuno0x7eJdC7r87k//rtf+rxiGBB7tbJHd0CVRVc309Uu0L4N/C9/9WufVwwFVNfIignvkCvEVtj1VVDtBs233278+teDRVob1bWBrnMgdHn9/I6psuhya4Tt2WfEC8795v3I8gDXbVQ3dvjLkqtsiUPhCrHVGSgoO04TnPvN/14cwMJPXmzZZNYfrK9f7HJuNwhE5z6/rlUPttrvHnNp4faJmd/+4Xezvq/q0MATlcoJ31qZbH98ZlhM2WjROnoIPfxWP1n4xDdZkw4vo8fHwLnjuNmtWqkc8f/jRCtbbJNYkUQ4TJD+yGm/hmpyuVhypwYLYfV99Te/93nNEYeXJ++NfXruAvgQsbVeWa/6fxpGbO6G3cwVkTSKRVMI++EqLJjFopEkXNlKuei8b8xEfuObrKr1OQY+HANjT5DZGwVjR6qArfr/dZZuGN1mrsIyhJtXL8GcD7bCOXjp6uYc1JuuqbPFtLcIDISZSMgvWUesevDD4xcupNerh6sX2U8vXBhFYrXh18ID7CjUitMiVxw8vxdhHpY8sxUuwXl8zXkou8iWx9i9DxBZEZ82y5Kgcx8i1ibTYBKsYWt/Yax2wCd4J5Rlmu0VCa/u3YOA2JI82i1SQlxZ15yHgWa7ZRmHocgV2PgMkfUrX7aZmbQ+L4CNSfQtjTg7kQYXrJsNYOMBa7vRzQVHgmWVG5X8Uolop8UdRO5S7ZoW0QrgMQThofSwPXKiEgpFJk/4UaA1++T3RqtgjUWSBS6C6hO7QWlyoIfA6bgW+SHi9YJfzXjUw3Dmap3geAtZqA4ZSkb0QTVY/V0oUn1c8cHWBjZZY8c/XLPkyFK99dTxD7G4D0YWUNv8diK+3z9ZhW5kUVF1sMdqxZH7wWDll5Gn1WDwvvfgxSILidKRdcTWWiUNmCPI73oPy9a6p8RuJ1r1JkBqcI9T8P2mVzU0awTvgVyLnIZzw1BC/n5w4g+Vf4/88gQi7X6PpHkrLIl6MgqOXFwDTBXZeLC2vgYsRbzo+SYtYASulRLi7OZBi6tTUPFq4BV4ymLr4ObZlpsRcpIa8B02Y2PiceXEvk8iv6ycqDx+7Nk4s+voY+zJBRGp7hGbnclzF6yuhg8GI4skNaGFE1S1be6x3ADDu+tgWO7Gns3WCpRUJCrgYQRiVzgV6cZCtbIBlrdmwEalOuG9JrM9hCfnqna9mD6SXn/PMfADhRQJKkCoVKuJl87CS5cg1GmvXAUCtA7xNWelVsHikGx2T571AUdRzkjXjccVnPVZQS5S+sSCd6P1AEeGY8fRRUiQ0GXr+xjbdRjI0bK90bDZKkIkoeXnZMqjwXJ4CcjlvNYaUBKchu8xkCJyRLJh7Tb+gAlKRn6FCfiDd7JYLFDnjiNbVd1AFeCRKqL8Apap9LpzBiH4GHlsE0KXwq3WKRzPiH4DaToTb+Nccqyh78hQplsbqjfu489q5N/XsLH3kWBB9hys/f7TDz9FNeL6+sbYp8etTgPWfgdawMu4boyU4zXQObLN2fLqNTQRnGlzsWKac8+uaXlXyKLSLopHHuDPyacVbJb9kAWqTBpnr57gBM0YDqQtMK1aiJTIiwlrlNRosVvDICsgNCoOr2VjXJgCVqSCcOSzE1gG1vxUZOnJKk5fPXly7gL41E5oIUy23YIBerKvZW205JCUnGxiawhkkZRa36Q8GQZWTnRrpNvC0e/FE1adNuMrET9ZqWD7dO4Jg/45fecuutSnPFD7qGNz/KxITWwNgSwi11SZ9k8qs3K0e9PY2v/BRj1tkZX+5BMf1f7FE5XKvrZ9Dx64nxtldar7rRPNcQ4pCQ1N3DlZhNnsePQRLb4XU7jIn1kRoa2Fn1V86OHFI0eOtMoRW+3hp9G83M1ktLZPEJwwPLJILtlSY/QQrZQc7RtrVy0N+cz6/tl6z1N7Y2293V61g0pwYZfdqbbGHIKru5Q7JYukWkPErhVilOvPFMKkRZY9d0C6ixZ5wYanMEcRO1sKOxwpgquFiS5kkSRBhMNhGgH9IQiy/fJmsuiOENwt6EloCY/5m40dNHgwFGMFEa6dHnn0Emm6801KpNJi7tnOVkJCclIQ7WSRRDgg6WZ+/HOI8Pl4MadLgbYGoCaywrkOKjvceFETB+jNlurrQM4JUQiiUcAnAHKG5axiqri7M83rIMEzvAiMFBgHEGQACXhe4NjEnCyj71GGb+1RjKKtxjOLHVwhUgSbrRayEFOSWYZ3bl0eOXlyAuHkyZHLt+7Asqk189Ugi9CTne5/y4ulpV5M8dAAJIMKgMpFADyPRDmfxGWLMpwAwiAFonyYEUEKUUIAtVVlsgZXiBazIozl4xzgslReyCcLMZPMk8VMMl+kygTQtbyml7i4YQpxM5AXtKKs5rl4sf1B5GStU5B787NghXNNZJG0koPXL59cWAheOXbsDO72fObYsSvBhYWTl6/DnEDXeKmTRQqCy40bJp4Qwr1lis9IrF5UTRHS+bhWQGKhgrxu5Ay9ICkFVSsIGlSzBbqQJ8umUG7tQFg04iVKl5UsgAIF9BjIsTlQ4BSQF0qSggxNBg9vFCExzhSNFFWIszlSK7BZOat3jk1jkfeFK3L3PiAkJeEkS50skuYy8OZEMHjMsowsYgqxZYlr+kowOHEZZjiHrgZZWswlrnR6iwQU0nX4ZgtZRcbgxpmckEEFpgtIEOOxeI5TDDojCfmwypVBgeZUoSCEc0mpbeCBJJISQIolAdKgQUBVFFYAGjAUtFePUlRKk3APHh2I8ZTCi2FBFKIBOp6KKqSr18AzKsUm3ANlMokqfRKThcwOSUvjcMRmKm1JUw1IyvC+KwvBEViWEF0kicnCporkNNdbIz1Mxqi+TOFXIgBCF2IGL2lhQ9TwzFEc4I2YEY8RYsxgEiWgpagYKxm8kCBisodb7ggJ1tQo1xZ6HKY4ZBFk1qIKVdpXED9IkJC5wphAooaYu4Lq8mNBRFeWJAIOWZgtl9uim3FUbIc9HmSn1nIfEbaLYAlJMaSAC19kDDow/3gruHAME4KYmjh5YKQJB04iwhYwkccWgregWbtG6MKUxnFD6O/wkhClkOJwgiqR7YJACvDU/Ob++fn98EAwyGAyEFMjLrD4OgaYK8EDEJ+/OX+qs10WMSVLsoaE7rs7wV/YLkgYFURpdTARWXv2Xt1/8DycWLgC0kh8Jg64UWXJ1wQ6nAY/X5iA5w9eurp3TxtZ+AcEXbJ/wC2K+G6Aarx4VeNiTXzZZF06f3YCSQ0Wq5MjB7qwhfaftITr2MLE2fPtZGGZahbdnfdne0lo6QkSIA1NoizbTCBYZEGIuUK13eW3ITx7a8SFrgMjt9Cxty8HkQAitiC0yMJ3IGtMCWSTURxGo9hLQVsQTVCBOCeQZFLmOE6Fp05twpPBn4MrwZNw//n5+VPvwlsdbB24BTdPzc+fv4ROxWydRJunoIFuICPnQ1aMFqYCfrPLrxASHVUWEaNytFqr1OBli4AD8NTBg3v2HDw438EW4mrePnYKHsBCGLxcvxg5H+1MYezuUN3dg0uTIE4rqPsP4m5WB0+dDS4waaRapw6iShEi670HXm5l6zLcg2iCqBpEfyYW0sxC8Owp++r9KhFwc+Fe1ckQ+8HdfSfU1+1uVn88gDyoYPDmu0ikZJZR4NWD58+2+llnzx+8ChWG5RChmzeDQeSNnfyjffV+1b3JcSdt0y8T7lF0jaz5N4MLuCKE83vtoVtR/O1yi2TBPXug5TlJcO88xFXiQvDNUz3J+q5Whz3J2ruJLRZyRTEN9vlZ5EbdbBKtAzeRI+aMVMJEIvcUW63NvUMkKwUUTmp2+wlNi76ESoLpTRY8uXAmvYCqwoOnfmRfYFxtJ+vSwatOX9EfnTqIKsSF9BlUIfYmy1/AEy3N3p593kjAfP3B7dtfvYTpkFyypM1qiLSKOYbJQl/tAiJCXm8h6/LnNSIZfNYBpIfIxMPeaujP0XqGZ379Xb1HKo+3Q4t+g/Gx458e31lU2pus+beRyboSDGIjfsnSNdzPFLa6Dlj5rORI9hKqPFEUeQUZrbfnh0eWuB0K3XiEVDfG/fa3X2siEu/FUCjyrPdVPNGW1n/vyYUnbfMK+nSOu4z+csg6dc2yQMGRm5/v3fP6W5z2DnKpNq+11obXNlFN+Y7G/ej1PXtfvzkStKzctVM9yfI1LUFsMRR5NwrkR4uRyMrtlW2kkCri72jPi3R4Hba4c8woRutJh64XDOAd/clKBxFZB97ePLj3/Oal83tQWN3uwWPn6/ylzfN7D24iryJoXTJMshLbiwb429FIZPvon5/9+dE3t59+kRSP3ugtWdzcoeutaWYXsuChcke6vQd6k4XUEGewgkiUzl5Cbjpy1DfbfVJkteDmHnxs/tJZtBm0Lumjhv4mvPhCAtT2jW09YQ3bV55vzT4DzLPeVapy/dD1Vj1cQ1y19ruJXj9UHp5kIQNv4aQV1Ozf3LwE3+6MpA+M3IGXNjf3w1to46R9RR8D73d2kMT2jaOW229Zdf3h7Bf9rhAREbhvP8OeGw2TMSU5WfmP3/9HZZIkw7Q4ancMoa4fmvMzkKG3gbfcJpssRMnNW7duuiUdWo7ZZE30cR38ph2e33hk82sLC7f0Tb9GWfb6oUOZzHghn/3yC1WX/7Rv374XT16gzz/JevzLLwvjhw4Vi+V2Ve1zTxQJtgOFczWy3h2xBcWm5EC3dFbTMef8d5vJwkl8Av1P1v4P+KzChciio3TO7BnPbvc271w5f+jQIXty9rHRMZCu7MNs4Y8KY+3BZTfK6BzTviWfIBk6zJAJNpBKUaxIMATNBqJ8gE8EGJpgSBFtKVpSkChJojQhpsUEzfpK1tTw1Nt1PfQGRwvfbg53SI0zFdWIxXXF1DRTkE2F03hdEQ2S0qOSzHNSSo0RqhhTUxrHy0JCDZB6VND5WnPNn+vW3CFL3F7p1zqUR2JjfxsdHduwyLJQ2Rir2fkcOoWnbdlKiTGWDLBJmo9FEzE2nGQpgo2JqZh1gGJj+IDAxSQtqUlJTlA4ReCSkkZxdbKQC98kWh7gcAvbA2my9r/14TPcYbcjNWpq87I8v/11n4vi5UPQVt3l0dH3JutkTb43Our0giscOlT29SAuakiSjazD+Wt28Se8cWWbuOC1872zDp57S9ogF7drNYLq/OVuP+9zkYzIcn4HVYPKusPV+lTDgUBmzd9cn+6lqZG1Z+8fR1wU8YDr17oSjvzRubgbWT57LSuRRxRSFlaMPl+0RCxKqX2MFrJzsJx3ulUgf/QcsGVrEpwbHXUsJoP8Vn8Rpvt4gDpZe+adCrGZrQM360may81xosPVBJzf05ssn8k/JbIdjWI3h3y2bWkwm+KW+pEFmt0TRM8Di6yL1ncHrBjzN+dawtV3aJC19/ybwXZNPHCnllo+cOtOgyyH1eCb5/f2JsvvUAticbuWkKn5HPLSn/3dY6pkkVXa0RT97l5pLa2Mc8Ob12ps1XhpUNSgDbcc2rizWb+0G1k+fVJmO9Le2+b5bX8dG0ZHZ778074/fTnTHvH4grtXSjQaLBDuODTUVBEFOHbMU/9SV0HEVfOVXcjy65M+u9EmR+TDb3xNUIYM1ehX11+//tVovSocCF06HHFNKNXsFqLLJukWIgnhstPUU5cqZK9KzVe69GULDJBVji0utorW89m+JqsFOIb+CtnzrzqDaV9wsfAE2epQ0Dq8HKzTYfF1Dd65efMOvDbi9AxxcBnqdJsT4kKW/8adZze2m9v8v176xl/qD1E0NqXQytTYzsjqnCaLNtr7oBFK+Xpdz4JWj6ORW3fu3BqZmJho2n3yellpI4coBah26fI2zKIF/KMb25bTYIWEXyzN+pxGqkHRzshqM1pIqEqdbX1YuK410+WCk9egGu64ktA0uW3vIK334qMbi89i2INPcY9WZvu57+1YHq1NizQ6eq7nmX3QWjZJ4jpLjA+QBrwz0p2qkTswTrrpHElIqtJK/yBPyf8ldGPx0dGjj95Ymf2r7+nJxupmfXm0c9EmH2jqrEySKufahGwVmpAz8NbIRCdREyO3YEbG3UBcKz+SjKnNozX9Tr5rIwv/YTsS2br9zaN/gb5rCKVcCyq56zvqHVb3tEiC49ptTqt00TE1D+Gty3Wbjqz95VsQFtQYjdmg4u4BARnmtDpdvjN/NrJQ4gVN05JswT9ZBVjvmr3DJUUo5/0ruY7Of53iFSYEvVT4vOZIfV7I6RJR6wVPkmaX4dQkReYUe/zwgM3RxUabf85vK1i+iaE89DdTchssPSQkQe87SseattQejUImY0qStMejNJ9gdBXNMId+Ab2NwbQQNOcL/dYQRLPfEdiRHrJ4VndT6amBjuDkGiOYbDeq4xRF7mb00P5kLpkkv6s92RwQVMx07YfdXthuStZ8kqC5u+3WwbAkfYsT5EutIREvSbXckP+h7XUosuBhrjpSMbzM70BKUo/5RXDP6FRP2QpojcN4ZEFCksKN1omERInxgIHbZPr2ENfUhFokOFRtMYaixFmGy/GSClRJzSZpKU4Tqv85qnikgB6oIjXN2/wOpNCLrQB+wz3y52SWYnQZlSieRZVYBg+q0BOSokvxaDieAprM5+MFmQOGxAGZ4zkDCHENuKcgshxHSHognxfyiRI6hdCZco4rEBwpxTIpMyf5JksTeQ8zA5Ok0d+m1c5VtK5s2aEOkeyaM+AUJOi6VAjrBGALhoGUSUjFTbFM6Id0E0h5RU2YbF6TQFYoFgSTEwpAkl1nZ45peSmuCXxeE7licpwGAQNkJEIbl+JcrMDktKy/uobh7RbZvuUnTB+TSpJJt6FzNmq/rHaZZF/McIFsMSCNa3FA5PN59DalqGmymYSa1QJAM0lDLLGFZDZWJIoSqWrKOAfcJ5RnkLMRZlnA0+hbImEtycUQeNXmMMukAJtXfGXgk7SjEH1Ei2wZQe+BLSLuXl80xdAB0d3f4cMglcKjDFF1H02lGICLy4MUKimqSFkxxaNvKSDifTTDswxLRzN+Cl0HLfmpmFWxbiN7lz3mybQ3g865S2LL78f54SzyMUAawyeYlv5LPSaeRqad8z2ovGOeFgvtkQ4t7vqot6GAbKt5u9KBgmvB1zRHNbbinXarc9AOK6de+REERMco0i6dS7Fp7++uuiKsS20ku3Yl5ZVXZCmZblDZTtPmbuP9mvZmEJrcIq/dTEsimXxlQyCeV133u2bukh4inK5APn8zWz1CDD3watIlkF3aC1wUkZRk/6a9+frmBFfP/tx01KM3vTbtu8QDg+G6N62014gkqQ9k2ptvEahP0tZ3KJiR8uQB3Nvp2gpewUg9Zx5rndQVmfau2RbvbCVV2+FyWaChHQlv874e/lY0lhH7pUda5ghDpn3HXFlTj1htYd5yIly0J6cb6/cO37t3z2uBdwCF7p/QbRqq20hekVM2BqOOlPDkZV7HgbEdi8g2cPfw9BqDPtfA2l2PtxsUcS/SW1++ghTU+rQqDyZtrA/GFoETXN47kfKxmKt1S9/Dpp2xP6fv+R1YsuE2BRRzd/quixPVJWrtvNw2W4TccCinpg9XLFSnBiILJ7j89THSlM6YMX3Y6sOedsz7hk/LlZ6eXpuuVQ1MbZnP6btnpjvqC8Hl17vAaqAmmkMVRNbhHZEVIEWvM4A6iEY70qA2V0vLY7N2I+mGH8t1d/o+hsML+fHsxwC3gDDTDGKx9Zdowc9ECow1pWGzxlEUea9SCeAVIUlsufA/qwe4tYH+4O/4f3uzU1nRY2l+1UYXW0z9tG2lIqdvL4217PGEjfvTaSxctipORSKLdIolPkjf3QB3W27DqD6rWobsiHCmpu9VrE7aLyqVyanqvsmpF/uq5INKZX2qEnhRoapTDx5MVZPVF4ETgQeT7WxZPPlup0ilmkaKpA9bf2aXllbrazkd9s7/GWs29LX799LoDYgzkdOhpa3RpcjTtWmkiM0/6fspo1zH7GNT09P37G7ZLyanpqoPXkw9qL4gpx6sT1lkPaiRFQuceLCvrR6o+Qx+Bsk44BK1i+33vxKaWWms9HHXs2idmb5vzaN8/25i9JspxPjpUCgUCYUWZ0Cz2ddE302aeH2q9hXoEFnTTWRdTJLJF/sQY+skJmuyWiMrGahWWytNqmEBamz5yNSxtWThPatQK6iUp+sH1zxbrfS0Za7u3k8jDUQknV56+hDz9deWswyfmUhkDmTrkrYURDNZ5NQkUsMH1SpFXnxATlUDL9YRg4isF5VJkppMvmgmqyXR4EzkNEi+z9ZCEJoFt9GfmZadXnD3/t21u/en734QCS2dfvr045nRDxBdi41KOup7DbPlpfpX3p0sy3xbBn5qytkI2MN96rtaDLzbyxpgQZm0I0T2862eHltZBb6M1jSuDjc2GPB0KfT0G2uXiNj6K11TPN/9H8Yip5u2mtcYbZDlBy4rjeJnw2T5Wp67QZb9mKEle33cOjsAAAcdSURBVI0iH45pOo34Qn9TSJNryvcTpImRRV/P0YSl+tgrC03CNQhZVJtYWalZzvln1TqEZyPB1PIyyE6sRFaWbAnzoYY1kKeXHta6SUaxnV8csB/gSiT048XI6aaOcY0sxN27d32S1ZFlEDFJvFO94T5DYf/p5DG8JnJoayaE+/GlfQfUqanZ0NLTWh9A5ptQ6OG2j1Ulx1a38LD/rVVE0WrknYeh1vU72Xq16Jcql+VYRcdYOV0dAn7MRNqu4mfxDOdW8dba3UkviJ6OhE7XpSGxEgp9MwaYix790JVIHStg+cuHkY4FmtlBFtHssop0Atkw4c+Ptref42DG16y364cP35seQ08ZceqgjWlw2P8iME+R3xD6ibNBL2FHC2xUJr2sa7uMhWpldWZmFZN242//eHvFRShZv6tJU10a5hGYLxbx44YiR33OZHfv3gaDChTZ2nJ2oKh4gPzyV399iETLNhD0KtJCZr1arVZOVPqStRwJRVZrG6s3nh/tNk6DESnPfFGU6F5HCfgRn1lUhfCcFmjTe8DIHLbkaGwZbDkPuTZgClBEirg0lUiJmKtQ6IP16iQWrvU+UjqGHtxS32Xr96W/3Ih07/ScCnvhi6J6LDSniICrcYXYeo58G89B69o6WHO0znnG9OF7hw8P0nbxFX6GrY9nl/BTnH74wF5lrWMRgjZsRTA5y0vYYC0tJ/+GLMJSr/NTYqAXYeiY2K9J4lGoAV9TyaTxQjCHmzJPDGAHm1aG+bj+whbfeLj4yWGLrCMnereCLFvGfNUx7w/fwQtSdpj3NrApkaSoDsrQHlLs3Z3PQmARPeJD51EjvqMeZv2evc5X+sjhgdPKKWTjH1rP8BA58qsbVWt15GpfwVqyFuw8PTM2NvP0HczTUmSr9zUW2FRUxF25LdZIIiwm+vOUlCQpCQT0Uo++8Qb6OGrNuxNFe335Wum7uL3i8L27gy2GZoH/6/bM8lfotdlBD9hXuXikWulj4SPYuIdCluYx/7kUCVmiNfhDeIBF1o2jN954+MbDvpMUdUN6B0TZwCb6g8VFh6zKvkplX5/FRpexxZqxzNbs6n/yY1gF0cdOBi72RRi9z4dH//Lo+dFHg6jhMMGuzjg1xRoPqv3W4LSkaBZHzluRdxDJp3Fs2tdo7RBHsa04GnoD24zt3Z8kMUoBBdXBgK/nOQQ2iqPfjkWHORXoshNRuASsDllIC0+/8cZpbK92mayYngDSYp0srIVyr4CHVWvmjHfJgPFq7VotqncbcEEZ0ZIiqqZSyLGSyePuu4JOqybIx0Q5api6CuLo1rrJQwHwhxjFTOmGNE6Y7YbUImsVf9iVoGXCdlMNrQJ9HXHIihzFL7BX7V8Qo2SWVFSVnAtwgqEnBEXkcozKcIKZAoWEKuhAFs2kKspynkvpLvcKFAyTU0rZhClIcwZ3CO3KFaOGomW5cImIc1RBKGWYaC7A4Y64BQBVucQFOL7QLvSWfRqL1Fz4VWy9LDu2m2CAvm2Rtfisb3c/VLRxkJHJfNQAJVUsUBwnlGg5z+TkOIOOJrkCyIblrJzIC0nacJszLKmDkkxk9HBckrJcAvfSzaqgUBQLSnaOiMtkJpFFGlrIhjPWD5ZkWi4TmZje0VHcMlJbjuIh6dpyTNgugksg1buBycJTo6i9vUo1p6nxuB4usGWqZEQz0UyBymcD+bgpFAJAzxX4opEz9SziMZkHma7DEJJx0zrWeDv4d+vry7NNG+gcHm91vshZy09AofTS7VnkxSPPAWmhz0XS/UHGGW8Ouw6L1jwyfdjiGcfWOmVxisXYBWTyUbxlH2PFHn27yQFHobXAEqaxJduDxy2XW7vrZslW2wX3tfH111/bo//8Nmh2R2I4XcS7Y9UWpJmVpSUrMzMbaeQgdgO2HHE6htm86zuBLZzxq2Ml4inY2Sk4GeMlzF67UyC2QqtW/ceshr4droCiJZPJmPpt/NSQMYvN1emtrdP4764a9waSkiAMsI7aK4CxehJ+ZXc9rP9HsLw6O7u6uyHh9/j/AomOTnjirjopqWRbrxnW6Y2Bo9XdH/u2M5gaBFqAzIczIqWBGHrkQhzEOCATApMMKFGZApygAC9rxHmCpo6zgsBniEIyIYOkBkiDkJKsLMqMrMmqkhofhoe9SzByRaFUjql8kS2XBJgA4TgKs1hDYTJMzuBYuSzIDB6CPCRIxQxdKMSyIAPmDHmcAoRuxDJCli1wSlGTCmJuWL+0CzClsmAK4RKfSYwLiTzaoee0fFLnouOaGedl/ZASJ2JwaL+nqflYXuDH2fFoRsAxHKnG+UxKVQtihpDJIl94hccbJmI8oJJAYaloSmDC6OGRFRFjQEhFyUSCYZQEiImB4bnYqaQIRAVZJ5FgBZbANivBhNFPi4ZQTrE0aLdp3znI30bUJnKDT9vRA/8Xx7KLa+rMYhkAAAAASUVORK5CYII=;" vertex="1" parent="1">
          <mxGeometry x="610" y="520" width="232.14" height="130" as="geometry" />
        </mxCell>
      </root>
    </mxGraphModel>
  </diagram>
</mxfile>
